<svg width="1004" height="431" viewBox="0 0 1004 431" fill="none" xmlns="http://www.w3.org/2000/svg">
<path fill-rule="evenodd" clip-rule="evenodd" d="M727.326 145.536C739.11 127.025 752.239 109.572 765.397 93.5621C790.476 63.0393 828.824 18.6312 872.69 18.6312C894.416 18.6312 914.383 26.4569 930.221 40.907C946.879 56.1011 956.029 76.2703 956.029 98.4923C956.029 118.168 946.888 135.72 935.132 151.156C947.478 158.605 958.691 168.215 968.605 179.832C992.229 207.532 1003.85 240.493 1003.85 276.474C1003.85 319.699 987.143 357.707 954.388 386.984C922.518 415.472 883.489 429.554 840.267 429.554C796.677 429.554 757.528 414.943 727.224 384.241C722.617 379.579 718.397 374.73 714.537 369.701C708.29 377.643 701.057 385.074 692.829 391.932C662.111 417.551 624.915 429.545 584.568 429.545C548.441 429.545 514.774 419.461 485.171 399.3C449.983 375.339 428.884 340.863 428.884 298.714C428.884 298.634 428.884 298.553 428.884 298.472L384.437 380.216C369.299 408.058 344.855 430.352 310.653 430.352C290.365 430.352 271.532 423.324 256.624 409.914C255.215 408.65 253.86 407.341 252.57 405.997C226.339 421.863 196.256 429.536 163.824 429.536C146.179 429.536 128.692 427.152 111.775 422.275C91.6894 416.493 72.9303 407.476 56.4193 394.881C32.5558 376.675 16.874 351.791 16.874 321.752C16.874 301.565 24.0147 282.749 37.9642 267.788C42.1749 263.279 46.8002 259.362 51.7664 256.054C44.2296 243.755 40.1571 228.75 40.1571 212.139C40.1571 202.565 41.4009 192.472 42.6356 182.979L52.614 106.13C55.7099 82.2763 64.638 59.1937 85.0003 44.2327C102.838 31.1182 125.439 27.918 147.202 27.918H231.6C282.506 27.918 325.755 54.3979 325.755 107.788C325.755 136.142 317.444 159.305 298.224 172.572C304.047 179.456 305.199 184.53 309.511 192.033L376.504 68.8212C391.734 40.8173 416.372 18.6133 450.702 18.6133C470.677 18.6133 489.298 25.3991 504.16 38.397C504.796 38.9528 505.413 39.5175 506.03 40.0823C508.315 38.8632 510.637 37.6799 513.005 36.5504C535.993 25.5425 560.594 19.4111 586.245 19.4111C622.446 19.4111 655.514 30.8672 682.961 53.8691C711.349 77.6687 726.413 109.375 727.335 145.5L727.326 145.536Z" fill="#850001"/>
<path fill-rule="evenodd" clip-rule="evenodd" d="M710.746 127.654C722.53 109.143 735.66 91.6903 748.817 75.6804C773.897 45.1577 812.244 0.749549 856.111 0.749549C877.836 0.749549 897.812 8.5752 913.65 23.0253C930.309 38.2195 939.458 58.3887 939.458 80.6106C939.458 100.287 930.318 117.839 918.561 133.275C930.907 140.724 942.121 150.333 952.034 161.951C975.658 189.65 987.277 222.611 987.277 258.593C987.277 301.818 970.573 339.825 937.818 369.102C905.948 397.59 866.918 411.673 823.697 411.673C780.107 411.673 740.957 397.07 710.654 366.359C706.047 361.698 701.827 356.848 697.966 351.819C691.719 359.762 684.487 367.193 676.259 374.05C645.54 399.67 608.344 411.664 567.998 411.664C531.871 411.664 498.204 401.579 468.6 381.419C433.413 357.458 412.313 322.973 412.313 280.833C412.313 280.752 412.313 280.671 412.313 280.591L367.866 362.334C352.728 390.177 328.284 412.47 294.083 412.47C273.794 412.47 254.962 405.443 240.054 392.041C238.644 390.768 237.29 389.469 236 388.124C209.768 403.99 179.686 411.664 147.253 411.664C129.609 411.664 112.121 409.279 95.205 404.403C75.1191 398.621 56.36 389.603 39.849 377.008C15.9855 358.802 0.303711 333.918 0.303711 303.879C0.303711 283.701 7.44434 264.877 21.3939 249.915C25.6046 245.407 30.2299 241.489 35.1961 238.173C27.6592 225.874 23.5868 210.868 23.5868 194.257C23.5868 184.684 24.8306 174.59 26.0653 165.097L36.0437 88.2481C39.1395 64.3946 48.0676 41.3121 68.4299 26.351C86.2677 13.2365 108.869 10.0274 130.632 10.0274H215.029C265.935 10.0274 309.184 36.5073 309.184 89.8975C309.184 118.251 296.976 139.263 277.747 152.53C283.57 159.414 288.629 166.63 292.941 174.142L359.934 50.9305C375.164 22.9177 399.801 0.722656 434.132 0.722656C454.107 0.722656 472.728 7.50847 487.59 20.5154C488.225 21.0711 488.843 21.6359 489.46 22.2006C491.745 20.9815 494.067 19.7982 496.435 18.6688C519.423 7.66087 544.024 1.52942 569.675 1.52942C605.875 1.52942 638.943 12.9855 666.391 35.9874C694.778 59.7871 709.843 91.4931 710.764 127.618L710.746 127.654ZM462.279 188.727L448.569 213.943C458.668 206.969 470.185 202.424 482.642 200.819C482.605 199.734 482.577 198.632 482.577 197.529C482.577 197.099 482.577 196.669 482.586 196.238C475.455 194.679 468.637 192.16 462.27 188.736L462.279 188.727Z" fill="#F43A3B"/>
<path fill-rule="evenodd" clip-rule="evenodd" d="M715.906 119.76C726.308 104.172 737.558 89.4076 748.817 75.6926C773.897 45.1698 812.244 0.761719 856.111 0.761719C877.837 0.761719 897.812 8.58737 913.641 23.0375C916.175 25.3502 918.524 27.7705 920.708 30.2984L919.953 29.5992C904.114 15.1491 884.139 7.32344 862.422 7.32344C818.556 7.32344 780.208 51.7316 755.128 82.2543C741.971 98.2642 728.832 115.717 717.057 134.228L710.746 127.666L715.906 119.76ZM926.117 138.217C934.39 144.035 942.102 150.883 949.188 158.727C941.688 151.403 933.57 145.102 924.891 139.867L926.126 138.226L926.117 138.217ZM712.395 368.119C711.805 367.546 711.225 366.972 710.654 366.38C708.277 363.969 705.992 361.504 703.817 359.003L704.287 358.411C706.83 361.719 709.53 364.964 712.404 368.119H712.395ZM448.569 365.188C429.331 346.498 416.92 323.451 413.373 296.864L418.634 287.182C418.634 287.263 418.634 287.344 418.634 287.415C418.634 317.624 429.469 343.898 448.569 365.179V365.188ZM29.3269 368.056C11.4799 350.962 0.303711 329.278 0.303711 303.918C0.303711 283.731 7.44434 264.916 21.3939 249.955C25.6046 245.446 30.2299 241.528 35.1961 238.212C27.6592 225.913 23.5868 210.907 23.5868 194.296C23.5868 184.723 24.8306 174.629 26.0653 165.136L36.0437 88.2871C39.1395 64.4337 48.0676 41.3511 68.4299 26.3901C86.2677 13.2756 108.869 10.0664 130.632 10.0664H215.029C246.494 10.0664 275.038 20.1869 292.24 40.5354C274.799 24.5793 249.221 16.6371 221.341 16.6371H136.943C115.18 16.6371 92.5883 19.8373 74.7413 32.9607C54.379 47.9218 45.4509 71.0044 42.3551 94.8578L32.3767 171.707C31.142 181.209 29.8982 191.294 29.8982 200.867C29.8982 217.478 33.9706 232.475 41.5075 244.782C36.5321 248.09 31.9068 252.007 27.7053 256.525C13.7557 271.486 6.61511 290.311 6.61511 310.489C6.61511 332.702 15.2023 352.1 29.3269 368.065V368.056ZM292.931 174.181L359.924 50.9696C375.155 22.9658 399.783 0.761719 434.122 0.761719C454.098 0.761719 472.719 7.54754 487.58 20.5544C488.216 21.1102 488.833 21.6749 489.442 22.2397C491.727 21.0206 494.058 19.8373 496.416 18.7168C519.405 7.70889 544.005 1.57745 569.656 1.57745C605.857 1.57745 638.925 13.0336 666.373 36.0354C671.33 40.1948 675.881 44.5961 680.027 49.2216C677.687 46.9537 675.245 44.7485 672.693 42.6061C645.246 19.6042 612.177 8.14813 575.977 8.14813C550.317 8.14813 525.725 14.2796 502.737 25.2875C500.378 26.417 498.056 27.5913 495.762 28.8193C495.145 28.2546 494.527 27.6899 493.901 27.1341C479.048 14.1272 460.418 7.35033 440.443 7.35033C406.103 7.35033 381.475 29.5454 366.245 57.5582L299.252 180.77L292.941 174.208L292.931 174.181ZM462.667 206.201C468.748 203.637 475.179 201.853 481.886 200.921L482.596 196.233L488.907 202.794C488.898 203.225 488.898 203.655 488.898 204.094C488.898 205.197 488.916 206.299 488.953 207.384C476.496 208.989 464.979 213.533 454.881 220.508L448.569 213.946C454.217 209.975 456.226 208.8 462.667 206.201Z" fill="#FF6161"/>
<path d="M145.429 160.596C156.237 158.167 166.077 156.956 175.014 156.956C202.453 156.956 224.768 166.799 241.952 186.484C258.306 205.094 266.479 227.88 266.479 254.844C266.479 287.205 255.597 314.034 233.844 335.342C212.081 356.641 184.578 367.299 151.316 367.299C138.288 367.299 125.675 365.542 113.485 362.037C98.5126 357.725 85.6318 351.388 74.8149 343.024C61.2339 332.778 54.4434 321.179 54.4434 308.235C54.4434 299.88 57.143 292.798 62.5514 286.999C67.9599 281.199 74.8149 278.303 83.1349 278.303C89.5108 278.303 99.7011 282.481 113.697 290.844C127.692 299.208 139.956 303.385 150.487 303.385C162.963 303.385 173.282 299.002 181.464 290.235C189.645 281.468 193.727 271.025 193.727 258.887C193.727 246.481 190.475 236.432 183.961 228.75C177.447 221.068 167.956 217.222 155.481 217.222C149.105 217.222 140.518 218.979 129.701 222.484C118.893 225.989 110.435 227.746 104.345 227.746C86.6085 227.746 77.7356 218.038 77.7356 198.622C77.7356 194.041 78.4267 186.35 79.8179 175.566L89.7964 98.7078C91.7405 84.1501 96.0341 74.442 102.686 69.5834C108.509 65.2717 119.179 63.1114 134.704 63.1114H219.102C248.484 63.1114 263.171 73.4918 263.171 94.2616C263.171 114.754 249.314 124.999 221.599 124.999H150.091L145.447 160.596H145.429ZM298.155 368.106C290.324 368.106 283.671 365.614 278.134 360.621C272.587 355.628 269.814 349.362 269.814 341.814C269.814 335.611 271.749 329.004 275.637 321.994L408.269 78.0814C417.141 61.9012 427.12 53.8156 438.204 53.8156C445.962 53.8156 452.614 56.2449 458.161 61.0944C463.708 65.944 466.472 72.1472 466.472 79.7039C466.472 85.6381 464.389 92.4419 460.308 99.9986L327.676 343.912C318.803 360.02 308.963 368.115 298.155 368.115V368.106ZM629.868 196.192C663.682 212.91 680.589 237.992 680.589 271.428C680.589 299.746 669.643 323.07 647.742 341.411C626.956 358.667 601.729 367.299 572.07 367.299C546.014 367.299 522.454 360.155 501.392 345.857C478.109 329.946 466.472 309.723 466.472 285.179C466.472 277.362 469.521 270.074 475.621 263.333C481.72 256.592 488.787 253.222 496.822 253.222C505.695 253.222 513.867 257.668 521.349 266.569C527.725 274.655 534.239 282.884 540.891 291.248C549.764 300.149 560.433 304.595 572.909 304.595C583.716 304.595 592.515 300.884 599.315 293.471C606.106 286.057 609.496 277.093 609.496 266.569C609.496 254.432 604.926 245.674 595.777 240.278C590.23 237.042 580.114 234.209 565.427 231.78C546.299 228.544 536.736 218.567 536.736 201.849C536.736 192.678 539.232 185.803 544.217 181.222C548.372 177.448 555.439 174.481 565.418 172.321C586.757 167.462 597.436 157.351 597.436 141.986C597.436 124.999 589.125 116.502 572.494 116.502C560.571 116.502 550.317 119.738 541.729 126.21C541.177 126.479 535.215 132.413 523.855 144.003C517.479 150.475 510.965 153.711 504.312 153.711C496.278 153.711 489.488 150.951 483.941 145.42C478.394 139.889 475.63 133.22 475.63 125.394C475.63 117.299 478.265 108.945 483.526 100.312C491.846 86.2925 504.865 75.0964 522.611 66.7418C539.242 58.6562 556.287 54.6044 573.747 54.6044C598.412 54.6044 619.76 62.1522 637.773 77.2567C655.786 92.3612 664.797 111.777 664.797 135.505C664.797 159.502 653.151 179.725 629.868 196.183V196.192ZM830.266 169.901C842.465 168.547 850.5 167.875 854.379 167.875C879.882 167.875 900.945 177.717 917.575 197.402C933.377 215.743 941.273 237.58 941.273 262.93C941.273 292.861 930.189 317.737 908.012 337.556C885.843 357.376 859.087 367.29 827.769 367.29C796.452 367.29 770.81 357.178 750.853 336.956C730.896 316.733 720.918 291.248 720.918 260.501C720.918 218.163 744.615 168.144 792.011 110.433C823.052 72.6761 845.782 53.8066 860.192 53.8066C869.065 53.8066 876.823 56.8365 883.475 62.9052C890.128 68.9739 893.454 76.3244 893.454 84.9479C893.454 92.2267 888.184 102.069 877.652 114.476C869.618 123.108 861.648 131.732 853.743 140.364C845.837 148.996 838.015 158.839 830.248 169.892L830.266 169.901ZM791.605 263.943C791.605 274.798 795.346 284.372 802.828 292.798C810.309 301.225 819.597 305.402 830.681 305.402C841.765 305.402 851.052 301.225 858.534 292.798C866.016 284.372 869.756 274.798 869.756 263.943C869.756 252.819 866.089 243.245 858.737 235.285C851.393 227.262 842.041 223.282 830.672 223.282C819.311 223.282 809.95 227.262 802.607 235.285C795.263 243.245 791.587 252.819 791.587 263.943H791.605Z" fill="#850001"/>
<path d="M141.372 156.237C152.18 153.807 162.02 152.597 170.957 152.597C198.396 152.597 220.711 162.44 237.895 182.125C254.249 200.734 262.422 223.521 262.422 250.485C262.422 282.845 251.541 309.675 229.787 330.983C208.024 352.281 180.521 362.94 147.26 362.94C134.232 362.94 121.618 361.183 109.428 357.678C94.4559 353.366 81.5752 347.028 70.7582 338.665C57.1772 328.419 50.3867 316.819 50.3867 303.875C50.3867 295.521 53.0863 288.439 58.4948 282.639C63.9032 276.839 70.7582 273.944 79.0782 273.944C85.4541 273.944 95.6353 278.121 109.64 286.485C123.636 294.848 135.899 299.026 146.431 299.026C158.906 299.026 169.225 294.642 177.407 285.875C185.58 277.108 189.67 266.665 189.67 254.528C189.67 242.122 186.418 232.073 179.895 224.391C173.381 216.699 163.891 212.863 151.415 212.863C145.039 212.863 136.452 214.62 125.635 218.125C114.827 221.63 106.369 223.387 100.27 223.387C82.5334 223.387 73.6606 213.678 73.6606 194.262C73.6606 189.673 74.3516 181.99 75.7429 171.207L85.7213 94.3484C87.6654 79.7907 91.959 70.0826 98.6113 65.2241C104.434 60.9123 115.104 58.752 130.629 58.752H215.027C244.409 58.752 259.096 69.1324 259.096 89.9022C259.096 110.394 245.238 120.64 217.514 120.64H146.007L141.363 156.237H141.372ZM294.099 363.746C286.267 363.746 279.615 361.254 274.077 356.261C268.531 351.268 265.767 345.002 265.767 337.455C265.767 331.252 267.701 324.645 271.59 317.635L404.221 73.722C413.085 57.5418 423.072 49.4562 434.156 49.4562C441.914 49.4562 448.567 51.8855 454.113 56.7351C459.66 61.5936 462.424 67.7878 462.424 75.3445C462.424 81.2788 460.342 88.0825 456.26 95.6393L323.629 339.552C314.756 355.661 304.916 363.755 294.108 363.755L294.099 363.746ZM625.811 191.833C659.625 208.551 676.533 233.633 676.533 267.069C676.533 295.386 665.587 318.711 643.686 337.051C622.899 354.307 597.672 362.94 568.013 362.94C541.957 362.94 518.397 355.795 497.335 341.497C474.052 325.586 462.415 305.363 462.415 280.82C462.415 273.003 465.465 265.715 471.564 258.974C477.664 252.233 484.731 248.863 492.765 248.863C501.638 248.863 509.81 253.309 517.292 262.21C523.668 270.305 530.182 278.525 536.834 286.888C545.707 295.79 556.376 300.236 568.852 300.236C579.659 300.236 588.459 296.525 595.258 289.111C602.049 281.698 605.44 272.725 605.44 262.21C605.44 250.073 600.87 241.315 591.72 235.918C586.174 232.682 576.057 229.85 561.37 227.42C542.243 224.184 532.679 214.207 532.679 197.489C532.679 188.319 535.176 181.444 540.16 176.863C544.316 173.089 551.383 170.122 561.361 167.962C582.7 163.103 593.379 152.992 593.379 137.627C593.379 120.64 585.068 112.142 568.437 112.142C556.515 112.142 546.26 115.378 537.673 121.85C537.12 122.119 531.158 128.053 519.798 139.653C513.422 146.125 506.908 149.361 500.256 149.361C492.221 149.361 485.431 146.6 479.884 141.069C474.337 135.538 471.573 128.869 471.573 121.052C471.573 112.958 474.208 104.603 479.47 95.9709C487.78 81.9511 500.808 70.7549 518.554 62.4004C535.185 54.3058 552.23 50.263 569.69 50.263C594.355 50.263 615.704 57.8108 633.716 72.9153C651.729 88.0198 660.74 107.436 660.74 131.164C660.74 155.161 649.094 175.384 625.82 191.842L625.811 191.833ZM826.209 165.541C838.408 164.188 846.443 163.515 850.322 163.515C875.816 163.515 896.888 173.358 913.519 193.043C929.32 211.384 937.216 233.22 937.216 258.571C937.216 288.502 926.132 313.377 903.955 333.197C881.777 353.016 855.03 362.931 823.712 362.931C792.395 362.931 766.753 352.819 746.796 332.596C726.839 312.373 716.861 286.888 716.861 256.141C716.861 213.804 740.559 163.784 787.954 106.073C818.995 68.3167 841.725 49.4473 856.135 49.4473C865.008 49.4473 872.766 52.4771 879.419 58.5458C886.071 64.6145 889.397 71.9651 889.397 80.5885C889.397 87.8674 884.127 97.7099 873.596 110.116C865.561 118.74 857.591 127.372 849.686 136.005C841.79 144.637 833.958 154.48 826.191 165.532L826.209 165.541ZM787.539 259.584C787.539 270.439 791.28 280.013 798.762 288.439C806.243 296.865 815.531 301.043 826.615 301.043C837.699 301.043 846.986 296.865 854.468 288.439C861.949 280.013 865.69 270.439 865.69 259.584C865.69 248.459 862.023 238.885 854.671 230.934C847.327 222.911 837.975 218.931 826.606 218.931C815.245 218.931 805.884 222.911 798.541 230.934C791.197 238.894 787.521 248.468 787.521 259.584H787.539Z" fill="white"/>
<path d="M149.692 154.578C157.284 153.26 164.36 152.606 170.948 152.606C191.476 152.606 209.139 158.119 223.927 169.136C210.77 161.418 195.595 157.563 178.411 157.563C169.474 157.563 159.634 158.773 148.826 161.203L141.335 156.192L149.692 154.587V154.578ZM80.4327 345.28C77.042 343.237 73.8172 341.031 70.7583 338.665C57.1772 328.419 50.3867 316.819 50.3867 303.875C50.3867 295.521 53.0863 288.439 58.4948 282.639C63.9032 276.839 70.7583 273.944 79.0782 273.944C85.4541 273.944 95.6353 278.121 109.64 286.485C123.636 294.848 135.899 299.026 146.431 299.026C158.906 299.026 169.225 294.642 177.407 285.875C185.58 277.108 189.671 266.665 189.671 254.528C189.671 242.122 186.418 232.082 179.904 224.391C179.01 223.333 178.052 222.347 177.039 221.432C181.056 223.324 184.502 225.959 187.367 229.348C193.881 237.03 197.134 247.079 197.134 259.485C197.134 271.622 193.043 282.066 184.87 290.832C176.698 299.599 166.369 303.983 153.894 303.983C143.362 303.983 131.099 299.805 117.103 291.442C103.108 283.078 92.9173 278.901 86.5414 278.901C78.2306 278.901 71.3664 281.797 65.9579 287.596C60.5495 293.396 57.8498 300.478 57.8498 308.832C57.8498 321.776 64.6403 333.367 78.2214 343.622C78.9493 344.187 79.6864 344.742 80.4327 345.289V345.28ZM88.0524 221.343C78.4609 217.56 73.6606 208.533 73.6606 194.253C73.6606 189.673 74.3516 181.981 75.7429 171.198L85.7213 94.3395C87.6562 79.7818 91.959 70.0736 98.6113 65.2151C104.434 60.9034 115.104 58.743 130.62 58.743H215.018C231.657 58.743 243.58 62.0777 250.794 68.729C243.727 65.3675 234.293 63.6912 222.481 63.6912H138.083C122.558 63.6912 111.888 65.8516 106.074 70.1633C99.4221 75.0218 95.1286 84.721 93.1845 99.2876L83.206 176.146C81.8239 186.93 81.1237 194.621 81.1237 199.201C81.1237 209.107 83.4363 216.484 88.0524 221.334V221.343ZM281.448 361.138C278.795 359.928 276.335 358.305 274.059 356.261C268.512 351.277 265.739 345.002 265.739 337.455C265.739 331.252 267.683 324.645 271.562 317.635L404.194 73.722C413.066 57.5418 423.045 49.4562 434.129 49.4562C441.896 49.4562 448.539 51.8855 454.086 56.7351L454.464 57.0667C450.576 55.2919 446.291 54.4044 441.601 54.4044C430.517 54.4044 420.539 62.49 411.666 78.6702L279.044 322.583C275.165 329.593 273.221 336.2 273.221 342.403C273.221 349.915 275.966 356.163 281.458 361.138H281.448ZM634.002 196.252C637.246 198.153 640.295 200.143 643.17 202.222C640.047 200.322 636.739 198.511 633.256 196.79L634.002 196.261V196.252ZM502.449 344.796C500.726 343.739 499.012 342.636 497.326 341.489C474.043 325.577 462.406 305.354 462.406 280.811C462.406 272.994 465.456 265.706 471.555 258.965C477.655 252.224 484.722 248.854 492.756 248.854C499.445 248.854 505.747 251.381 511.644 256.446C507.977 254.689 504.172 253.802 500.228 253.802C492.194 253.802 485.127 257.172 479.028 263.913C472.928 270.654 469.878 277.933 469.878 285.759C469.878 309.46 480.741 329.136 502.458 344.787L502.449 344.796ZM548.14 295.323C554.377 298.595 561.278 300.227 568.843 300.227C579.651 300.227 588.45 296.516 595.249 289.102C602.04 281.689 605.431 272.725 605.431 262.201C605.431 252.502 602.51 244.963 596.668 239.567C597.59 239.988 598.419 240.418 599.174 240.858C608.324 246.254 612.894 255.012 612.894 267.149C612.894 277.664 609.503 286.637 602.713 294.051C595.922 301.464 587.123 305.175 576.306 305.175C565.59 305.175 556.202 301.894 548.14 295.314V295.323ZM548.407 223.539C537.922 218.555 532.67 209.869 532.67 197.489C532.67 188.319 535.167 181.444 540.151 176.863C544.307 173.089 551.374 170.122 561.352 167.962C582.691 163.103 593.37 152.992 593.37 137.627C593.37 129.425 591.426 123.204 587.556 118.964C596.41 122.316 600.833 130.187 600.833 142.584C600.833 157.958 590.163 168.069 568.815 172.919C558.837 175.079 551.77 178.046 547.615 181.82C542.63 186.41 540.133 193.285 540.133 202.446C540.133 211.42 542.888 218.456 548.407 223.548V223.539ZM488.287 146.923C485.219 145.551 482.409 143.597 479.866 141.06C474.319 135.529 471.555 128.86 471.555 121.035C471.555 112.949 474.19 104.585 479.451 95.953C487.762 81.9331 500.79 70.737 518.536 62.3825C535.167 54.2968 552.212 50.2451 569.672 50.2451C591.969 50.2451 611.548 56.4124 628.419 68.7559C613.318 59.7201 596.226 55.2022 577.144 55.2022C559.684 55.2022 542.639 59.245 526.008 67.3396C508.272 75.6941 495.244 86.8903 486.924 100.91C481.653 109.543 479.028 117.897 479.028 125.992C479.028 133.808 481.801 140.487 487.338 146.017C487.652 146.331 487.974 146.636 488.297 146.932L488.287 146.923ZM838.095 164.304C843.799 163.775 847.871 163.506 850.304 163.506C868.786 163.506 884.947 168.679 898.768 179.032C886.689 171.986 873.025 168.464 857.767 168.464C853.888 168.464 845.844 169.136 833.654 170.489L826.274 165.559L838.095 164.313V164.304ZM766.708 348.319C759.539 344.025 752.896 338.781 746.788 332.596C726.831 312.373 716.852 286.888 716.852 256.141C716.852 213.804 740.55 163.784 787.945 106.073C818.986 68.3167 841.716 49.4473 856.136 49.4473C864.603 49.4473 872.066 52.2172 878.516 57.748C873.955 55.516 868.98 54.4044 863.608 54.4044C849.198 54.4044 826.468 73.2828 795.417 111.031C748.022 168.741 724.324 218.761 724.324 261.099C724.324 291.845 734.303 317.321 754.26 337.553C758.194 341.542 762.34 345.128 766.717 348.328L766.708 348.319ZM810.307 297.412C815.218 299.832 820.654 301.043 826.606 301.043C837.69 301.043 846.978 296.865 854.459 288.439C861.941 280.013 865.691 270.439 865.691 259.584C865.691 248.459 862.014 238.885 854.671 230.934C853.584 229.751 852.46 228.657 851.29 227.645C855.288 229.617 858.909 232.36 862.134 235.883C869.477 243.834 873.154 253.407 873.154 264.532C873.154 275.387 869.413 284.961 861.931 293.387C854.45 301.813 845.162 305.991 834.078 305.991C824.929 305.991 817.005 303.14 810.316 297.412H810.307Z" fill="#EBECEC"/>
</svg>
