<svg width="100" height="52" viewBox="0 0 100 52" fill="none" xmlns="http://www.w3.org/2000/svg">
<path fill-rule="evenodd" clip-rule="evenodd" d="M65.3665 16.7607C68.2885 14.0355 71.8945 12.6484 75.9365 12.6484C77.3744 12.6484 78.7985 12.8397 80.1862 13.206C81.6201 13.5847 82.9852 14.1586 84.2537 14.9113C85.5076 15.6562 86.6473 16.556 87.6423 17.6095C88.7396 18.7707 89.5909 20.1155 90.1903 21.5824C90.8211 23.1291 91.1292 24.7623 91.1292 26.4262C91.1292 28.2046 90.8241 29.9589 90.2405 31.643C89.5201 33.7241 88.2633 35.8043 87.0586 37.6519L81.9774 45.4477C80.6812 47.4866 78.5554 48.6776 76.0881 48.6776H70.8719C68.5769 48.6776 66.5701 47.3529 65.8222 45.2218C65.7139 44.9171 65.6352 44.6085 65.585 44.299C65.3616 45.4035 64.834 46.4167 63.9502 47.2184L63.8843 47.277C62.783 48.2383 61.3796 48.6776 59.9191 48.6776H56.0621C54.6036 48.6776 53.2021 48.2392 52.1008 47.2799L52.0654 47.2491L52.0309 47.2174C50.9355 46.2235 50.3864 44.9046 50.288 43.4887H43.4066C42.9834 43.4887 42.5651 43.4521 42.1587 43.3772L41.8339 44.5614C41.1794 46.9463 38.908 48.6776 36.3698 48.6776H34.5205C33.1043 48.6776 31.8554 48.146 30.9352 47.2943C28.6263 48.6141 26.0232 49.2803 23.2134 49.2803C21.7735 49.2803 20.3465 49.089 18.9558 48.7218C17.5258 48.344 16.1608 47.7778 14.8922 47.029C13.6413 46.2907 12.5046 45.3852 11.5076 44.3413C10.4014 43.1811 9.54909 41.842 8.94382 40.3722C8.30608 38.8237 8 37.1905 8 35.5207C8 33.7328 8.32281 31.9756 8.90938 30.2838C9.63176 28.1988 10.8925 26.1138 12.104 24.2653L17.1892 16.505C18.4755 14.4623 20.5974 13.2483 23.0687 13.2483H28.2986C30.5592 13.2483 32.5345 14.5296 33.3267 16.6108L33.3444 16.6559L33.3612 16.7021C33.9704 18.4131 33.6515 20.2482 32.5472 21.6843L31.2373 23.4684C31.3052 23.504 31.3731 23.5396 31.4401 23.577C32.4104 24.1048 33.2942 24.7325 34.0875 25.4534L36.3304 17.2779C36.9849 14.893 39.2573 13.1618 41.7945 13.1618H43.6438C46.6327 13.1618 48.8757 15.5303 48.8648 18.2718L51.0576 15.5361L51.1275 15.4573C52.3341 14.0874 53.9501 13.1675 55.8426 13.1675H59.9191C61.3668 13.1675 62.7525 13.5982 63.8518 14.5412C64.5752 15.1602 65.0702 15.9206 65.3655 16.7578L65.3665 16.7607Z" fill="url(#paint0_linear_3236_25401)"/>
<path fill-rule="evenodd" clip-rule="evenodd" d="M41.0911 17.8359H43.1658C43.9128 17.8359 44.3763 18.4771 44.1854 19.1702L37.3395 44.1236C37.1722 44.7331 36.5433 45.2291 35.8918 45.2291H33.8171C33.0701 45.2291 32.6066 44.5879 32.7965 43.8948L39.6424 18.9414C39.8107 18.33 40.4367 17.8359 41.0902 17.8359H41.0911Z" fill="#264181"/>
<path fill-rule="evenodd" clip-rule="evenodd" d="M68.9646 43.578L73.8559 36.8492C73.6788 36.8675 73.5056 36.88 73.3471 36.88C71.7035 36.88 70.1594 36.4897 68.7215 35.712C67.2777 34.9315 66.1243 33.8472 65.2611 32.4726C64.3833 31.073 63.9591 29.5455 63.9591 27.9046C63.9591 25.0401 65.0682 22.6177 67.1793 20.6356C69.3336 18.6121 71.923 17.6172 74.911 17.6172C75.9817 17.6172 77.0417 17.7614 78.076 18.0344C79.1321 18.3131 80.134 18.7351 81.0689 19.2898C81.9921 19.8377 82.8286 20.4962 83.5618 21.2719C84.3147 22.0688 84.8934 22.9887 85.3038 23.9952C85.7398 25.0631 85.9465 26.1869 85.9465 27.3356C85.9465 28.6717 85.7152 29.9858 85.2773 31.2508C84.673 32.9955 83.5362 34.8315 82.5265 36.3811L77.4324 44.1961C76.8951 45.0536 76.0989 45.5265 75.0635 45.5265H69.8474C69.3287 45.5265 68.8947 45.2977 68.7294 44.8113C68.567 44.3692 68.6693 43.9385 68.9665 43.5771L68.9646 43.578ZM23.0263 26.8924C23.1995 26.877 23.3708 26.8674 23.5351 26.8674C25.1787 26.8674 26.7317 27.2548 28.1676 28.0354C29.6114 28.8207 30.7649 29.9098 31.627 31.2873C32.5049 32.6888 32.935 34.2182 32.935 35.861C32.935 38.7227 31.8268 41.1403 29.7148 43.1176C27.5535 45.1401 24.9543 46.1292 21.9634 46.1292C20.8897 46.1292 19.8278 45.985 18.7914 45.712C17.7354 45.4333 16.7296 45.0161 15.7936 44.4643C14.8715 43.9203 14.0349 43.2541 13.3007 42.4841C12.5429 41.6892 11.9662 40.774 11.5519 39.7676C11.1119 38.7006 10.9082 37.5817 10.9082 36.432C10.9082 35.0872 11.1572 33.7693 11.5981 32.4976C12.2034 30.7519 13.3421 28.9149 14.3567 27.3673L19.4626 19.5753C19.9921 18.715 20.7824 18.2218 21.8187 18.2218H27.0486C27.5703 18.2218 27.9934 18.4496 28.1824 18.9476C28.3409 19.3936 28.2454 19.8214 27.9551 20.179L23.0263 26.8934V26.8924ZM60.5263 33.826H62.5655C63.0212 33.826 63.5251 33.9068 63.8616 34.2605C64.147 34.5835 64.2327 35.0113 64.2327 35.4275V38.7179C64.2327 39.1437 64.1431 39.5821 63.842 39.8974C63.5221 40.2453 63.0241 40.3386 62.5655 40.3386H60.5263V43.926C60.5263 44.3672 60.4407 44.8402 60.0873 45.1603C59.7635 45.4429 59.3157 45.5275 58.8935 45.5275H55.0366C54.6143 45.5275 54.1675 45.4429 53.8369 45.1545C53.4904 44.8402 53.4048 44.3672 53.4048 43.926V40.3386H42.3821C41.9234 40.3386 41.4323 40.2453 41.1184 39.9031C40.8123 39.5821 40.7227 39.1428 40.7227 38.7169V35.4198C40.7227 35.1391 40.771 34.8575 40.9009 34.6056C41.0456 34.323 41.2434 34.0375 41.4264 33.776L41.4343 33.7645L53.2532 19.0177C53.6469 18.5708 54.1813 18.1401 54.8171 18.1401H58.8935C59.3177 18.1401 59.7567 18.2247 60.0844 18.5054C60.4456 18.8149 60.5263 19.3177 60.5263 19.7618V33.826ZM19.1349 33.5857C18.3909 34.2884 18.0307 35.1266 18.0307 36.1379C18.0307 37.1549 18.3958 37.9989 19.1379 38.7121C19.8917 39.4369 20.7844 39.7782 21.8404 39.7782C22.9033 39.7782 23.8019 39.4321 24.5666 38.7092C25.3175 37.9998 25.6915 37.1578 25.6915 36.1379C25.6915 34.0529 23.9278 32.537 21.8404 32.537C20.7883 32.537 19.8927 32.8705 19.1349 33.5857ZM48.8432 33.826H53.4048V28.0085L48.8432 33.826Z" fill="#002B8F"/>
<path fill-rule="evenodd" clip-rule="evenodd" d="M66.2176 31.9582L66.068 31.7092L65.9283 31.4573L65.7984 31.2026L65.6773 30.945L65.5661 30.6845L65.4647 30.4211L65.3732 30.1548L65.2915 29.8857L65.2197 29.6136L65.1567 29.3378L65.1035 29.059L65.0602 28.7773L65.0268 28.4928L65.0022 28.2054L64.9874 27.9151L64.9825 27.6209L64.9943 27.1172L65.0307 26.6232L65.0908 26.1377L65.1754 25.6619L65.2837 25.1957L65.4165 24.7381L65.573 24.2902L65.7541 23.8509L65.9588 23.4212L66.1871 23.0002L66.4401 22.5887L66.7166 22.186L67.0178 21.7928L67.3425 21.4093L67.6919 21.0344L68.0649 20.6691L68.3395 20.4009C68.4478 20.2913 68.558 20.1827 68.6722 20.076C70.7242 18.1458 73.1944 17.1807 76.0909 17.1807C77.1065 17.1807 78.1222 17.3143 79.1379 17.5825C80.1535 17.8507 81.1141 18.2534 82.0136 18.7889C82.9191 19.3252 83.7152 19.9558 84.4091 20.6931C85.1019 21.4237 85.658 22.2879 86.0635 23.2808C86.468 24.2729 86.6747 25.3322 86.6747 26.4578C86.6747 27.6978 86.4611 28.9581 86.029 30.2317C85.5625 31.5525 84.663 33.2347 83.3245 35.2659L78.2255 43.0877C78.1084 43.2742 77.9805 43.4366 77.8397 43.577L77.2325 44.1701L77.012 44.3623L76.7739 44.52L76.517 44.643L76.2414 44.7305L75.9472 44.7833L75.6352 44.8006H70.4191L70.2892 44.7939L70.1711 44.7747L70.0658 44.742L69.9723 44.6959L69.8916 44.6363L69.8236 44.5632L69.7685 44.4777L69.7262 44.3787L69.6947 44.2729L69.678 44.1681L69.677 44.0643L69.6908 43.9615L69.7193 43.8596L69.7636 43.7586L69.8227 43.6587L69.8975 43.5597L75.4078 35.9791L75.1372 36.0195L74.8912 36.0551L74.6687 36.0849L74.4709 36.1099L74.2967 36.1291L74.1471 36.1425L74.0211 36.1512L73.9188 36.1541L73.6255 36.1493L73.3342 36.1368L73.0458 36.1147L72.7594 36.0849L72.476 36.0455L72.1945 35.9974L71.916 35.9407L71.6394 35.8753L71.3649 35.8013L71.0932 35.7186L70.8236 35.6273L70.5569 35.5273L70.2921 35.4187L70.0303 35.3014L69.7705 35.1755L69.5126 35.0409L69.2587 34.8996L69.0117 34.7506L68.7706 34.5949L68.5363 34.4325L68.308 34.2633L68.0866 34.0874L67.871 33.9047L67.6624 33.7154L67.4597 33.5193L67.2638 33.3164L67.0739 33.1069L66.8908 32.8906L66.7137 32.6676L66.5424 32.4378L66.3771 32.2014L66.2186 31.9582H66.2176ZM12.5428 39.3186L12.469 39.1321L12.4001 38.9437L12.3361 38.7543L12.2761 38.563L12.222 38.3708L12.1718 38.1766L12.1265 37.9814L12.0862 37.7844L12.0497 37.5854L12.0182 37.3855L11.9917 37.1836L11.97 36.9798L11.9533 36.7741L11.9415 36.5674L11.9346 36.3588L11.9316 36.1483L11.9346 35.9195L11.9425 35.6898L11.9553 35.4581L11.973 35.2265L11.9966 34.9929L12.0251 34.7583L12.0586 34.5228L12.097 34.2863L12.1413 34.0489L12.1905 33.8105L12.2446 33.5712L12.3046 33.3299L12.3696 33.0877L12.4405 32.8445L12.5162 32.6003L12.5969 32.3542L12.6895 32.1024L12.7918 31.8419L12.905 31.5727L13.028 31.2959L13.1619 31.0104L13.3055 30.7162L13.4601 30.4144L13.6244 30.1039L13.7986 29.7848L13.9836 29.4579L14.1785 29.1224L14.3842 28.7783L14.5997 28.4265L14.8251 28.066L15.0603 27.6978L15.3064 27.321L20.4191 19.5194L20.6032 19.2531L20.8049 19.0215L21.4122 18.4284C21.8334 18.0016 22.3629 17.7863 22.9957 17.7863H28.2256C28.5898 17.7863 28.823 17.9266 28.9322 18.215C29.0346 18.5034 28.9795 18.7773 28.7669 19.0397L23.2221 26.5934C23.8943 26.4857 24.3883 26.4328 24.7111 26.4328C26.2829 26.4328 27.7591 26.801 29.1242 27.546C30.4961 28.29 31.5944 29.3224 32.4182 30.6422C33.2488 31.963 33.6602 33.4106 33.6602 34.9861C33.6602 37.5191 32.7558 39.7098 30.9518 41.5583C30.8317 41.6813 30.7077 41.8034 30.5788 41.9236L29.9715 42.5167L29.7776 42.6945L29.5808 42.8666L29.382 43.0329L29.1803 43.1934L28.9765 43.3482L28.7699 43.4981L28.5612 43.6414L28.3496 43.7798L28.136 43.9124L27.9195 44.0393L27.701 44.1604L27.4796 44.2758L27.2562 44.3854L27.0298 44.4902L26.8015 44.5892L26.5702 44.6824L26.337 44.7699L26.1008 44.8516L25.8626 44.9275L25.6215 44.9987L25.3774 45.064L25.1314 45.1236L24.8834 45.1775L24.6324 45.2255L24.3785 45.2678L24.1226 45.3043L23.8647 45.3351L23.6039 45.3601L23.3402 45.3803L23.0744 45.3947L22.8058 45.4034L22.5351 45.4062L22.3432 45.4043L22.1513 45.3995L21.9604 45.3918L21.7694 45.3813L21.5785 45.3668L21.3876 45.3495L21.1966 45.3293L21.0057 45.3063L20.8148 45.2794L20.6239 45.2496L20.4329 45.2169L20.242 45.1803L20.0511 45.1409L19.8611 45.0986L19.6702 45.0535L19.4793 45.0044L19.2893 44.9525L19.1004 44.8977L18.9134 44.8401L18.7274 44.7785L18.5423 44.7141L18.3593 44.6468L18.1772 44.5767L17.9961 44.5027L17.817 44.4258L17.6389 44.346L17.4617 44.2633L17.2865 44.1777L17.1123 44.0884L16.9391 43.997L16.7669 43.9019L16.5966 43.8038L16.264 43.5981L15.9402 43.3828L15.6262 43.1578L15.3221 42.9243L15.0269 42.6811L14.7415 42.4292L14.4669 42.1687L14.2021 41.8996L14.0722 41.7611L13.9462 41.6198L13.8242 41.4756L13.7051 41.3286L13.589 41.1776L13.4768 41.0238L13.3685 40.8672L13.2632 40.7076L13.1609 40.5451L13.0625 40.3798L12.967 40.2106L12.8755 40.0385L12.7869 39.8636L12.7013 39.6858L12.6196 39.5041L12.5408 39.3195L12.5428 39.3186ZM26.4728 37.2403L26.5368 37.0538L26.5909 36.8635L26.6352 36.6693L26.6696 36.4713L26.6942 36.2694L26.709 36.0637L26.7139 35.8532L26.6913 35.4235L26.6253 35.0102L26.5171 34.6141L26.3704 34.2383L26.1864 33.8826L25.9679 33.55L25.7179 33.2415L25.4384 32.9579L25.1314 32.7022L24.7987 32.4753L24.4444 32.2792L24.0694 32.1149L23.6758 31.9841L23.2664 31.889L22.8442 31.8303L22.4111 31.8101L22.1907 31.8149L21.9741 31.8284L21.7625 31.8515L21.5549 31.8832L21.3512 31.9245L21.1524 31.9745C20.5806 32.1485 20.1121 32.3773 19.6515 32.756C19.0531 33.4654 18.7559 34.2969 18.7559 35.2591C18.7559 36.3915 19.1673 37.3499 19.9979 38.1477C20.8286 38.9456 21.8305 39.3407 23.0174 39.3407C24.7505 39.3407 25.8902 38.6745 26.4718 37.2393L26.4728 37.2403ZM42.0198 39.3186L41.9548 39.2407L41.8987 39.1542L41.8515 39.0581L41.8131 38.9523L41.7836 38.837L41.7619 38.712L41.7491 38.5774L41.7452 38.4342V35.1371L41.7472 35.0506L41.7531 34.9669L41.7629 34.8852L41.7767 34.8064L41.7944 34.7304L41.817 34.6574L41.8436 34.5872L41.8751 34.5199L41.9125 34.4507L41.9568 34.3729L42.008 34.2873L42.066 34.1941L42.131 34.0931L42.2038 33.9835L42.2835 33.8672L42.3701 33.7432L54.1674 19.0234L54.3259 18.8533L54.9331 18.2602C55.3022 17.891 55.6594 17.7055 55.996 17.7055H60.0725C60.4711 17.7055 60.7663 17.793 60.9651 17.9602C61.157 18.1275 61.2535 18.4361 61.2535 18.885V33.3904H63.7454C64.205 33.3904 64.5209 33.4837 64.6991 33.6721C64.8713 33.8663 64.9599 34.1547 64.9599 34.5507V37.8411C64.9599 38.2371 64.8703 38.5313 64.6853 38.7264C64.6695 38.7437 64.6538 38.7591 64.6361 38.7745L64.078 39.3195L64.0042 39.3878L63.9186 39.4474L63.8202 39.4983L63.709 39.5397L63.585 39.5723L63.4482 39.5954L63.2996 39.6098L63.1382 39.6146H61.2545V43.0502C61.2545 43.4856 61.159 43.7808 60.9661 43.9547L60.3589 44.5478L60.2821 44.6074L60.1945 44.6593L60.0971 44.7036L59.9898 44.7391L59.8727 44.767L59.7467 44.7872L59.6109 44.7997L59.4662 44.8035H55.6092L55.4646 44.7997L55.3288 44.7872L55.2028 44.767L55.0857 44.7391L54.9784 44.7036L54.8809 44.6593L54.7934 44.6074L54.7156 44.5478L54.6477 44.4767L54.5896 44.394L54.5404 44.2998L54.5001 44.1931L54.4686 44.0739L54.4459 43.9432L54.4322 43.8L54.4272 43.6433V39.6146H42.9528L42.7914 39.6098L42.6437 39.5954L42.5089 39.5723L42.3859 39.5397L42.2757 39.4983L42.1782 39.4474L42.0926 39.3878L42.0198 39.3195V39.3186ZM54.4272 33.3895V26.603L49.1058 33.3895H54.4272Z" fill="#B3B3B3"/>
<path d="M65.6651 26.9722C65.6651 24.2643 66.6946 21.9448 68.7466 20.0213C70.7986 18.0911 73.2688 17.126 76.1653 17.126C77.1809 17.126 78.1966 17.2596 79.2123 17.5278C80.2279 17.796 81.1885 18.1987 82.088 18.7342C82.9934 19.2706 83.7896 19.9011 84.4835 20.6384C85.1763 21.369 85.7324 22.2332 86.1379 23.2262C86.5424 24.2182 86.749 25.2775 86.749 26.4031C86.749 27.6432 86.5355 28.9034 86.1034 30.1771C85.6369 31.4978 84.7374 33.18 83.3989 35.2112L78.2999 43.033C77.8334 43.777 77.174 44.1529 76.3168 44.1529H71.1007C70.7375 44.1529 70.5033 44.0125 70.4078 43.7309C70.3045 43.4492 70.3596 43.1743 70.5791 42.9128L76.0895 35.3323C75.3346 35.4467 74.8406 35.5063 74.6004 35.5063C73.0287 35.5063 71.5603 35.1372 70.1943 34.3932C68.8223 33.6559 67.7309 32.6235 66.9002 31.3094C66.0765 29.9887 65.6651 28.5477 65.6651 26.9722ZM12.6152 35.4986C12.6152 34.2788 12.8347 33.0186 13.2805 31.7055C13.747 30.3847 14.6525 28.7025 15.9909 26.6713L21.1037 18.8687C21.5702 18.1113 22.2286 17.7287 23.0731 17.7287H28.303C28.6671 17.7287 28.9003 17.869 29.0096 18.1574C29.1119 18.4458 29.0568 18.7207 28.8442 18.9822L23.2994 26.5358C23.9716 26.4281 24.4666 26.3753 24.7885 26.3753C26.3602 26.3753 27.8365 26.7434 29.2015 27.4884C30.5734 28.2324 31.6718 29.2648 32.4955 30.5846C33.3262 31.9054 33.7376 33.3531 33.7376 34.9276C33.7376 37.6288 32.7081 39.9416 30.6561 41.8651C28.5972 43.7886 26.1201 44.7537 23.2177 44.7537C22.1952 44.7537 21.1795 44.6201 20.1638 44.3509C19.1482 44.0827 18.1876 43.6809 17.2822 43.1512C16.3826 42.6158 15.5796 41.9785 14.8867 41.2479C14.186 40.5174 13.6378 39.659 13.2264 38.6669C12.8209 37.6749 12.6152 36.6223 12.6152 35.4957V35.4986ZM20.0753 32.3351C19.2446 33.1195 18.8332 34.0711 18.8332 35.2045C18.8332 36.3368 19.2446 37.2952 20.0753 38.0931C20.9059 38.8909 21.9078 39.286 23.0947 39.286C24.2816 39.286 25.2904 38.8909 26.1348 38.0931C26.9792 37.2952 27.3975 36.3359 27.3975 35.2045C27.3975 32.8753 25.4311 31.1624 23.0947 31.1624C21.9078 31.1624 20.9049 31.5507 20.0753 32.3351ZM42.4288 37.7845V34.4874C42.4288 34.2528 42.4701 34.0442 42.5587 33.8702C42.6483 33.6962 42.8126 33.4348 43.0528 33.0926L54.85 18.3727C55.2752 17.8902 55.6866 17.6489 56.0714 17.6489H60.1478C60.5464 17.6489 60.8417 17.7364 61.0405 17.9036C61.2324 18.0709 61.3288 18.3795 61.3288 18.8284V33.3339H63.8208C64.2804 33.3339 64.5963 33.4271 64.7744 33.6155C64.9467 33.8097 65.0352 34.0981 65.0352 34.4941V37.7845C65.0352 38.1805 64.9457 38.4747 64.7607 38.6698C64.5825 38.864 64.2666 38.9649 63.8208 38.9649H61.3288V42.9936C61.3288 43.429 61.2334 43.7242 61.0405 43.8981C60.8486 44.0664 60.5464 44.1529 60.1478 44.1529H56.2909C55.8923 44.1529 55.5911 44.0664 55.3982 43.8981C55.2063 43.7242 55.1099 43.429 55.1099 42.9936V38.9649H43.6354C43.1896 38.9649 42.8805 38.864 42.7024 38.6698C42.5174 38.4757 42.4278 38.1805 42.4278 37.7845H42.4288ZM49.1822 33.3339H55.1118V25.7725L49.1822 33.3339Z" fill="white"/>
<path fill-rule="evenodd" clip-rule="evenodd" d="M37.3499 43.8394L37.3037 43.8846L36.8352 44.3421L36.7053 44.4575L36.5606 44.5527L36.4051 44.6248L36.2437 44.6709L36.0803 44.6872H34.0057L33.8502 44.6709L33.7134 44.6257L33.5973 44.5536L33.5048 44.4584L33.4388 44.3431L33.4014 44.2104L33.3945 44.0643L33.4211 43.9076L40.267 18.9542L40.3261 18.7975L40.4127 18.6514L40.5229 18.5187L41.0376 18.016C41.2384 17.8084 41.5189 17.6719 41.7925 17.6719H43.8671C44.3061 17.6719 44.5678 18.0247 44.4507 18.4505L37.6048 43.4039C37.5605 43.5635 37.469 43.7135 37.3489 43.8375L37.3499 43.8394Z" fill="url(#paint1_linear_3236_25401)"/>
<path d="M76.1476 29.436L73.5347 31.2692C73.0111 31.6863 72.3596 31.2557 72.5653 30.6232L73.5809 27.5068C72.644 26.856 71.7071 26.2062 70.7701 25.5544C70.2544 25.1959 70.5418 24.4922 71.1717 24.4894L74.5523 24.5047C74.8692 23.5175 75.1861 22.5303 75.504 21.5431C75.6024 21.2345 75.878 21.0701 76.1486 21.0596C76.4183 21.0692 76.6948 21.2345 76.7933 21.5431C77.1112 22.5303 77.4271 23.5175 77.745 24.5047L81.1256 24.4894C81.7555 24.4922 82.0428 25.1959 81.5271 25.5544C80.5902 26.2062 79.6533 26.856 78.7163 27.5068L79.732 30.6232C79.9377 31.2557 79.2862 31.6863 78.7626 31.2692L76.1496 29.436H76.1476Z" fill="url(#paint2_linear_3236_25401)"/>
<path d="M70.5859 24.8114C70.6912 24.6278 70.9019 24.4903 71.1794 24.4884L74.56 24.5038L74.4626 24.8085L70.7572 24.7912C70.6971 24.7912 70.6401 24.7989 70.5859 24.8104V24.8114ZM75.5846 21.3845C75.7135 21.1788 75.9369 21.0682 76.1554 21.0596C76.426 21.0701 76.7016 21.2345 76.8 21.5431C77.1179 22.5303 77.4338 23.5175 77.7517 24.5047L81.1323 24.4894C81.7622 24.4922 82.0496 25.1959 81.5339 25.5544L81.1953 25.79C81.591 25.4179 81.3016 24.795 80.7091 24.7922L77.3285 24.8075C77.0116 23.8203 76.6947 22.8331 76.3768 21.8459C76.2784 21.5373 76.0028 21.3729 75.7322 21.3624C75.683 21.3643 75.6328 21.371 75.5836 21.3835L75.5846 21.3845ZM78.726 27.5058L79.7387 30.6241C79.8765 31.0481 79.6295 31.3807 79.2939 31.4287C79.3618 31.2922 79.3785 31.1192 79.3156 30.9269L78.2999 27.8009L78.725 27.5058H78.726Z" fill="#FF6600"/>
<path d="M14.515 8.88169H16.1192C16.3258 8.88169 16.5099 8.96243 16.6506 9.10951C16.7904 9.25562 16.8622 9.43538 16.8622 9.63532V10.7417C16.8622 10.9532 16.7087 11.1109 16.4912 11.1109H13.0751C12.8675 11.1109 12.6834 11.0311 12.5407 10.884C12.4 10.7389 12.3281 10.5581 12.3281 10.3592V2.58829C12.3281 2.37585 12.4807 2.21917 12.6992 2.21917H14.1439C14.3634 2.21917 14.515 2.37585 14.515 2.58829V8.88169ZM21.9947 2C23.3095 2 24.4413 2.45852 25.3714 3.36596C26.3024 4.27339 26.7699 5.3798 26.7699 6.66405C26.7699 7.9483 26.3014 9.05472 25.3714 9.96215C24.4413 10.8696 23.3105 11.33 21.9947 11.33C20.6788 11.33 19.549 10.8696 18.618 9.96215C17.6879 9.05472 17.2175 7.9483 17.2175 6.66405C17.2175 5.3798 17.6879 4.27339 18.618 3.36596C19.549 2.45756 20.6788 2 21.9947 2V2ZM29.1112 4.44834H27.5031C27.2836 4.44834 27.1252 4.29358 27.1252 4.07921V2.58829C27.1252 2.37297 27.2826 2.21917 27.5031 2.21917H32.9948C33.2162 2.21917 33.3727 2.37201 33.3727 2.58829V3.69471C33.3727 3.89946 33.2949 4.08114 33.1473 4.22629C33.0007 4.37144 32.8117 4.44834 32.6031 4.44834H31.3896V10.7417C31.3896 10.9561 31.2311 11.1109 31.0117 11.1109H29.4891C29.2687 11.1109 29.1112 10.9571 29.1112 10.7417V4.44834ZM38.5081 2C39.823 2 40.9548 2.45852 41.8848 3.36596C42.8158 4.27339 43.2833 5.3798 43.2833 6.66405C43.2833 7.9483 42.8149 9.05472 41.8848 9.96215C40.9548 10.8696 39.823 11.33 38.5081 11.33C37.1923 11.33 36.0624 10.8696 35.1314 9.96215C34.2014 9.05472 33.7309 7.9483 33.7309 6.66405C33.7309 5.3798 34.2014 4.27339 35.1314 3.36596C36.0624 2.45756 37.1923 2 38.5081 2V2ZM23.7593 4.93955C23.2702 4.46276 22.6846 4.22821 21.9937 4.22821C21.3028 4.22821 20.7172 4.46084 20.2281 4.93858C19.7389 5.41633 19.4978 5.98732 19.4978 6.66309C19.4978 7.33886 19.738 7.90889 20.2281 8.3876C20.7172 8.86535 21.3008 9.10086 21.9937 9.10086C22.6856 9.10086 23.2692 8.86535 23.7593 8.3876C24.2494 7.90985 24.4866 7.33886 24.4866 6.66309C24.4866 5.98828 24.2494 5.41633 23.7593 4.93858V4.93955ZM40.2737 4.93955C39.7846 4.46276 39.199 4.22821 38.5081 4.22821C37.8172 4.22821 37.2316 4.46084 36.7425 4.93858C36.2534 5.41633 36.0132 5.98732 36.0132 6.66309C36.0132 7.33886 36.2534 7.90889 36.7425 8.3876C37.2316 8.86535 37.8162 9.10086 38.5081 9.10086C39.2 9.10086 39.7836 8.86535 40.2737 8.3876C40.7638 7.90985 41.001 7.33886 41.001 6.66309C41.001 5.98828 40.7638 5.41633 40.2737 4.93858V4.93955Z" fill="white"/>
<defs>
<linearGradient id="paint0_linear_3236_25401" x1="53.7513" y1="45.2468" x2="53.7513" y2="12.9608" gradientUnits="userSpaceOnUse">
<stop stop-color="#2358BA"/>
<stop offset="1" stop-color="#1795D7"/>
</linearGradient>
<linearGradient id="paint1_linear_3236_25401" x1="44.4787" y1="17.6719" x2="33.8368" y2="44.8603" gradientUnits="userSpaceOnUse">
<stop stop-color="#FFCD01"/>
<stop offset="1" stop-color="#FF8501"/>
</linearGradient>
<linearGradient id="paint2_linear_3236_25401" x1="77.5048" y1="22.4899" x2="68.7751" y2="31.9887" gradientUnits="userSpaceOnUse">
<stop stop-color="#FFCC00"/>
<stop offset="1" stop-color="#FF6600"/>
</linearGradient>
</defs>
</svg>
