<svg width="74" height="70" viewBox="0 0 74 70" fill="none" xmlns="http://www.w3.org/2000/svg">
<path opacity="0.6" d="M66.6848 49.8547C67.9595 41.8984 68.5557 31.3929 59.0986 28.8847C52.0675 27.0139 44.0085 27.754 36.8129 27.7334C31.8377 27.7334 26.6158 27.3017 21.7845 28.6997C15.2879 30.5911 14.8151 33.7983 14.8973 40.1304C14.959 45.8251 15.7813 54.7682 19.9342 59.1061C21.0032 60.2163 22.4218 60.9975 23.6964 61.8404C21.4144 61.9227 19.0296 61.6965 16.8298 62.1899C16.8709 66.0755 24.1693 65.6438 27.1092 65.3149C35.8056 64.3692 45.3654 65.87 54.1028 66.3017C59.4276 66.5484 63.3132 67.3502 64.629 61.2031C63.1693 60.8536 61.4424 60.9153 60.1677 61.3265C63.7861 60.2163 65.8008 55.385 66.6848 49.8752V49.8547ZM32.29 41.4667C33.0096 40.4182 34.017 39.637 34.7571 38.5885C35.7233 37.2316 36.5457 35.6897 37.5942 34.415C38.8277 32.9348 40.4107 31.619 41.8087 30.3444L36.2167 29.7687C39.2389 29.5015 42.3227 28.2885 45.2626 29.3781C47.483 30.2005 49.95 30.8584 52.0059 32.133C53.959 33.346 52.8488 34.5795 51.7592 36.1625C50.7723 37.5605 49.7238 38.938 48.6753 40.2743C48.7576 40.1715 52.7665 42.3096 52.931 42.988C53.3422 44.5299 49.066 47.2231 47.9558 48.0866C46.2905 49.3613 44.7897 50.9237 43.1656 52.2806C40.7808 54.2748 38.2315 56.269 35.5589 57.7698C34.6954 58.2426 33.8114 58.4894 32.8657 58.6538C32.5573 56.5363 34.1814 53.0207 34.9215 51.0676C35.086 50.6359 36.669 45.4962 36.8746 45.5373C36.0112 45.3523 31.6938 44.1188 31.4677 43.1936C31.3443 42.6797 32.0639 41.8162 32.3106 41.4667H32.29Z" fill="#F37715"/>
<path d="M11.2598 16.693C5.50337 16.4874 4.61936 20.1263 4.66048 25.8211C4.74272 33.4073 4.88663 40.7262 4.43433 48.3124C4.20819 52.0952 4.06426 56.762 4.86605 58.6946C5.70896 60.7504 11.6504 67.8227 17.2013 68.7067C28.7759 70.557 40.3299 68.9534 51.9868 69.5085C56.3247 69.7141 66.3779 69.2001 67.7554 67.8021C69.3589 66.1779 69.6673 55.1173 69.4206 50.101C69.03 41.8775 71.4559 25.451 62.0811 21.9355C61.3821 21.6682 60.6626 21.4626 59.943 21.3187C61.4438 22.9634 63.4174 24.2997 64.4248 26.3145C56.1602 23.2923 40.4533 23.6213 29.3104 24.1969C26.1855 24.3614 22.341 24.5875 19.2572 24.9165C34.0801 25.081 44.3595 25.5333 56.8798 26.4584C66.5629 27.1574 67.7142 31.3514 67.9815 41.2196C68.146 47.7778 67.8581 63.7726 66.1518 65.6229C64.0136 67.9254 47.69 67.1237 40.2066 67.1648C34.1212 67.2059 27.3779 66.9386 19.4833 66.3424C19.4833 66.3424 17.1396 66.5069 15.4127 65.3556C15.0015 58.0984 14.5698 52.1363 14.1998 45.8248C13.9736 42.0419 13.398 28.7815 14.9399 27.4863C15.865 26.7051 19.1133 26.7668 23.8212 26.7668C21.1692 25.8827 17.5714 25.636 15.68 25.3893C13.768 23.539 10.4786 20.7636 7.94987 19.0572C10.1291 21.5037 13.254 23.7652 14.1792 26.15C12.3083 27.6508 12.9045 36.5939 12.7401 40.2328C12.4934 45.6603 13.5419 51.4373 13.768 56.8854C13.8502 58.859 13.3774 62.3746 12.7401 64.081C10.8281 62.3951 8.4844 60.4009 6.96305 58.6946C5.93512 57.5638 6.26405 56.6181 6.18181 54.7473C5.99678 50.3477 6.09959 43.4811 6.16126 39.4104C6.22294 34.7436 4.84551 18.7077 9.7385 18.3582C12.4111 18.1732 14.7343 17.6387 17.777 17.8032C17.9414 17.8443 19.4422 17.7826 20.059 17.8032C20.0179 17.1658 20.3057 16.1996 20.2235 15.665L11.2804 16.6724L11.2598 16.693Z" fill="#F37715"/>
<path d="M30.6872 20.1677C29.8032 20.4144 29.1659 20.476 28.2613 20.6405C28.4052 19.0164 28.1585 17.4333 28.2202 15.8092C28.2613 14.4523 28.7958 13.0338 28.2819 11.6974C27.4184 9.51821 24.7458 9.92938 22.9366 10.135C21.3536 10.2994 20.1406 10.6901 19.9144 12.4787C19.6061 15.028 19.4621 17.9062 19.7088 20.4555C18.4753 20.6611 16.9951 20.106 15.8232 19.7154C19.75 23.6626 24.1496 24.3822 29.7827 21.8535C30.8312 21.3806 31.9208 20.8255 32.6403 19.8182C32.0236 19.9004 31.2423 20.0237 30.6667 20.1882L30.6872 20.1677ZM27.0894 15.8503C27.11 16.981 27.4389 19.5714 26.6783 20.4555C25.7942 21.4834 23.6973 21.7918 22.5254 21.4423C22.0731 21.3189 21.6414 21.0928 21.2096 20.8872L20.5929 20.4144C20.4079 18.2351 20.5312 15.9737 20.8601 13.815C20.9835 12.9926 21.0246 11.9236 21.6825 11.4507C22.731 10.6901 25.9793 10.4228 26.925 11.4918C27.9529 12.6637 27.3567 14.4318 26.1232 14.9457C25.1158 15.3569 22.2582 15.7886 21.5592 14.5757C22.7104 16.8577 25.1981 16.3026 27.11 15.8914L27.0894 15.8503Z" fill="#F37715"/>
<path d="M59.4889 19.5088C59.2422 17.3501 59.6123 14.9036 59.345 12.7244C59.0572 10.4012 57.0424 9.88726 54.966 9.8667C53.0129 9.8667 50.2169 10.2162 50.1141 12.6627C49.9908 15.3148 50.073 18.0285 50.073 20.7012C50.073 20.8451 47.6676 20.0433 46.4752 19.6527C46.1463 19.5499 45.8996 19.4676 45.8379 19.4471C46.1463 19.9611 46.578 20.475 47.0303 20.8656C48.4077 22.0581 50.2786 22.5309 52.0466 22.7776C53.0746 22.9215 54.1025 23.0243 55.151 23.0243C56.1378 23.0243 57.0218 22.9626 57.9676 22.8598C58.8105 22.7776 59.8179 23.0654 60.5169 22.387C59.4684 22.0786 59.6945 21.5646 59.4683 19.5293L59.4889 19.5088ZM58.6254 20.0639C58.6254 21.5235 57.7003 22.0992 56.3228 22.1814C54.966 22.2636 53.054 22.1197 51.8616 21.3796C50.8131 20.7217 51.2448 18.4603 51.1626 17.2473C51.1009 16.2194 50.9365 15.0681 51.1009 14.0607L51.0598 12.3954C51.841 10.4835 55.5005 10.4629 57.0219 11.388C59.2833 12.7449 55.2744 13.8757 54.4109 13.7934C53.5885 13.7112 52.3756 13.4439 51.7177 12.601C51.5738 14.0196 53.7736 14.8419 54.8632 14.9242C56.0967 15.0064 57.4741 14.9858 58.646 14.6363C58.7077 16.4455 58.6049 18.2547 58.646 20.0639H58.6254Z" fill="#F37715"/>
<path d="M38.8499 14.5337C40.9675 14.7804 43.1056 14.8421 45.2437 14.9448C45.7782 14.9654 46.4567 14.8626 46.9912 14.986C48.3275 15.2943 49.8694 16.7335 51.0413 17.453C50.8974 17.9053 50.8357 18.3987 50.8357 18.8716C49.3966 18.1931 48.1836 17.0213 46.7856 16.3634C45.4493 15.7466 43.7224 16.1784 42.3244 16.1167C38.6238 15.9317 34.9643 15.6644 31.2432 15.6438C30.2975 15.6438 29.3929 15.685 28.4678 15.8083C29.5779 14.4103 31.4488 14.7393 33.0112 14.6981C35.0054 14.657 36.8146 14.287 38.7883 14.5131C38.7883 14.5131 38.7883 14.5131 38.8088 14.5131L38.8499 14.5337Z" fill="#F37715"/>
<path d="M6.73742 53.1846C6.75797 53.6369 10.9108 56.145 11.4248 56.5768C13.1517 57.9748 14.9815 59.0644 17.0785 59.5989C28.5092 62.4566 40.865 61.2847 52.5218 61.1819C57.9904 61.1408 59.9024 60.7913 63.7058 60.2773C64.8365 60.1334 66.1112 59.4756 67.2419 59.5372C63.4385 61.9632 58.1755 62.066 53.8992 62.2304C48.1839 62.4566 42.4891 62.9089 36.8149 63.0733C33.9572 63.1556 31.0996 62.8266 28.283 62.621C25.0142 62.3743 21.807 62.7444 18.5382 61.9837C15.1254 61.1819 11.8154 59.1877 9.32781 56.5151C8.44378 55.5694 7.66255 54.3153 6.69629 53.4724C6.69629 53.4724 6.75796 53.2462 6.75796 53.2051L6.73742 53.1846Z" fill="#F37715"/>
<path d="M2.72716 27.1983C1.96649 32.5435 2.02815 37.8272 1.6581 44.591C-0.336105 40.3148 0.589044 30.2821 2.85051 26.0059L2.70658 27.2188L2.72716 27.1983Z" fill="#F37715"/>
<path d="M71.4763 43.069C71.5585 50.6757 71.7846 57.6657 70.4277 64.9229C74.5806 59.5982 73.4293 50.7374 72.3808 44.5081C72.1547 43.1923 71.9902 41.8971 71.4763 40.6636V43.0484V43.069Z" fill="#F37715"/>
<path opacity="0.6" d="M36.4016 38.5468C35.4148 39.8625 33.8318 41.24 33.1533 42.7819C35.9082 43.3164 38.5603 44.3032 40.2872 44.5294C39.3415 46.6881 37.779 49.2373 36.9773 51.4577C36.6894 52.2389 34.2224 56.3301 34.2224 56.3301C34.2224 56.3301 45.0363 47.8805 46.3109 46.7292C47.8734 45.3106 49.6414 44.1388 51.1833 42.6585C50.4843 41.7745 45.098 40.2943 43.9672 40.1298C45.7353 39.0196 51.0806 36.6554 51.2245 34.0444C51.3273 32.153 47.6472 31.5362 46.2698 31.1045C43.6794 30.2822 43.2682 30.8578 41.3357 32.8314C39.5882 34.6201 37.8818 36.4909 36.381 38.5262L36.4016 38.5468Z" fill="#F37715"/>
<path opacity="0.6" d="M61.7516 12.3135C62.9646 11.5117 64.4243 10.4015 65.8634 10.1548C65.74 10.751 65.6372 11.3266 65.555 11.9023C67.5286 10.9155 70.263 10.7715 72.3805 11.5117C69.9957 12.4574 67.0147 13.1152 64.8971 14.5544C64.6915 11.9434 62.5329 13.4442 60.7031 13.7731L61.7516 12.3135Z" fill="#F37715"/>
<path opacity="0.6" d="M56.1801 7.62623C56.7763 5.65259 56.509 3.47336 57.7014 1.72586C58.1743 2.30151 58.6677 3.22665 58.7705 4.06956C60.1479 2.81548 61.731 1.99313 63.499 1.41748C62.3272 3.4528 59.634 4.66577 58.8938 6.96835C58.5443 6.51606 58.236 5.89929 57.9687 5.447C57.2286 6.47494 56.6118 7.66735 56.0156 8.75696L56.1801 7.62623Z" fill="#F37715"/>
<path opacity="0.6" d="M50.4029 8.98344C49.3133 7.40041 48.3882 4.60442 47.7303 3.45312C47.6686 4.39883 47.1546 6.08465 46.9902 6.98923C44.9343 5.57068 43.3512 4.64553 40.7197 4.68665C42.9812 6.47526 45.9622 7.44153 47.7919 9.90858C48.1414 9.29182 48.4498 8.65449 48.4704 7.9555C48.4704 7.89382 48.4704 7.89382 48.4704 7.9555C48.4293 8.67505 50.5468 9.82634 51.0402 10.0525C50.9374 9.76467 50.7113 9.39461 50.4235 8.98344H50.4029Z" fill="#F37715"/>
<path opacity="0.6" d="M29.0228 9.08588C29.9274 7.87291 31.4488 6.74218 32.9084 6.35156C32.8879 6.84497 32.8468 7.33838 32.7851 7.83179C34.1831 7.35894 36.5885 6.90665 37.8837 7.68788C35.9306 8.38688 34.1009 9.14756 32.23 10.011C31.8805 9.66153 31.5927 9.27091 31.4693 8.79806C30.3797 8.98309 29.3107 9.33258 28.4678 9.74376L29.0228 9.06532V9.08588Z" fill="#F37715"/>
<path opacity="0.6" d="M23.2251 7.25627C22.5055 6.43392 21.4776 3.39122 21.7037 2.34272C22.7933 2.38384 23.7802 2.87725 24.582 3.59681C24.8081 2.30161 25.2604 0.698022 26.4117 -0.000976562C26.6173 1.86987 25.7949 4.33692 25.5688 6.26945C24.6436 6.12554 24.1913 5.38542 23.5951 4.78922C23.554 6.02274 24.0885 7.15348 23.7596 8.32533L23.2251 7.25627Z" fill="#F37715"/>
<path opacity="0.6" d="M15.4532 6.22754C15.3504 7.07045 15.371 7.33771 15.0215 8.1395C14.1786 7.70777 10.7658 7.29659 8.70996 8.1395C10.0874 8.85906 11.9994 8.69459 13.5207 9.31136C14.4459 9.68141 15.8027 10.8738 16.6251 11.3467C17.0979 9.61974 16.7484 9.20856 16.7484 9.20856C16.7484 9.20856 18.8865 9.86644 19.935 10.3599C19.935 10.3599 17.7147 7.11157 15.4532 6.22754Z" fill="#F37715"/>
<path d="M71.866 31.6187C71.7426 30.8786 70.6119 31.1869 70.7558 31.9271C71.0847 33.7773 71.2081 35.6482 71.3109 37.5396C71.352 38.2797 72.5238 38.2797 72.4827 37.5396C72.3594 35.566 72.236 33.5718 71.8865 31.6187H71.866Z" fill="#F37715"/>
<path d="M71.003 28.4932C70.859 28.2054 70.4684 28.1437 70.2012 28.2876C69.9133 28.4521 69.8517 28.8016 69.9956 29.0894C70.0778 29.2538 70.1395 29.4183 70.1395 29.6033C70.1806 30.3435 71.3319 30.3435 71.3114 29.6033C71.3114 29.2127 71.1674 28.8632 71.003 28.5137V28.4932Z" fill="#F37715"/>
<path d="M1.82323 47.4486C1.82323 46.7085 0.651367 46.7085 0.651367 47.4486C0.651367 48.8055 0.754162 50.1418 0.877515 51.4782C0.939191 52.2183 2.11106 52.2183 2.04938 51.4782C1.92603 50.1418 1.82323 48.785 1.82323 47.4486Z" fill="#F37715"/>
<path d="M2.78913 53.8221C2.78913 53.8221 2.74801 53.7604 2.74801 53.6576C2.74801 52.9175 1.57617 52.9175 1.57617 53.6576C1.57617 53.9249 1.61728 54.1922 1.76119 54.4183C1.94622 54.665 2.2546 54.8089 2.56298 54.6239C2.80969 54.48 2.97417 54.0894 2.76858 53.8221H2.78913Z" fill="#F37715"/>
<path d="M69.5434 66.8565C69.3173 67.206 69.1117 67.5761 68.8239 67.8844C68.3099 68.419 69.1323 69.2413 69.6462 68.7068C70.0163 68.3367 70.263 67.8639 70.5508 67.4321C70.962 66.7948 69.9546 66.2192 69.5434 66.8359V66.8565Z" fill="#F37715"/>
</svg>
