<svg width="16" height="16" viewBox="0 0 16 16" fill="none" xmlns="http://www.w3.org/2000/svg">
<rect x="0.342773" y="0.705078" width="15" height="15" rx="7.5" fill="url(#paint0_linear_1867_40554)"/>
<g filter="url(#filter0_d_1867_40554)">
<path d="M10.8428 9.91605C10.8428 10.3241 10.7787 10.6973 10.6507 11.0358C10.5226 11.3743 10.3284 11.6688 10.068 11.9191C9.81182 12.1649 9.48525 12.3573 9.08824 12.4964C8.69123 12.6355 8.17682 12.7051 7.54501 12.7051H5.36145C5.20777 12.7051 5.08183 12.661 4.98365 12.5729C4.88973 12.4802 4.84277 12.3249 4.84277 12.1069V4.28236C4.84277 4.07834 4.88973 3.93228 4.98365 3.84418C5.08183 3.75145 5.20136 3.70508 5.34224 3.70508H10.0295C10.0722 3.70508 10.1085 3.71667 10.1384 3.73985C10.1725 3.76304 10.2003 3.80477 10.2216 3.86505C10.2473 3.92069 10.2643 3.99488 10.2729 4.08761C10.2857 4.17571 10.2921 4.28931 10.2921 4.42842C10.2921 4.55825 10.2857 4.66953 10.2729 4.76227C10.2643 4.85036 10.2473 4.92455 10.2216 4.98483C10.2003 5.04047 10.1725 5.0822 10.1384 5.11002C10.1085 5.13321 10.0744 5.1448 10.0359 5.1448H6.52687V7.38437H7.90361C8.43722 7.38437 8.87693 7.44001 9.22271 7.55129C9.56849 7.66257 9.86092 7.82718 10.1 8.04511C10.339 8.26304 10.5226 8.52965 10.6507 8.84495C10.7787 9.16026 10.8428 9.51729 10.8428 9.91605ZM9.13306 10.0343C9.13306 9.83491 9.10318 9.65639 9.04341 9.49874C8.98365 9.33645 8.89614 9.19967 8.78087 9.08839C8.66561 8.97247 8.5162 8.88437 8.33263 8.82409C8.15334 8.76381 7.91214 8.73367 7.60905 8.73367H6.52687V11.328H7.62826C7.90147 11.328 8.12559 11.3001 8.30062 11.2445C8.47991 11.1888 8.62933 11.1054 8.74886 10.9941C8.86839 10.8828 8.9623 10.746 9.03061 10.5837C9.09891 10.4215 9.13306 10.2383 9.13306 10.0343Z" fill="white"/>
</g>
<defs>
<filter id="filter0_d_1867_40554" x="4.565" y="3.4273" width="7.11111" height="10.1111" filterUnits="userSpaceOnUse" color-interpolation-filters="sRGB">
<feFlood flood-opacity="0" result="BackgroundImageFix"/>
<feColorMatrix in="SourceAlpha" type="matrix" values="0 0 0 0 0 0 0 0 0 0 0 0 0 0 0 0 0 0 127 0" result="hardAlpha"/>
<feOffset dx="0.277778" dy="0.277778"/>
<feGaussianBlur stdDeviation="0.277778"/>
<feComposite in2="hardAlpha" operator="out"/>
<feColorMatrix type="matrix" values="0 0 0 0 0.162617 0 0 0 0 0.4 0 0 0 0 0.323365 0 0 0 0.4 0"/>
<feBlend mode="normal" in2="BackgroundImageFix" result="effect1_dropShadow_1867_40554"/>
<feBlend mode="normal" in="SourceGraphic" in2="effect1_dropShadow_1867_40554" result="shape"/>
</filter>
<linearGradient id="paint0_linear_1867_40554" x1="0.342773" y1="0.705078" x2="15.3428" y2="15.7051" gradientUnits="userSpaceOnUse">
<stop stop-color="#99E35F"/>
<stop offset="0.972755" stop-color="#30D0DA"/>
</linearGradient>
</defs>
</svg>
