<svg width="60" height="40" viewBox="0 0 60 40" fill="none" xmlns="http://www.w3.org/2000/svg">
<path d="M58.5737 36.6445C57.6459 37.7404 56.6567 37.4758 55.6319 37.6397C55.949 38.2867 56.3274 37.8463 56.6297 38.664C55.9551 38.7562 55.3604 39.0839 54.7521 38.9798C52.9015 38.6572 51.0485 38.4472 49.1955 38.3755C47.7688 38.3174 46.3409 38.1945 44.9204 37.9436C42.3719 37.498 39.8197 37.6073 37.2711 37.3888C34.9032 37.1822 32.5304 37.2129 30.1601 37.1822C29.9094 37.2198 29.6587 37.288 29.4105 37.4468H18.0023C17.2466 36.9756 16.4724 37.2078 15.7106 37.0559C15.0753 36.9347 14.4412 37.0354 13.8059 37.09V4.37815C14.3466 4.3662 14.8909 4.36619 15.4353 4.37473C17.8597 4.42594 20.2879 4.41228 22.7123 4.40375C22.7664 4.19719 22.8302 4.03331 22.9052 3.91722C19.8701 3.74139 16.8374 3.32485 13.8047 3.32997V2.4986C15.5103 2.41837 17.2183 2.46105 18.9263 2.55323C21.0669 2.6659 23.2075 2.86051 25.3456 2.81442C25.3124 2.67956 25.2915 2.53275 25.3063 2.33984H28.3058C28.194 2.52421 28.0699 2.60103 27.9458 2.642C28.8526 2.57883 29.7632 2.56689 30.6663 2.37228V3.39655C31.0055 3.64921 31.3581 3.69017 31.7157 3.69017C35.0359 3.67822 38.3525 3.73286 41.669 3.66457C44.7042 3.60653 47.7369 3.80797 50.7609 4.40034C52.8044 4.79981 54.8516 5.14805 56.8988 5.45022C57.1016 5.47924 57.2982 5.57996 57.4886 5.97943C57.2109 6.41987 56.9172 5.78652 56.6666 6.39937C57.1077 6.73568 57.5218 6.85347 57.9458 6.932C58.0637 6.95248 58.3685 6.94395 58.2517 7.48169C58.0944 8.20893 58.2997 8.09967 58.4029 8.17479C58.962 8.60327 59.4707 9.48927 59.9991 9.50976C58.2247 10.2575 56.3827 9.27929 54.4633 9.53024C55.5975 10.097 56.6494 10.6262 57.7012 11.152C57.1839 12.1677 56.6309 11.21 56.0448 11.7273C56.2205 11.8536 56.3201 11.9458 56.4257 11.9919C56.7342 12.1302 57.163 12.1763 57.1569 13.134C57.1544 13.7298 56.7342 14.0951 56.3225 14.2556C56.6187 14.4229 56.8067 14.5287 56.9971 14.6465C57.1003 14.7096 57.2392 14.7592 57.2453 15.0835C57.2539 15.5837 57.0758 15.512 56.9701 15.5035C56.5412 15.4779 56.1112 15.4027 55.6823 15.3481C56.3655 16.2392 57.0758 16.7975 57.8438 17.0416C56.8878 18.2349 55.8691 17.4496 54.9954 18.129C55.1158 19.2045 55.4365 19.6415 55.8482 19.7371C55.5484 19.8464 55.2645 19.8293 54.9831 19.8549C54.8627 19.8634 54.7054 19.8669 54.6931 20.309C54.6845 20.7495 54.8357 20.8041 54.9561 20.8758C55.3911 21.1284 55.8273 21.3708 56.2623 21.615C55.8273 22.3422 55.3063 21.5723 54.8688 22.5095C55.5398 22.8748 56.1689 23.148 56.7342 24.0083H51.5191C51.685 24.6502 51.9369 24.2525 51.9455 24.7356C51.9541 25.3023 51.7243 25.2767 51.5855 25.3997C51.47 25.5004 51.3139 25.5806 51.223 25.4457C50.7609 24.7441 50.3518 25.3826 49.929 25.7138C50.7302 25.8981 51.5289 25.9784 52.3301 26.091C52.6988 26.1457 52.6177 25.0702 52.829 24.7475C52.7713 24.6724 52.7147 24.5956 52.63 24.4863C52.8597 24.3105 53.0527 24.3856 53.2136 24.7049C53.4311 25.1368 53.9153 24.6929 53.9005 25.427C53.8821 26.3591 53.4053 25.4645 53.1239 26.2088C54.1758 26.3932 55.1502 26.8131 56.1026 27.6838C55.6098 29.0614 54.9991 28.6244 54.44 28.7849C55.3407 29.0068 55.3714 29.0409 55.6737 30.4476C53.355 30.6405 51.0817 29.7511 48.7899 30.0823C48.8833 30.4135 48.9988 30.3008 49.0984 30.3042C51.2758 30.3674 53.4274 31.3831 55.5987 31.716C55.8679 31.7587 56.3692 31.3678 56.3631 32.2742C56.3606 33.0015 55.8433 32.6447 55.5594 32.6566C54.8062 32.6942 54.0541 32.7864 53.2923 32.66C55.1183 33.4283 56.8091 35.3607 58.5798 36.6428L58.5737 36.6445Z" fill="#F37715"/>
<path d="M3.83196 10.3318C4.01144 11.1285 3.77555 11.281 3.50376 11.5597C3.35249 11.7179 3.12557 11.7443 2.92942 11.7914C2.13713 11.9816 1.34228 12.1718 0.535885 12.2038C0.864083 12.3376 1.19228 12.4129 1.51663 12.4317C2.2679 12.4732 3.02429 12.3997 3.75632 12.701C4.05632 12.8253 4.58964 12.7519 4.564 13.2811C4.53579 13.9214 3.99991 13.7764 3.65889 13.8423C3.3371 13.9026 3.00634 13.8517 2.77558 14.2924C2.93583 14.5373 3.3089 14.2548 3.3089 14.7237C3.31146 15.1493 2.99352 15.1927 2.78199 15.3113C2.58327 15.4281 2.36918 15.4864 2.12944 15.5844C2.34354 15.7595 2.54866 15.6861 2.7384 15.7011C2.96532 15.72 3.17044 15.7934 3.36915 15.946C3.57684 16.1042 3.87042 16.1211 3.93709 16.5072C4.01273 16.9517 3.55889 16.7426 3.51787 17.2153C3.65633 17.3773 3.82684 17.5769 4.07939 17.8726C3.62556 17.8726 3.77299 18.5675 3.4512 18.6937C3.41274 18.7069 3.5653 18.916 3.6653 18.9536C3.93324 19.0553 4.22939 19.0704 4.46015 19.2644C5.35244 20.0064 6.31524 20.2832 7.32162 20.3943C7.58059 20.4226 7.8511 20.4414 8.08186 20.658C8.02546 20.6712 7.97161 20.6863 7.91777 20.7051C8.04084 20.8482 8.17032 20.9047 8.29596 20.9236C8.55108 21.2757 8.87031 21.4283 9.20748 21.5112C9.31517 21.5394 9.42158 21.562 9.52926 21.5846C9.4908 21.8671 9.22927 21.8991 9.0844 22.0611C9.04081 22.1082 8.99979 22.1534 8.9421 22.2136C9.21004 22.3812 9.49978 22.5564 9.41901 23.0517C9.34594 23.4736 9.05363 23.5527 8.79723 23.5847C8.23314 23.6544 7.66521 23.677 7.09727 23.7429C6.90497 23.7655 6.63959 23.7994 6.65241 24.193C6.66523 24.6092 6.94599 24.5678 7.12932 24.5357C7.96776 24.3738 8.52929 24.9105 8.89595 25.9727C8.98441 26.227 9.10748 26.3249 9.28696 26.3287C9.45106 26.3287 9.61772 26.3418 9.78182 26.3513C10.0472 26.3644 10.3754 26.4021 10.4062 26.8277C10.4446 27.3381 10.069 27.1987 9.86387 27.259C9.25491 27.4342 8.63954 27.5603 7.88572 27.7411C8.37801 27.8108 8.678 28.033 8.91133 28.4361C9.08825 28.7374 9.34081 28.8297 9.58952 28.9182C9.75618 28.9747 10.0152 28.9144 10.0062 29.2798C9.99977 29.5585 9.76003 29.5397 9.61131 29.6131C9.54209 29.6452 9.47927 29.6866 9.4126 29.7243C9.44081 29.9842 9.72798 29.8636 9.68055 30.1593C9.63311 30.4512 9.44978 30.3589 9.31517 30.391C8.978 30.4644 8.55237 30.2158 8.3716 30.9936C8.80108 31.0124 9.12287 31.3552 9.45619 31.666C9.58824 31.7903 9.69849 31.9353 9.6767 32.1763C9.64465 32.4965 9.45234 32.4871 9.29209 32.5097C9.12799 32.5379 8.96133 32.5605 8.7998 32.5417C8.3357 32.4814 8.23827 32.9824 8.19725 33.4551C8.15622 33.9787 8.39596 34.3082 8.72672 34.4099C9.02928 34.5079 9.34465 34.521 9.65106 34.5813C9.85618 34.6284 10.0613 34.7056 10.0805 35.086C10.0959 35.425 10.0677 35.7395 9.80618 35.8789C9.63952 35.9712 9.45234 35.9994 9.44081 36.3742C9.42799 36.7773 9.68311 36.7999 9.81003 37.0051C9.86387 37.0936 9.97669 37.1445 10.0587 37.1351C11.3613 36.9731 12.651 37.4741 13.9445 37.3196C16.9791 36.9637 20.0098 36.8846 23.0572 37.0503C25.8135 37.2085 28.5737 37.7038 31.3441 37.2594C31.7416 37.1953 36.4021 37.2217 36.8098 37.2876L36.8098 2.23172C36.5444 2.2223 32.0326 2.25432 31.7698 2.35602C30.8198 2.72703 29.8493 2.77223 28.8929 2.97186C26.3725 3.50484 23.852 3.04531 21.3482 2.56318C19.6983 2.24867 18.065 1.75148 16.4112 1.46898C14.3958 1.12057 12.392 0.606425 10.3639 0.412444C9.80618 0.361595 9.23184 0.301329 8.6921 -3.79944e-07L5.94089 -2.59684e-07C6.16524 0.209047 6.41395 0.288146 6.67292 0.310746C7.7511 0.403028 8.80877 0.742023 9.88054 0.917171C11.7164 1.21285 13.5394 1.67803 15.3663 2.08482C17.6598 2.58955 19.9534 3.10934 22.2456 3.62348C21.3405 3.61972 20.4354 3.59147 19.5354 3.43327C18.5226 3.26189 17.5201 2.88146 16.5035 2.76093C14.2074 2.4822 11.9331 1.91721 9.63054 1.65354C7.36521 1.39365 5.10373 1.22792 2.83327 1.27877C2.70378 1.28253 2.53968 1.19025 2.44481 1.43131C2.7666 1.88519 2.77942 2.7421 3.52043 2.79295C3.04736 3.17338 2.68455 2.96433 2.36277 3.14136C2.80763 3.66492 3.34736 3.48977 3.82683 3.73837C3.21146 3.88715 2.6025 3.96625 1.99098 3.99826C1.23074 4.03593 1.22818 4.02086 0.826904 5.02278C1.62176 4.89849 2.30892 5.40698 3.02813 5.68948C3.34095 5.81377 4.08452 7.05676 4.00247 7.311C3.77171 8.01159 3.28069 7.99276 2.85763 8.01913C1.90765 8.07939 0.952542 8.06056 3.52997e-07 8.07563L3.60077e-07 8.23759C0.816648 8.33552 1.61791 8.48242 2.41276 8.85343C3.02429 9.13216 3.56146 9.14535 3.8294 10.3262L3.83196 10.3318Z" fill="#F37715"/>
<path d="M40.3866 13.0995C40.3639 13.1307 40.345 13.1627 40.3301 13.1945C40.3153 13.2264 40.2964 13.2584 40.2738 13.2897C40.2425 13.2946 40.2237 13.2945 40.2184 13.2883C40.213 13.2818 40.1948 13.2812 40.1631 13.287C40.1527 13.2711 40.1529 13.2481 40.1635 13.2229L40.2593 13.1425C40.2256 13.1731 40.1856 13.1953 40.1479 13.2042L40.0538 13.0921L40.1178 13.0384C40.15 12.9476 40.1776 12.8927 40.1984 12.8752C40.1588 12.8286 40.1249 12.7773 40.0968 12.7218C40.0656 12.6653 40.0078 12.6303 39.9315 12.6218C39.937 12.5586 39.9266 12.5022 39.901 12.4562C39.7988 12.4191 39.7232 12.3513 39.681 12.2587C39.6457 12.1709 39.5749 12.109 39.4768 12.0799C39.4204 12.0078 39.3836 11.9203 39.3679 11.8208C39.3061 11.7894 39.2533 11.7482 39.2107 11.6981C39.1684 11.6477 39.1156 11.6065 39.0535 11.5755C39.05 11.549 39.0371 11.528 39.0163 11.5146C38.9954 11.5013 38.9674 11.4961 38.9351 11.4996C38.903 11.5026 38.8753 11.4972 38.8545 11.4838C38.8338 11.4705 38.8208 11.4497 38.8169 11.4235C38.7537 11.4338 38.7164 11.4547 38.7055 11.4853L38.5626 11.5096L38.6253 11.5843C38.5553 11.5757 38.4811 11.574 38.4036 11.5792C38.3804 11.6196 38.3471 11.6586 38.3076 11.6917C38.2681 11.7249 38.2239 11.7509 38.1801 11.7667C38.1928 11.7569 38.2064 11.7487 38.2201 11.7427C38.2338 11.7367 38.2473 11.733 38.2599 11.7319C38.2544 11.7443 38.2516 11.7565 38.2514 11.7675C38.2512 11.7785 38.2538 11.7883 38.259 11.7961C38.2643 11.8039 38.2669 11.8136 38.2668 11.8246C38.2668 11.8356 38.264 11.8478 38.2586 11.8602C38.2361 11.8915 38.2171 11.9234 38.2021 11.9552C38.1874 11.9871 38.1684 12.0191 38.1459 12.0504C38.0442 12.0252 37.9635 11.9733 37.9098 11.8983C37.8719 11.9277 37.8313 11.9521 37.7903 11.9701C37.7493 11.9881 37.7088 11.9993 37.6711 12.0031C37.6493 12.0635 37.6253 12.0995 37.5988 12.1114C37.5725 12.1224 37.5431 12.1526 37.5108 12.2011C37.4807 12.2647 37.443 12.3285 37.3983 12.391C37.3717 12.3972 37.3489 12.3935 37.3349 12.3807C37.3242 12.368 37.2983 12.3793 37.2555 12.4153L36.7764 12.8173C36.6483 12.8981 36.5249 12.991 36.4097 13.0933C36.3313 13.154 36.2606 13.2242 36.2019 13.2994C36.1802 13.36 36.148 13.3974 36.1059 13.412C36.0621 13.4268 36.0176 13.453 35.9784 13.4869C35.9064 13.526 35.8378 13.5781 35.779 13.6384C35.7198 13.6983 35.6514 13.7502 35.5796 13.7898C35.4162 13.9068 35.2564 14.0303 35.1011 14.1596L34.638 14.5482C34.5826 14.5735 34.5281 14.6082 34.4784 14.6499C34.4287 14.6916 34.385 14.7392 34.3505 14.7894C34.3042 14.8491 34.242 14.9012 34.1752 14.9365C34.108 14.9715 34.0455 15.0239 33.9995 15.084C33.9301 15.1424 33.8633 15.2037 33.7997 15.2674C33.7245 15.3404 33.6406 15.4054 33.5525 15.459C33.4995 15.4821 33.4676 15.5088 33.4567 15.5394C33.4553 15.5454 33.4524 15.5518 33.4482 15.558C33.444 15.5642 33.4386 15.5702 33.4324 15.5753C33.4262 15.5805 33.4195 15.5848 33.4126 15.5879C33.4057 15.5909 33.3989 15.5927 33.3928 15.593L33.1534 15.7939C33.0794 15.8561 32.9961 15.9037 32.9144 15.9306L32.8982 15.9759C32.8494 16.0184 32.806 16.0658 32.7701 16.1155C32.7527 16.1404 32.7308 16.1641 32.706 16.1849C32.6813 16.2056 32.6542 16.2231 32.6266 16.2359C32.4814 16.315 32.3464 16.4282 32.2433 16.5575C32.2287 16.58 32.2094 16.6015 32.1872 16.6202C32.165 16.6388 32.1405 16.6541 32.1157 16.6646C32.0661 16.6855 32.017 16.7158 31.9723 16.7529C31.9512 16.7706 31.9299 16.7671 31.9092 16.7424L31.9405 16.7796C31.88 16.8296 31.8257 16.8861 31.7805 16.9459C31.7631 16.9708 31.7412 16.9945 31.7164 17.0152C31.6917 17.036 31.6646 17.0534 31.637 17.0663C31.5262 17.1174 31.4204 17.2003 31.3416 17.298C31.2628 17.3957 31.1571 17.4787 31.0463 17.5299L30.9505 17.6103L30.9031 17.6183C30.8928 17.6476 30.8736 17.6777 30.8479 17.705C30.8222 17.7322 30.7912 17.7552 30.7589 17.7711C30.7284 17.786 30.6986 17.8055 30.6712 17.8285C30.6438 17.8515 30.6194 17.8774 30.5994 17.9049C30.5782 17.9339 30.5501 17.9605 30.5189 17.981C30.4876 18.0016 30.4546 18.0153 30.424 18.0203L30.3918 18.1112C30.3076 18.1584 30.2248 18.2118 30.1447 18.2705C30.0606 18.3287 29.9892 18.4057 29.9445 18.4864C29.9375 18.4751 29.9269 18.4667 29.9133 18.4616C29.8998 18.4566 29.8835 18.455 29.8657 18.4571C29.7907 18.5835 29.7266 18.6584 29.6735 18.6818C29.5884 18.7104 29.5037 18.7816 29.4182 18.896C29.267 19.0414 29.0994 19.1713 28.9235 19.2794C28.8704 19.3025 28.8386 19.3293 28.8277 19.3598C28.8173 19.3896 28.7851 19.4166 28.7319 19.4402C28.6788 19.4856 28.6281 19.5334 28.5802 19.5833C28.5323 19.6351 28.4737 19.6787 28.4126 19.7081C28.3668 19.7481 28.3302 19.7955 28.3084 19.8431C28.2986 19.8664 28.282 19.89 28.2607 19.9108C28.2394 19.9316 28.2143 19.9486 28.1888 19.9597C28.1168 19.9989 28.0482 20.0509 27.9892 20.111C27.9413 20.1629 27.8826 20.2065 27.8215 20.2358L27.3428 20.6375C27.2928 20.6823 27.2512 20.7337 27.2225 20.7863C27.1856 20.8491 27.1504 20.9048 27.1182 20.9536L26.9592 21.0232C26.8507 21.1119 26.7488 21.2081 26.6555 21.3097L26.6243 21.2725C26.4682 21.3607 26.3231 21.4823 26.2092 21.6208C26.1683 21.676 26.1109 21.7242 26.0494 21.7548C26.0189 21.7697 25.9891 21.7893 25.9617 21.8123C25.9343 21.8352 25.9099 21.8612 25.8899 21.8887C25.8123 21.9321 25.7385 21.9885 25.6744 22.0533C25.5994 22.1265 25.5155 22.1915 25.4273 22.2448C25.2896 22.3815 25.1423 22.5104 24.9878 22.6294C24.8342 22.7477 24.672 22.8785 24.5013 23.0218C24.4612 23.0546 24.4278 23.0938 24.4054 23.1344C24.3936 23.1545 24.3769 23.1739 24.3572 23.1904C24.3375 23.2069 24.3155 23.22 24.2936 23.2281C24.1657 23.3355 24.0965 23.4253 24.0851 23.4987L24.038 23.4426L24.0056 23.5333C23.9609 23.5362 23.9097 23.5564 23.8626 23.5898C23.8223 23.6214 23.7786 23.6471 23.7348 23.665C23.7044 23.7224 23.6606 23.7788 23.6075 23.829C23.5544 23.8791 23.4938 23.9214 23.4313 23.9517C23.393 23.9829 23.3579 24.0178 23.3274 24.0547C23.2942 24.0921 23.2513 24.1224 23.2079 24.1392C23.0813 24.224 22.9623 24.3238 22.8568 24.4338L22.8254 24.3963C22.7755 24.4762 22.7098 24.5531 22.6333 24.6213C22.4339 24.7458 22.2479 24.9019 22.0906 25.0767C22.1121 25.0587 22.1327 25.0621 22.1537 25.0872C22.1322 25.0952 22.1105 25.1068 22.0899 25.1213C22.0694 25.1358 22.0504 25.153 22.0342 25.1716C22.001 25.209 21.9581 25.2393 21.9146 25.2561C21.8616 25.2792 21.8088 25.3021 21.7556 25.3257C21.7307 25.3361 21.706 25.3513 21.6837 25.37C21.6614 25.3887 21.6421 25.4104 21.6276 25.4331C21.6048 25.4416 21.5819 25.4565 21.5629 25.4753C21.544 25.4941 21.5301 25.5156 21.5237 25.5362C21.5173 25.5567 21.5035 25.5782 21.4846 25.5971C21.4657 25.6159 21.4428 25.6309 21.42 25.6394C21.3106 25.696 21.2032 25.7646 21.1014 25.8429C21.057 25.8805 21.0186 25.9237 20.9891 25.9689C20.9745 25.9915 20.9553 26.013 20.933 26.0317C20.9108 26.0504 20.8862 26.0656 20.8614 26.076C20.8386 26.0844 20.8157 26.0993 20.7967 26.1182C20.7778 26.137 20.7639 26.1585 20.7575 26.1791C20.7512 26.1996 20.7373 26.2211 20.7184 26.24C20.6995 26.2588 20.6766 26.2738 20.6538 26.2823C20.6391 26.3048 20.6198 26.3263 20.5976 26.345C20.5754 26.3636 20.5509 26.3789 20.5261 26.3894C20.4731 26.4126 20.4203 26.4355 20.3671 26.4591C20.3245 26.4948 20.3033 26.5229 20.3028 26.5447C20.3028 26.5658 20.2816 26.5946 20.2387 26.6306L20.27 26.6679C20.2489 26.6856 20.2274 26.7246 20.2056 26.7857C20.226 26.8958 20.2464 26.9849 20.2665 27.0529C20.2846 27.0755 20.3084 27.0931 20.3373 27.105C20.3665 27.1165 20.3904 27.134 20.4081 27.157C20.4785 27.2472 20.5627 27.3257 20.6597 27.3915C20.6796 27.4582 20.711 27.5175 20.7531 27.5681L20.8941 27.7361C20.9332 27.7833 20.9779 27.8256 21.028 27.8628C21.078 27.8999 21.1226 27.9423 21.1615 27.9895C21.1757 28.0513 21.2204 28.093 21.2871 28.1069C21.3618 28.1245 21.421 28.162 21.4604 28.2164C21.506 28.2881 21.5824 28.3342 21.6811 28.3496C21.6702 28.3795 21.6673 28.3978 21.6727 28.4042C21.6778 28.4103 21.6749 28.4286 21.664 28.4592C21.6819 28.4571 21.6982 28.4586 21.7118 28.4636C21.7254 28.4686 21.7361 28.477 21.7432 28.4882C21.7325 28.5183 21.722 28.5381 21.7109 28.5474C21.7006 28.5561 21.6897 28.5756 21.6788 28.6061C21.7003 28.5881 21.7425 28.5737 21.8061 28.5631C21.7561 28.6178 21.7127 28.6756 21.6775 28.7345C21.7185 28.7415 21.7687 28.733 21.8204 28.7101C21.8471 28.6978 21.8727 28.6786 21.8931 28.6558C21.9135 28.6329 21.9274 28.6077 21.9324 28.5844C21.9433 28.5539 22.0124 28.5063 22.1397 28.4423C22.157 28.4553 22.1652 28.4764 22.163 28.5024C22.1609 28.5282 22.1691 28.5493 22.1863 28.5625C22.1982 28.5621 22.2112 28.5593 22.2246 28.5542C22.238 28.549 22.2514 28.5416 22.2641 28.5325C22.2767 28.5233 22.2884 28.5126 22.2983 28.501C22.3082 28.4893 22.3162 28.477 22.3217 28.4647C22.3272 28.4524 22.3351 28.44 22.345 28.4283C22.3549 28.4166 22.3666 28.4058 22.3793 28.3966C22.392 28.3874 22.4055 28.3801 22.4189 28.375C22.4323 28.3698 22.4453 28.3671 22.4572 28.3669C22.4757 28.3607 22.4945 28.3512 22.5124 28.3389C22.5303 28.3267 22.5468 28.312 22.5608 28.2958C22.5851 28.2631 22.6151 28.2324 22.6488 28.2061C22.676 28.2031 22.7061 28.1917 22.7348 28.1733C22.7634 28.155 22.7891 28.1308 22.808 28.1043C22.8511 28.0468 22.8883 27.9942 22.9206 27.9463C22.9478 27.9432 22.9779 27.9317 23.0065 27.9134C23.0351 27.8951 23.0608 27.871 23.0798 27.8445C23.0987 27.8178 23.1244 27.7934 23.1531 27.775C23.1819 27.7566 23.2121 27.7452 23.2393 27.7424L23.3357 27.598L23.4306 27.5818C23.448 27.5465 23.4761 27.5117 23.5106 27.4826C23.5452 27.4536 23.5844 27.432 23.6222 27.4211C23.7071 27.3923 23.7923 27.3208 23.8778 27.2066C23.8921 27.1739 23.9176 27.1411 23.9497 27.1141C23.9818 27.0872 24.0185 27.0678 24.0532 27.0594C24.0806 27.0555 24.1105 27.0437 24.139 27.0255C24.1674 27.0073 24.1932 26.9837 24.2129 26.9575C24.2852 26.9176 24.3523 26.8612 24.4042 26.797C24.4461 26.7429 24.4947 26.6913 24.5482 26.6441C24.5737 26.6331 24.5988 26.6161 24.6202 26.5953C24.6415 26.5745 24.6582 26.551 24.668 26.5277C24.6735 26.5154 24.6814 26.503 24.6913 26.4913C24.7012 26.4796 24.7129 26.4689 24.7256 26.4597C24.7383 26.4505 24.7518 26.4431 24.7652 26.438C24.7786 26.4329 24.7916 26.4301 24.8035 26.4299C24.831 26.4269 24.8619 26.4139 24.89 26.3932C24.9181 26.3726 24.9414 26.3459 24.9552 26.3185C24.9839 26.266 25.0254 26.2147 25.0753 26.1701L25.1067 26.2075C25.1343 26.1946 25.1615 26.1771 25.1863 26.1563C25.2111 26.1355 25.233 26.1118 25.2506 26.0868C25.2863 26.0372 25.3296 25.9899 25.3783 25.9475L25.8252 25.5725C25.8375 25.5721 25.8511 25.5687 25.8649 25.5626C25.8787 25.5566 25.8923 25.548 25.9047 25.5376C25.9171 25.5272 25.9279 25.5153 25.9363 25.5028C25.9446 25.4902 25.9503 25.4774 25.9529 25.4654C26.0279 25.4427 26.1051 25.3951 26.1681 25.3328C26.2261 25.2733 26.2876 25.2164 26.3519 25.1627L26.7352 24.8411C26.8488 24.7206 26.9719 24.6065 27.1023 24.5009C27.1834 24.4745 27.266 24.4223 27.3334 24.3549C27.397 24.2912 27.4638 24.2299 27.5332 24.1715C27.619 24.131 27.7032 24.0766 27.7803 24.0119C27.8574 23.9472 27.9256 23.8737 27.9804 23.7962C28.0026 23.7775 28.0271 23.7624 28.0519 23.7521C28.0767 23.7414 28.1012 23.7262 28.1236 23.7077C28.156 23.6592 28.2248 23.6119 28.3309 23.5656C28.3528 23.5576 28.3748 23.5446 28.3946 23.528C28.4143 23.5114 28.431 23.492 28.4426 23.4718C28.4651 23.4313 28.4986 23.3921 28.5387 23.3594C28.5642 23.3483 28.5893 23.3313 28.6106 23.3106C28.632 23.2899 28.6486 23.2663 28.6585 23.243C28.664 23.2307 28.6719 23.2183 28.6818 23.2066C28.6917 23.1949 28.7034 23.1841 28.7161 23.175C28.7288 23.1658 28.7423 23.1584 28.7557 23.1533C28.7691 23.1482 28.7821 23.1454 28.794 23.1452C28.8182 23.1436 28.845 23.1353 28.8716 23.1214C28.8982 23.1075 28.9236 23.0884 28.9451 23.0661C28.9817 23.0248 29.0221 22.9856 29.0652 22.9494C29.1609 22.8685 29.2593 22.7912 29.3602 22.7178C29.4653 22.6359 29.5528 22.5346 29.6085 22.43C29.616 22.4411 29.6301 22.4463 29.6479 22.4446C29.6568 22.4435 29.665 22.4442 29.6717 22.4467C29.6785 22.4492 29.6838 22.4535 29.6872 22.4592C29.8223 22.3674 29.9422 22.2502 30.0311 22.123C30.1222 21.9935 30.2469 21.9151 30.4055 21.8886C30.3957 21.8794 30.3929 21.8645 30.3978 21.8471C30.4004 21.8385 30.4011 21.8304 30.3998 21.8233C30.3985 21.8162 30.3953 21.8102 30.3903 21.8058L30.4855 21.7893L30.645 21.6555L30.5981 21.5997C30.6621 21.5881 30.7044 21.574 30.7252 21.5565C30.7452 21.529 30.7697 21.503 30.7971 21.48C30.8246 21.4569 30.8545 21.4374 30.885 21.4224C30.9569 21.3831 31.0254 21.331 31.0844 21.271C31.1425 21.2116 31.204 21.1547 31.2682 21.1009C31.3244 21.0319 31.3929 20.969 31.468 20.9174C31.5551 20.8531 31.6305 20.7733 31.6839 20.6886C31.7005 20.6733 31.7189 20.6599 31.738 20.6493C31.7572 20.6387 31.7767 20.631 31.7953 20.6268C31.8015 20.6265 31.8082 20.6248 31.8151 20.6217C31.8219 20.6187 31.8287 20.6144 31.8348 20.6093C31.8409 20.6041 31.8463 20.5982 31.8505 20.592C31.8547 20.5858 31.8576 20.5794 31.859 20.5734C31.9088 20.4935 31.9745 20.4166 32.051 20.3485L32.0981 20.4045C32.1093 20.3737 32.1201 20.3543 32.1305 20.3456C32.1415 20.3363 32.152 20.3165 32.1626 20.2869L32.2095 20.3428C32.282 20.303 32.3494 20.2465 32.4011 20.182C32.3739 20.16 32.3629 20.124 32.3703 20.0806C32.3989 20.0749 32.4258 20.0739 32.4498 20.0777C32.4741 20.0806 32.5007 20.0796 32.5288 20.0749C32.5786 20.0202 32.622 19.9624 32.6573 19.9036C32.7489 19.8008 32.8512 19.7043 32.9609 19.617C32.9846 19.5956 33.0054 19.5717 33.0219 19.5469C33.0384 19.5221 33.0504 19.4968 33.0571 19.4725L33.1042 19.5286L33.1368 19.4374C33.1964 19.412 33.2555 19.3947 33.3114 19.3864C33.3647 19.3628 33.3913 19.3404 33.3913 19.3194C33.3919 19.2975 33.4131 19.2694 33.4556 19.2337C33.6139 19.0969 33.7793 18.9687 33.95 18.8506C33.9709 18.8331 33.9896 18.8133 34.0048 18.7924C34.0199 18.7715 34.0313 18.7499 34.0383 18.7289C34.0543 18.6834 34.0945 18.6548 34.1578 18.6445C34.1919 18.635 34.227 18.6196 34.2612 18.5991C34.2954 18.5785 34.328 18.5534 34.3569 18.525C34.3996 18.4778 34.4531 18.4386 34.5083 18.4138C34.5636 18.3888 34.6171 18.3496 34.6602 18.3026C34.7023 18.257 34.7477 18.2135 34.7957 18.1727L35.2108 17.8244C35.233 17.8056 35.2523 17.784 35.267 17.7614C35.2808 17.7451 35.2972 17.7303 35.3151 17.7181C35.333 17.7058 35.3518 17.6964 35.3703 17.6906C35.4802 17.6191 35.5852 17.5365 35.6816 17.4455C35.7768 17.3545 35.8755 17.2663 35.977 17.1815C36.0256 17.1412 36.0765 17.1039 36.1288 17.0703C36.1825 17.0361 36.2303 16.9903 36.2644 16.9403C36.305 16.884 36.3571 16.8316 36.4157 16.788C36.4744 16.7444 36.5376 16.7111 36.5995 16.6912C36.7264 16.5633 36.8665 16.4458 37.0145 16.3429C37.1032 16.2893 37.1857 16.2201 37.2539 16.1421C37.3184 16.0666 37.3982 15.9783 37.494 15.8768L37.6212 15.8339C37.6551 15.7837 37.7031 15.7379 37.757 15.7041C37.8107 15.6699 37.8584 15.6241 37.8926 15.5741C37.9209 15.5607 37.9484 15.5415 37.9723 15.5187C37.9962 15.4958 38.0156 15.4701 38.0286 15.4441C38.0423 15.4167 38.0655 15.39 38.0936 15.3694C38.1217 15.3488 38.1525 15.3358 38.18 15.3329C38.2293 15.3122 38.2775 15.2775 38.3156 15.2353C38.3534 15.1928 38.4018 15.1578 38.4514 15.1373C38.518 15.1036 38.5817 15.0557 38.6346 14.9994C38.6982 14.9357 38.7649 14.8744 38.8343 14.816C38.8847 14.7749 38.9287 14.7271 38.9623 14.6767C38.996 14.6263 39.0183 14.5748 39.0272 14.5268L39.0903 14.5373C39.1444 14.49 39.2044 14.4505 39.2657 14.4219C39.3248 14.3584 39.3785 14.292 39.4258 14.2241C39.4398 14.2369 39.4626 14.2406 39.4892 14.2344C39.6386 14.0662 39.7396 13.9498 39.7934 13.8839L39.8246 13.9212C39.8621 13.8889 39.9025 13.8604 39.9442 13.8367C39.9813 13.8163 40.011 13.7752 40.0325 13.715C40.0543 13.654 40.1023 13.6247 40.1757 13.6266C40.1976 13.5655 40.2195 13.5264 40.2403 13.5089C40.2669 13.5149 40.2962 13.517 40.3274 13.5152C40.3589 13.5129 40.3882 13.5152 40.4144 13.5218C40.3973 13.5086 40.3891 13.4875 40.3911 13.4617C40.3937 13.4531 40.3943 13.445 40.393 13.4379C40.3917 13.4308 40.3885 13.4249 40.3836 13.4204L40.4794 13.34C40.45 13.313 40.4308 13.2771 40.423 13.2344C40.4153 13.1917 40.419 13.1431 40.434 13.0914C40.4664 13.0429 40.4642 13.0185 40.427 13.0177C40.3944 13.0164 40.3599 13.0188 40.3239 13.0248L40.3866 13.0995ZM24.5954 23.1339C24.6272 23.1283 24.6484 23.1212 24.6588 23.1125C24.6698 23.1032 24.691 23.0962 24.7226 23.091C24.6851 23.1231 24.6447 23.1516 24.6031 23.1754C24.5613 23.1989 24.5209 23.2274 24.4834 23.2597C24.4868 23.2476 24.4928 23.235 24.501 23.2226C24.5093 23.2102 24.5196 23.1983 24.5314 23.1876C24.5553 23.1659 24.5726 23.1399 24.5798 23.1153L24.5954 23.1339ZM25.6477 22.3783C25.68 22.3297 25.765 22.2797 25.9026 22.2282L25.8707 22.2549L25.8545 22.3002C25.862 22.3114 25.8761 22.3167 25.894 22.315C25.903 22.3139 25.9111 22.3146 25.9179 22.3171C25.9247 22.3196 25.93 22.3239 25.9334 22.3296L25.8382 22.346C25.8431 22.3505 25.8463 22.3565 25.8476 22.3636C25.8489 22.3707 25.8482 22.3787 25.8457 22.3873C25.8432 22.3959 25.8426 22.404 25.8439 22.4111C25.8452 22.4182 25.8483 22.4241 25.8532 22.4286L25.7905 22.3539L25.6477 22.3783L25.6947 22.4343C25.649 22.4512 25.6032 22.4811 25.5653 22.5187C25.5273 22.5564 25.4997 22.5995 25.4871 22.6406L25.4073 22.6755C25.3385 22.7604 25.2571 22.8396 25.1678 22.9085C25.127 22.8752 25.0732 22.8553 25.0097 22.8501L25.457 22.4748C25.5155 22.3996 25.5863 22.3293 25.6646 22.2685C25.6539 22.2986 25.6506 22.3171 25.6561 22.3236C25.6612 22.3297 25.6586 22.3477 25.6477 22.3783ZM37.1575 12.7524C37.1156 12.7024 37.1242 12.6579 37.1823 12.6202C37.2075 12.6022 37.2344 12.5884 37.2607 12.5802C37.287 12.572 37.3119 12.5695 37.3331 12.5731C37.266 12.6258 37.206 12.6871 37.1575 12.7524ZM21.9604 25.4405C21.9813 25.4654 21.976 25.4802 21.9442 25.4859C21.9231 25.4608 21.9184 25.444 21.9288 25.4353C21.9399 25.426 21.9499 25.428 21.9604 25.4405ZM22.0406 25.3415C22.0718 25.3788 22.0772 25.4063 22.0558 25.4243C21.9604 25.4405 21.9558 25.4126 22.0406 25.3415ZM35.178 14.4134C35.2259 14.347 35.2827 14.2832 35.346 14.2245C35.3829 14.1875 35.4274 14.1578 35.4722 14.1405C35.5171 14.1232 35.5594 14.1192 35.5922 14.1294C35.5586 14.1558 35.5286 14.1864 35.5042 14.2191C35.4887 14.2428 35.4541 14.2663 35.4009 14.2899L35.3538 14.2338C35.3213 14.325 35.321 14.3676 35.3527 14.3624C35.3492 14.3567 35.3439 14.3524 35.3371 14.3498C35.3303 14.3473 35.3222 14.3465 35.3132 14.3476C35.2954 14.3494 35.2813 14.3441 35.2738 14.333C35.2629 14.3629 35.2311 14.3896 35.178 14.4134ZM36.2947 13.5399C36.271 13.5629 36.2433 13.5817 36.2151 13.5941C36.1868 13.6066 36.1592 13.612 36.1358 13.6098C36.1601 13.5633 36.1999 13.5185 36.2476 13.4838L36.2947 13.5399ZM21.7836 25.7483C21.7412 25.7407 21.7093 25.7675 21.6878 25.8286L21.6563 25.7912L21.7521 25.7108L21.7836 25.7483ZM23.9386 23.9079C23.9526 23.9208 23.9755 23.9246 24.0022 23.9183C23.9072 24.005 23.8208 24.0988 23.746 24.1968C23.7569 24.1662 23.7595 24.1482 23.7544 24.1421C23.749 24.1357 23.7522 24.1171 23.7631 24.0872C23.7721 24.07 23.7847 24.053 23.7999 24.0375C23.8151 24.0219 23.8325 24.0082 23.851 23.9973C23.8693 23.9865 23.8867 23.9729 23.9019 23.9574C23.917 23.9419 23.9296 23.925 23.9386 23.9079ZM25.0707 23.1173C25.0603 23.2311 25.0156 23.3562 24.9408 23.4809L25.0035 23.5556C24.9517 23.6061 24.8902 23.6466 24.8284 23.6708C24.8401 23.6601 24.8504 23.6482 24.8587 23.6358C24.8669 23.6235 24.873 23.6109 24.8764 23.5988L24.8293 23.5427L24.9251 23.4623C24.8826 23.498 24.8033 23.5114 24.6872 23.5026L24.7356 23.3664C24.6934 23.4018 24.6829 23.3893 24.7044 23.3291C24.7048 23.2861 24.7187 23.2585 24.7448 23.2473C24.7632 23.2365 24.7806 23.2228 24.7958 23.2073C24.811 23.1917 24.8237 23.1748 24.8328 23.1576L24.8798 23.2137C24.8773 23.2254 24.8703 23.238 24.8601 23.2495C24.8499 23.2609 24.837 23.2705 24.8236 23.2767C24.7976 23.2879 24.784 23.3152 24.7836 23.3582C24.8387 23.333 24.892 23.2939 24.935 23.2471C24.9772 23.2015 25.0226 23.1581 25.0707 23.1173ZM37.5081 12.5218C37.5395 12.5592 37.5444 12.5868 37.523 12.6048C37.4387 12.6495 37.3572 12.707 37.2839 12.7737C37.2895 12.7501 37.3022 12.7251 37.3205 12.7013C37.3389 12.6775 37.3622 12.6557 37.3879 12.6384C37.4363 12.6084 37.4791 12.5669 37.5081 12.5218ZM37.938 12.2565C37.9057 12.2722 37.8747 12.2952 37.849 12.3224C37.8234 12.3496 37.8043 12.3798 37.7942 12.409C37.7676 12.4152 37.7448 12.4115 37.7308 12.3987C37.7726 12.3293 37.8272 12.2617 37.891 12.2005L37.938 12.2565ZM38.2251 12.0795C38.2362 11.9635 38.29 11.8977 38.3853 11.8813C38.3643 11.9159 38.337 11.9496 38.3051 11.9803C38.2732 12.011 38.246 12.0448 38.2251 12.0795ZM25.3398 23.1782C25.3289 23.208 25.3257 23.2266 25.3311 23.2331C25.3362 23.2392 25.3336 23.2572 25.3227 23.2877L25.2275 23.3042L25.1648 23.2295C25.1931 23.2244 25.2225 23.2158 25.2522 23.2037C25.2822 23.1907 25.3118 23.1821 25.3398 23.1782ZM25.2427 23.3869L25.1469 23.4673C25.1203 23.4733 25.0976 23.4695 25.0836 23.4566C25.077 23.45 25.0679 23.4457 25.0571 23.4439C25.0462 23.4421 25.0338 23.4428 25.0205 23.446C25.1056 23.3746 25.1694 23.3418 25.2113 23.3495L25.2427 23.3869ZM37.6169 14.5319C37.6592 14.5388 37.6666 14.5588 37.6402 14.592C37.6131 14.6251 37.5945 14.6352 37.5843 14.623C37.5788 14.619 37.5752 14.6131 37.5739 14.6059C37.5726 14.5987 37.5735 14.5904 37.5767 14.5815C37.5799 14.5727 37.5851 14.5636 37.5921 14.555C37.5991 14.5464 37.6076 14.5385 37.6169 14.5319ZM39.6753 12.9002L39.674 13.0286C39.6456 12.9872 39.6027 12.9581 39.5482 12.9434C39.5697 12.9254 39.6117 12.9108 39.6753 12.9002ZM38.6196 14.041C38.674 14.0557 38.717 14.0849 38.7453 14.1262L38.6495 14.2066C38.6552 14.1434 38.645 14.087 38.6196 14.041ZM38.5864 14.1961C38.5967 14.2082 38.5859 14.26 38.5533 14.3512C38.5323 14.3261 38.5145 14.3148 38.4982 14.3178C38.4724 14.3154 38.4531 14.3037 38.4432 14.2846C38.4855 14.2436 38.5365 14.2121 38.5864 14.1961ZM38.7128 14.2174C38.7337 14.2423 38.7256 14.2649 38.6886 14.2855C38.6699 14.2954 38.6511 14.3001 38.6352 14.2989C38.6194 14.2977 38.6076 14.2906 38.6017 14.2789C38.6182 14.2635 38.6366 14.2502 38.6557 14.2396C38.6748 14.229 38.6942 14.2215 38.7128 14.2174ZM39.9728 13.3194C39.986 13.3154 39.9979 13.3156 40.0066 13.32C40.0152 13.3243 40.0199 13.3326 40.02 13.3433C40.02 13.3644 40.0037 13.378 39.9719 13.3837C39.9407 13.3464 39.9412 13.3246 39.9728 13.3194ZM39.1739 14.0533C39.2139 14.059 39.2463 14.0755 39.2684 14.1012C39.2187 14.1559 39.1755 14.2137 39.1404 14.2725L39.0777 14.1978C39.0886 14.1673 39.1414 14.1444 39.2366 14.1279L39.1739 14.0533ZM39.7319 13.6806C39.784 13.7428 39.7624 13.7823 39.6675 13.7985C39.5298 13.8502 39.45 13.9061 39.4282 13.9672C39.4192 13.9741 39.411 13.982 39.4041 13.9906C39.3972 13.9992 39.3918 14.0081 39.3881 14.017C39.3844 14.0258 39.379 14.0347 39.3721 14.0431C39.3653 14.0516 39.3571 14.0595 39.3482 14.0664C39.3914 13.945 39.4346 13.8666 39.4772 13.8309C39.5574 13.7673 39.6445 13.7159 39.7319 13.6806ZM38.8377 14.4309C38.8586 14.4558 38.8457 14.4826 38.7977 14.5124C38.7497 14.5417 38.7262 14.5348 38.7263 14.4927C38.7372 14.4621 38.7745 14.4412 38.8377 14.4309ZM29.6746 22.1197C29.717 22.1266 29.7299 22.142 29.7139 22.1664C29.7054 22.1784 29.6937 22.1893 29.6806 22.1974C29.6676 22.2054 29.654 22.2102 29.6421 22.2108C29.6369 22.2029 29.6343 22.1931 29.6344 22.1821C29.6345 22.171 29.6374 22.1589 29.6428 22.1464C29.6537 22.1158 29.6641 22.1071 29.6746 22.1197ZM30.1372 21.7633L30.2962 21.6936C30.2323 21.7897 30.1738 21.8492 30.1205 21.8728L30.0718 22.0092C30.074 21.9732 30.0661 21.9417 30.0488 21.9172C30.0331 21.8985 30.0413 21.8648 30.0735 21.8167C30.0979 21.7703 30.1378 21.7255 30.1855 21.691L30.1372 21.7633ZM29.1475 22.5937C29.1582 22.6015 29.1631 22.6145 29.1615 22.6303C29.1599 22.6462 29.1518 22.664 29.1387 22.6808C29.112 22.7136 29.0883 22.7176 29.0675 22.6929C29.0749 22.6753 29.0858 22.6574 29.0995 22.6403C29.1133 22.6233 29.1296 22.6074 29.1475 22.5937ZM30.7909 21.3103C30.8164 21.3076 30.845 21.2951 30.8707 21.2754C30.8921 21.2574 30.9237 21.2516 30.9656 21.2593L30.774 21.42C30.7634 21.4075 30.7692 21.3709 30.7909 21.3103ZM32.3537 20.1901C32.3115 20.1827 32.2796 20.2095 32.2579 20.2705C32.2576 20.3131 32.2789 20.3166 32.3211 20.2812C32.3304 20.2746 32.3389 20.2667 32.3459 20.2581C32.3528 20.2495 32.3581 20.2404 32.3613 20.2316C32.3644 20.2227 32.3654 20.2144 32.3641 20.2072C32.3627 20.2 32.3592 20.1941 32.3537 20.1901Z" fill="#1B2323"/>
<path d="M21.7832 11.3263C21.818 11.3432 21.8528 11.3564 21.8867 11.3655C21.9207 11.3746 21.9556 11.3877 21.9904 11.4046C22.0007 11.4346 22.0039 11.4532 21.9987 11.4594C21.9933 11.4659 21.9959 11.484 22.0071 11.5141C21.9933 11.5271 21.9705 11.531 21.9438 11.5248L21.8478 11.4443C21.8839 11.4722 21.9128 11.5078 21.9282 11.5435L21.8341 11.6556L21.77 11.6018C21.6748 11.5857 21.6159 11.568 21.595 11.5506C21.556 11.5976 21.5114 11.6399 21.4615 11.6773C21.4113 11.7177 21.3869 11.7807 21.3918 11.8575C21.3286 11.8629 21.2748 11.8829 21.234 11.9161C21.2153 12.0233 21.1616 12.1095 21.0777 12.1671C20.9973 12.2171 20.9486 12.2976 20.9371 12.3994C20.8759 12.4674 20.7961 12.5188 20.7008 12.5515C20.6806 12.6178 20.6492 12.677 20.6073 12.7277C20.565 12.778 20.5336 12.8372 20.5139 12.9038C20.4884 12.9118 20.4699 12.9281 20.4604 12.951C20.4509 12.9739 20.4507 13.0024 20.4598 13.0337C20.4684 13.0647 20.4679 13.093 20.4583 13.1158C20.4488 13.1385 20.4305 13.1549 20.4054 13.1633C20.4267 13.2238 20.4538 13.257 20.4858 13.2624L20.5347 13.3991L20.5974 13.3244C20.6012 13.3948 20.6125 13.4683 20.6312 13.5438C20.6751 13.5597 20.7193 13.5858 20.7589 13.619C20.7985 13.6522 20.8318 13.6913 20.8551 13.7317C20.8432 13.7209 20.8327 13.7089 20.8244 13.6965C20.8161 13.684 20.8101 13.6713 20.8068 13.6591C20.82 13.6623 20.8325 13.6631 20.8434 13.6613C20.8543 13.6596 20.8634 13.6553 20.8703 13.6489C20.877 13.6423 20.8861 13.638 20.897 13.6362C20.9079 13.6344 20.9203 13.635 20.9336 13.6382C20.9683 13.655 21.0031 13.6682 21.0371 13.6774C21.0711 13.6865 21.1059 13.6996 21.1407 13.7165C21.1337 13.821 21.0966 13.9095 21.0321 13.9754C21.0677 14.0077 21.0988 14.0436 21.1237 14.0809C21.1486 14.1181 21.1667 14.1561 21.1771 14.1926C21.2404 14.2037 21.2801 14.2211 21.2965 14.2452C21.3119 14.2692 21.3468 14.293 21.4003 14.3165C21.4683 14.3351 21.5377 14.3613 21.6072 14.3945C21.6179 14.4196 21.6183 14.4427 21.6081 14.4588C21.5974 14.4715 21.6131 14.4951 21.6561 14.5311L22.1361 14.9339C22.2382 15.0462 22.3513 15.1519 22.4723 15.2477C22.5458 15.3144 22.6274 15.3721 22.7118 15.4169C22.7753 15.4278 22.8178 15.4531 22.8395 15.4921C22.8619 15.5327 22.8954 15.5721 22.9357 15.6048C22.9868 15.669 23.0502 15.7276 23.1199 15.7752C23.1893 15.8232 23.2525 15.8817 23.3041 15.9457C23.4479 16.0865 23.5976 16.2227 23.7522 16.3534L24.2162 16.7428C24.2508 16.793 24.2946 16.8407 24.3444 16.8825C24.3942 16.9243 24.4488 16.9591 24.5042 16.9845C24.5712 17.0199 24.6335 17.0721 24.68 17.1319C24.7261 17.1921 24.7888 17.2446 24.856 17.2796C24.9257 17.3379 24.9978 17.3931 25.0718 17.4448C25.1569 17.5063 25.2356 17.5778 25.3038 17.6554C25.3359 17.7037 25.3678 17.7305 25.3998 17.7359C25.406 17.7363 25.4128 17.7381 25.4197 17.7412C25.4266 17.7442 25.4333 17.7485 25.4395 17.7537C25.4457 17.7589 25.4511 17.7648 25.4553 17.7711C25.4596 17.7773 25.4625 17.7837 25.4639 17.7897L25.7038 17.991C25.778 18.0532 25.8395 18.1271 25.8803 18.2029L25.9278 18.211C25.9782 18.2518 26.0325 18.2865 26.0878 18.3132C26.1154 18.3261 26.1425 18.3436 26.1674 18.3644C26.1922 18.3852 26.2141 18.4089 26.2316 18.4339C26.3349 18.5634 26.4702 18.6768 26.6156 18.7561C26.6404 18.7667 26.6649 18.782 26.6872 18.8006C26.7095 18.8193 26.7288 18.8409 26.7435 18.8634C26.7728 18.9087 26.8112 18.9519 26.8556 18.9896C26.8768 19.0073 26.877 19.0289 26.8562 19.0536L26.8875 19.0163C26.9474 19.0673 27.0125 19.111 27.0793 19.1452C27.107 19.1581 27.1341 19.1756 27.1589 19.1964C27.1838 19.2173 27.2057 19.241 27.2232 19.2659C27.2929 19.3663 27.3932 19.4562 27.5032 19.5171C27.6133 19.5778 27.7136 19.6677 27.7834 19.7681L27.8794 19.8486L27.8957 19.894C27.9263 19.8991 27.9594 19.9128 27.9907 19.9334C28.022 19.954 28.0501 19.9806 28.0714 20.0097C28.0914 20.0372 28.1159 20.0632 28.1433 20.0863C28.1708 20.1093 28.2007 20.1289 28.2312 20.1438C28.2635 20.1597 28.2946 20.1828 28.3204 20.2101C28.3461 20.2373 28.3654 20.2675 28.3757 20.2968L28.4709 20.3129C28.5322 20.3877 28.5993 20.4601 28.6712 20.5289C28.7432 20.6017 28.8316 20.6588 28.919 20.6889C28.909 20.6978 28.9026 20.7097 28.9 20.7239C28.8974 20.7382 28.8987 20.7544 28.9038 20.7717C29.0415 20.8237 29.1266 20.8739 29.159 20.9223C29.202 21.0012 29.287 21.0725 29.4148 21.137C29.5845 21.2609 29.7418 21.4037 29.8791 21.5584C29.9112 21.6067 29.9431 21.6334 29.9751 21.6389C30.0063 21.644 30.0386 21.6711 30.0711 21.7195C30.1252 21.764 30.1812 21.8057 30.2387 21.8442C30.2982 21.8825 30.3514 21.9328 30.391 21.9879C30.4385 22.0262 30.4917 22.054 30.5424 22.0673C30.5671 22.0729 30.5932 22.0852 30.6174 22.1026C30.6416 22.1201 30.6628 22.1418 30.6782 22.1651C30.7294 22.2293 30.7927 22.2879 30.8623 22.3357C30.9218 22.3739 30.9751 22.4242 31.0146 22.4793L31.4942 22.8818C31.5471 22.9234 31.6051 22.9555 31.662 22.9747C31.7304 23.0003 31.7914 23.0253 31.8451 23.0486L31.9416 23.1934C32.048 23.2849 32.1606 23.3688 32.2771 23.4432L32.2458 23.4804C32.36 23.6191 32.5054 23.741 32.6617 23.8294C32.7233 23.8602 32.7809 23.9084 32.8218 23.9638C32.8419 23.9912 32.8663 24.0173 32.8938 24.0403C32.9212 24.0633 32.9511 24.0829 32.9816 24.0978C33.038 24.1668 33.1065 24.2299 33.1816 24.2818C33.2669 24.3431 33.3457 24.4147 33.4136 24.4924C33.5724 24.6045 33.7253 24.7274 33.8696 24.8591C34.013 24.9902 34.1703 25.1274 34.3414 25.2709C34.3807 25.3047 34.4253 25.3309 34.4692 25.346C34.4911 25.3542 34.5131 25.3673 34.5328 25.3838C34.5526 25.4004 34.5693 25.4198 34.5811 25.44C34.7093 25.5475 34.8099 25.6002 34.8843 25.5988L34.8372 25.6549L34.9323 25.6711C34.943 25.7148 34.9718 25.7617 35.0129 25.8023C35.0512 25.8366 35.0842 25.8753 35.1094 25.9153C35.1714 25.9354 35.2347 25.9688 35.2934 26.0125C35.3521 26.0562 35.4043 26.1086 35.4451 26.1649C35.4826 26.1973 35.5231 26.2259 35.5649 26.2496C35.6075 26.2758 35.6449 26.3129 35.669 26.3528C35.7747 26.463 35.894 26.563 36.0208 26.648L35.9894 26.6854C36.0768 26.7208 36.1642 26.7723 36.2447 26.8359C36.4023 27.0109 36.5887 27.1673 36.7885 27.2922C36.767 27.2741 36.7668 27.2532 36.7878 27.2281C36.7995 27.248 36.8147 27.2674 36.8326 27.2851C36.8505 27.3029 36.8707 27.3186 36.892 27.3314C36.9346 27.3577 36.972 27.3947 36.9961 27.4346C37.0282 27.483 37.06 27.531 37.0926 27.5794C37.1071 27.6021 37.1264 27.6238 37.1488 27.6426C37.1712 27.6614 37.1959 27.6766 37.2208 27.687C37.2331 27.7081 37.2518 27.728 37.2737 27.7435C37.2955 27.7589 37.3192 27.7689 37.3406 27.7716C37.3619 27.7743 37.3856 27.7843 37.4074 27.7997C37.4293 27.8151 37.4481 27.835 37.4605 27.856C37.5354 27.9541 37.6217 28.0481 37.7168 28.1349C37.7616 28.1721 37.8109 28.2026 37.8606 28.2238C37.8854 28.2343 37.91 28.2495 37.9323 28.2682C37.9546 28.2869 37.9739 28.3085 37.9885 28.3312C38.0008 28.3522 38.0195 28.3722 38.0414 28.3877C38.0632 28.4031 38.0869 28.4131 38.1083 28.4158C38.1296 28.4185 38.1533 28.4284 38.1751 28.4438C38.197 28.4592 38.2158 28.4792 38.2282 28.5002C38.253 28.5108 38.2775 28.5261 38.2998 28.5447C38.322 28.5634 38.3413 28.585 38.3561 28.6075C38.3882 28.6558 38.42 28.7039 38.4525 28.7523C38.4952 28.7881 38.5266 28.8041 38.5482 28.8008C38.569 28.7972 38.6011 28.8131 38.6441 28.8492L38.6753 28.8119C38.6965 28.8297 38.7387 28.8441 38.8027 28.855C38.9077 28.8158 38.992 28.7804 39.0555 28.7488C39.0747 28.7271 39.0878 28.7005 39.0944 28.67C39.1007 28.6392 39.1138 28.6126 39.1334 28.5912C39.21 28.5063 39.2727 28.4097 39.3206 28.3027C39.3828 28.2715 39.4358 28.2303 39.4783 28.1801L39.6193 28.0121C39.659 27.9654 39.6929 27.914 39.7207 27.8582C39.7487 27.8025 39.7826 27.7512 39.8223 27.7047C39.8807 27.68 39.9141 27.6287 39.9161 27.5606C39.9204 27.4839 39.947 27.419 39.9938 27.3708C40.0565 27.3134 40.0886 27.2302 40.0865 27.1302C40.1178 27.1358 40.1364 27.1355 40.1418 27.129C40.1469 27.1229 40.1655 27.1226 40.1975 27.1281C40.1923 27.1108 40.1909 27.0945 40.1935 27.0803C40.196 27.066 40.2024 27.054 40.2123 27.045C40.2438 27.0504 40.2652 27.0573 40.2763 27.0666C40.2867 27.0753 40.3077 27.0826 40.3397 27.0881C40.3182 27.0701 40.2967 27.031 40.2751 26.9701C40.3378 27.01 40.4023 27.0427 40.4665 27.0672C40.4663 27.0256 40.4491 26.9776 40.4176 26.9306C40.4008 26.9064 40.3774 26.8845 40.3512 26.8683C40.3251 26.8522 40.2979 26.8429 40.274 26.8419C40.242 26.8364 40.183 26.7766 40.0977 26.6622C40.1075 26.6428 40.1269 26.631 40.1528 26.6288C40.1787 26.6263 40.198 26.6146 40.208 26.5954C40.2056 26.5837 40.2006 26.5714 40.1931 26.5591C40.1857 26.5468 40.1761 26.5348 40.1649 26.5239C40.1536 26.513 40.141 26.5034 40.1278 26.4956C40.1146 26.4879 40.101 26.4821 40.0879 26.4788C40.0749 26.4755 40.0613 26.4699 40.048 26.4621C40.0347 26.4544 40.0221 26.4448 40.0108 26.4338C39.9995 26.4229 39.9899 26.4109 39.9825 26.3985C39.9751 26.3862 39.9701 26.3738 39.9679 26.3622C39.9586 26.345 39.9459 26.3281 39.9307 26.3126C39.9154 26.297 39.898 26.2833 39.8797 26.2723C39.8432 26.2541 39.8077 26.2297 39.7759 26.201C39.7682 26.1748 39.7516 26.1471 39.7285 26.122C39.7055 26.0969 39.6771 26.0758 39.6477 26.0617C39.5834 26.0292 39.5251 26.0016 39.4722 25.978C39.4644 25.9517 39.4478 25.9241 39.4248 25.899C39.4017 25.874 39.3735 25.8529 39.344 25.8387C39.3144 25.8247 39.2859 25.8036 39.2627 25.7784C39.2396 25.7533 39.223 25.7254 39.2155 25.6991L39.0563 25.629L39.0238 25.5383C38.9859 25.5273 38.9467 25.5056 38.912 25.4765C38.8774 25.4474 38.8492 25.4125 38.8318 25.3771C38.7886 25.2985 38.7032 25.2268 38.5757 25.1622C38.541 25.1538 38.5042 25.1344 38.472 25.1074C38.4398 25.0804 38.4143 25.0475 38.4 25.0148C38.3913 24.9884 38.3744 24.961 38.3515 24.9361C38.3287 24.9112 38.3008 24.8899 38.2716 24.875C38.2196 24.8107 38.1523 24.7542 38.0799 24.7142C38.0192 24.6822 37.9599 24.6432 37.904 24.5986C37.8887 24.5754 37.8675 24.5536 37.8433 24.5361C37.8191 24.5186 37.793 24.5063 37.7683 24.5006C37.7552 24.4974 37.7416 24.4917 37.7284 24.4839C37.7151 24.4762 37.7025 24.4665 37.6912 24.4556C37.68 24.4447 37.6703 24.4327 37.6629 24.4204C37.6556 24.408 37.6505 24.3957 37.6482 24.384C37.6405 24.3574 37.6222 24.3292 37.597 24.305C37.5717 24.2809 37.5413 24.2626 37.5119 24.2537C37.4551 24.2344 37.3973 24.2024 37.3446 24.161L37.376 24.1235C37.3584 24.0985 37.3365 24.0748 37.3116 24.0539C37.2867 24.033 37.2595 24.0155 37.2318 24.0026C37.1767 23.976 37.1225 23.9414 37.0722 23.9007L36.6244 23.5249C36.6219 23.5129 36.6161 23.5001 36.6078 23.4875C36.5994 23.475 36.5886 23.463 36.5762 23.4526C36.5637 23.4422 36.5501 23.4336 36.5363 23.4275C36.5225 23.4215 36.5088 23.4181 36.4965 23.4176C36.461 23.3476 36.4006 23.2797 36.3281 23.2284C36.2594 23.1815 36.1926 23.1307 36.1283 23.0766L35.7443 22.7544C35.6057 22.6632 35.4716 22.5615 35.3448 22.4512C35.3046 22.3759 35.2387 22.3035 35.1605 22.2486C35.0866 22.1969 35.0145 22.1417 34.9447 22.0834C34.8898 22.0058 34.8215 21.9322 34.7442 21.8674C34.667 21.8025 34.5826 21.748 34.4966 21.7074C34.4743 21.6888 34.4551 21.6672 34.4407 21.6446C34.4257 21.622 34.4065 21.6004 34.3844 21.5815C34.3309 21.558 34.2722 21.4984 34.208 21.4018C34.1963 21.3816 34.1796 21.3621 34.1598 21.3455C34.1401 21.3289 34.118 21.3158 34.096 21.3078C34.0522 21.2926 34.0077 21.2664 33.9685 21.2325C33.9531 21.2093 33.9319 21.1875 33.9077 21.1701C33.8836 21.1526 33.8575 21.1402 33.8328 21.1345C33.8197 21.1313 33.8061 21.1256 33.7928 21.1179C33.7795 21.1101 33.7669 21.1005 33.7556 21.0895C33.7443 21.0786 33.7347 21.0666 33.7273 21.0543C33.7199 21.0419 33.715 21.0295 33.7127 21.0179C33.7068 20.9943 33.694 20.9693 33.6756 20.9455C33.6572 20.9217 33.634 20.9 33.6082 20.8826C33.5611 20.8536 33.5154 20.8206 33.4722 20.7844C33.3757 20.7041 33.2823 20.6203 33.1923 20.5336C33.0933 20.4441 32.9781 20.3754 32.8653 20.3386C32.8749 20.3293 32.8776 20.3145 32.8728 20.2972C32.8701 20.2886 32.8694 20.2804 32.8707 20.2733C32.8719 20.2662 32.8752 20.2603 32.8803 20.2559C32.7661 20.1387 32.6296 20.0407 32.4888 19.975C32.3451 19.9076 32.2461 19.7983 32.1921 19.6465C32.1848 19.6577 32.1706 19.663 32.1526 19.6612C32.1437 19.6602 32.1356 19.6609 32.1288 19.6634C32.122 19.6659 32.1167 19.6701 32.1132 19.6758L32.0804 19.5847L31.9206 19.4506L31.8737 19.5065C31.8511 19.4455 31.8298 19.4062 31.8089 19.3887C31.7784 19.3737 31.7484 19.3541 31.7209 19.331C31.6934 19.308 31.6689 19.2819 31.6488 19.2544C31.5974 19.1903 31.5342 19.1317 31.4646 19.0839C31.396 19.0369 31.3291 18.9862 31.2648 18.9321C31.1871 18.8886 31.1131 18.832 31.0491 18.767C30.9705 18.6922 30.8786 18.6317 30.7858 18.5937C30.7678 18.58 30.7513 18.5641 30.7375 18.5471C30.7237 18.53 30.7128 18.5121 30.7054 18.4945C30.704 18.4885 30.7011 18.4821 30.6969 18.4759C30.6927 18.4697 30.6873 18.4638 30.6812 18.4586C30.675 18.4534 30.6682 18.4492 30.6614 18.4461C30.6545 18.443 30.6478 18.4413 30.6416 18.441C30.5541 18.4056 30.4668 18.3542 30.3863 18.2905L30.4334 18.2345C30.401 18.2287 30.38 18.2214 30.3696 18.2127C30.3585 18.2034 30.3371 18.1965 30.3061 18.1912L30.353 18.1353C30.3011 18.0707 30.2336 18.0141 30.161 17.9742C30.1441 18.0048 30.1105 18.0219 30.0664 18.0221C30.0558 17.9949 30.0501 17.9685 30.0497 17.9443C30.0482 17.9198 30.0427 17.8937 30.0331 17.8669C29.9704 17.8271 29.9059 17.7944 29.8417 17.7698C29.7244 17.6972 29.6114 17.6131 29.5062 17.52C29.4809 17.5003 29.4538 17.484 29.4264 17.472C29.399 17.46 29.372 17.4525 29.3469 17.4501L29.3939 17.394L29.2984 17.3777C29.2629 17.3233 29.2355 17.268 29.2176 17.2143C29.185 17.1659 29.1583 17.1435 29.1375 17.1471C29.1159 17.1504 29.0844 17.1343 29.0418 17.0986C28.8793 16.9662 28.724 16.8252 28.5778 16.6774C28.5569 16.6598 28.5341 16.6448 28.5108 16.6335C28.4875 16.6221 28.4642 16.6146 28.4424 16.6114C28.3947 16.6035 28.3595 16.5688 28.3382 16.5082C28.3229 16.4762 28.3016 16.4442 28.2754 16.4141C28.2492 16.3839 28.2187 16.3562 28.1856 16.3325C28.1317 16.2986 28.0837 16.2527 28.0496 16.2025C28.0152 16.1523 27.9673 16.1064 27.9134 16.072C27.8611 16.0384 27.8102 16.0011 27.7616 15.9609L27.3457 15.6119C27.3233 15.5932 27.2986 15.578 27.2738 15.5674C27.2554 15.5566 27.2379 15.5429 27.2227 15.5274C27.2075 15.5119 27.1949 15.495 27.1859 15.4778C27.0962 15.3818 26.9964 15.2926 26.8899 15.2133C26.7835 15.1351 26.6794 15.0531 26.578 14.9677C26.5298 14.9267 26.4841 14.883 26.4418 14.8372C26.3988 14.7902 26.3453 14.751 26.29 14.726C26.2274 14.6958 26.1666 14.6535 26.1134 14.6032C26.0602 14.5529 26.0163 14.4963 25.9859 14.4388C25.8376 14.3357 25.6973 14.218 25.57 14.0898C25.5016 14.0117 25.419 13.9423 25.3302 13.8886C25.2445 13.838 25.1435 13.7747 25.0267 13.6977L24.9621 13.5797C24.9068 13.555 24.8532 13.5156 24.8105 13.4684C24.7674 13.4213 24.7139 13.3822 24.6586 13.3572C24.6404 13.3316 24.6168 13.3078 24.5901 13.2881C24.5634 13.2685 24.5346 13.2538 24.5067 13.2455C24.4773 13.2367 24.4469 13.2185 24.4217 13.1943C24.3965 13.1702 24.3783 13.1421 24.3706 13.1155C24.3416 13.0705 24.2989 13.0289 24.2507 12.9987C24.2021 12.9688 24.1592 12.9271 24.1303 12.8818C24.0855 12.8219 24.0271 12.7674 23.9624 12.725C23.8885 12.6733 23.8164 12.6181 23.7466 12.5598C23.6974 12.5172 23.6425 12.4821 23.587 12.4577C23.5314 12.4333 23.4767 12.4202 23.4279 12.4196L23.4272 12.3556C23.3711 12.3105 23.3217 12.2581 23.2827 12.2026C23.2098 12.1554 23.135 12.1139 23.0598 12.0791C23.07 12.063 23.0696 12.0399 23.0588 12.0148C22.8669 11.8965 22.7345 11.8171 22.6602 11.7755L22.6914 11.7382C22.6531 11.7068 22.6179 11.672 22.5873 11.635C22.5607 11.6019 22.5149 11.5798 22.4519 11.569C22.3879 11.558 22.3507 11.5158 22.3396 11.443C22.2756 11.4321 22.2332 11.4172 22.2124 11.3997C22.2136 11.3724 22.2106 11.3432 22.2033 11.3127C22.1956 11.2821 22.1927 11.2528 22.1947 11.2258C22.1847 11.245 22.1653 11.2567 22.1395 11.2592C22.1306 11.2582 22.1225 11.2589 22.1157 11.2614C22.1089 11.2639 22.1036 11.2681 22.1001 11.2738L22.0041 11.1932C21.9826 11.2269 21.9505 11.252 21.9098 11.267C21.8691 11.2821 21.8205 11.2868 21.767 11.2809C21.7135 11.2574 21.6898 11.2638 21.6955 11.3006C21.6999 11.3329 21.7083 11.3666 21.7206 11.401L21.7832 11.3263ZM34.4355 25.1588C34.4244 25.1284 34.4137 25.1087 34.4033 25.1C34.3922 25.0907 34.3816 25.0711 34.3709 25.0408C34.4091 25.0722 34.4443 25.1071 34.4751 25.144C34.5055 25.1811 34.5407 25.2161 34.579 25.2475C34.5665 25.2462 34.553 25.2424 34.5394 25.2364C34.5258 25.2305 34.5122 25.2223 34.4996 25.2126C34.474 25.1928 34.4454 25.1802 34.4199 25.1774L34.4355 25.1588ZM33.5066 24.252C33.4531 24.2285 33.389 24.1534 33.3141 24.0267L33.346 24.0535L33.3936 24.0616C33.4033 24.0523 33.406 24.0375 33.4012 24.0201C33.3985 24.0115 33.3978 24.0033 33.3991 23.9962C33.4004 23.9891 33.4037 23.9832 33.4087 23.9788L33.4416 24.0698C33.4451 24.0642 33.4504 24.06 33.4572 24.0575C33.464 24.055 33.472 24.0543 33.481 24.0553C33.4898 24.0563 33.4979 24.0555 33.5047 24.053C33.5114 24.0505 33.5168 24.0463 33.5203 24.0407L33.4577 24.1154L33.5066 24.252L33.5537 24.196C33.5783 24.2381 33.6157 24.2781 33.6595 24.309C33.7033 24.3399 33.7506 24.3597 33.7933 24.365L33.8417 24.4376C33.9374 24.4908 34.0297 24.5573 34.1132 24.6334C34.0876 24.6794 34.0773 24.7359 34.0833 24.7994L33.6351 24.4234C33.5507 24.3786 33.4691 24.321 33.3955 24.2543C33.427 24.2597 33.4459 24.2597 33.4513 24.2532C33.4564 24.2471 33.4746 24.2466 33.5066 24.252ZM22.0055 14.5694C21.9636 14.6194 21.9182 14.6186 21.8709 14.5679C21.8487 14.5461 21.8304 14.5219 21.8177 14.4974C21.805 14.4729 21.7983 14.4489 21.798 14.4274C21.8618 14.4844 21.9326 14.5329 22.0055 14.5694ZM37.1699 27.3577C37.1908 27.3328 37.2064 27.3354 37.2175 27.3658C37.1964 27.3909 37.1807 27.3984 37.1703 27.3897C37.1592 27.3804 37.1594 27.3702 37.1699 27.3577ZM37.0583 27.2957C37.0896 27.2585 37.1158 27.2484 37.1373 27.2664C37.1699 27.3577 37.1433 27.367 37.0583 27.2957ZM23.989 16.2337C23.9151 16.198 23.8423 16.1531 23.7734 16.1008C23.7304 16.0708 23.6934 16.032 23.6685 15.9908C23.6436 15.9497 23.6323 15.9086 23.6366 15.8745C23.6685 15.9031 23.7039 15.9274 23.7404 15.9458C23.7665 15.957 23.7957 15.987 23.8283 16.0354L23.7812 16.0914C23.8767 16.1078 23.9188 16.1006 23.9082 16.0703C23.9031 16.0748 23.8998 16.0807 23.8985 16.0879C23.8972 16.095 23.8978 16.1032 23.9005 16.1119C23.9053 16.1291 23.9026 16.1439 23.893 16.1532C23.9244 16.1588 23.9562 16.1855 23.989 16.2337ZM22.9327 15.2839C22.9594 15.3032 22.9829 15.3273 23 15.353C23.0172 15.3787 23.0274 15.405 23.0293 15.4285C22.9793 15.4125 22.9281 15.381 22.8856 15.34L22.9327 15.2839ZM37.5042 27.4788C37.5041 27.5218 37.5361 27.5487 37.6002 27.5593L37.5688 27.5968L37.4728 27.5162L37.5042 27.4788ZM35.3133 25.6724C35.3235 25.6564 35.3233 25.6332 35.3125 25.608C35.4145 25.6867 35.5221 25.7555 35.6317 25.8124C35.5997 25.8069 35.5815 25.8075 35.5764 25.8135C35.571 25.82 35.5521 25.82 35.5207 25.8144C35.5022 25.8085 35.4832 25.7991 35.4653 25.7868C35.4473 25.7745 35.4307 25.7597 35.4167 25.7434C35.4029 25.7272 35.3864 25.7124 35.3685 25.7001C35.3506 25.6878 35.3317 25.6784 35.3133 25.6724ZM34.336 24.6931C34.45 24.6837 34.5811 24.7061 34.7172 24.7583L34.7799 24.6836C34.8387 24.7259 34.8893 24.7795 34.924 24.8363C34.9114 24.8266 34.8979 24.8185 34.8842 24.8125C34.8706 24.8065 34.8571 24.8027 34.8446 24.8014L34.7975 24.8575L34.7015 24.777C34.7442 24.8127 34.7713 24.8886 34.7829 25.0045L34.6401 24.9803C34.6824 25.0158 34.6719 25.0284 34.6089 25.0176C34.5663 25.0247 34.5367 25.0157 34.5212 24.9919C34.5072 24.9757 34.4907 24.9608 34.4727 24.9485C34.4548 24.9362 34.4359 24.9267 34.4174 24.9207L34.4644 24.8646C34.4763 24.8651 34.49 24.8697 34.5031 24.8778C34.5162 24.8859 34.5279 24.897 34.5363 24.9091C34.5519 24.9328 34.5812 24.9415 34.6237 24.9345C34.5892 24.8845 34.5414 24.8387 34.4877 24.8045C34.4354 24.7707 34.3846 24.7334 34.336 24.6931ZM21.7169 14.2637C21.7483 14.2263 21.7747 14.2167 21.7961 14.2347C21.8549 14.31 21.9258 14.3804 22.0044 14.4412C21.9802 14.4397 21.9533 14.4315 21.9266 14.4176C21.9 14.4036 21.8745 14.3844 21.8529 14.362C21.8149 14.3195 21.7664 14.2845 21.7169 14.2637ZM21.3802 13.8857C21.4014 13.9148 21.4295 13.9414 21.4608 13.962C21.4921 13.9826 21.5252 13.9963 21.5557 14.0012C21.5664 14.0263 21.5668 14.0494 21.5566 14.0654C21.4809 14.0362 21.4048 13.9941 21.3332 13.9418L21.3802 13.8857ZM21.1556 13.6334C21.0393 13.6424 20.965 13.6007 20.9321 13.5097C20.97 13.5244 21.008 13.5455 21.0438 13.5716C21.0796 13.5977 21.1177 13.6187 21.1556 13.6334ZM34.349 24.4173C34.3803 24.4229 34.3992 24.4228 34.4046 24.4164C34.4097 24.4103 34.428 24.4097 34.46 24.4152L34.4928 24.5063L34.4301 24.5809C34.4202 24.554 34.4066 24.5265 34.3895 24.4992C34.3714 24.4719 34.3577 24.4442 34.349 24.4173ZM34.5718 24.4769L34.6678 24.5575C34.6783 24.5827 34.6785 24.6057 34.6682 24.6217C34.6629 24.6294 34.6602 24.6391 34.6603 24.6501C34.6604 24.6611 34.6633 24.6732 34.6689 24.6857C34.5836 24.6142 34.5401 24.5569 34.5403 24.5144L34.5718 24.4769ZM23.6794 13.8091C23.6788 13.7661 23.6973 13.7554 23.7346 13.7757C23.7719 13.7966 23.7852 13.8132 23.775 13.8254C23.7719 13.8315 23.7668 13.8361 23.7599 13.8386C23.7531 13.8412 23.7446 13.8417 23.7354 13.8401C23.7261 13.8385 23.7162 13.8349 23.7065 13.8295C23.6968 13.8241 23.6875 13.8171 23.6794 13.8091ZM21.7111 12.0619L21.8379 12.041C21.8021 12.0761 21.7809 12.1235 21.7758 12.1797C21.7544 12.1617 21.7327 12.1227 21.7111 12.0619ZM23.0202 12.9054C23.0252 12.8492 23.0464 12.8018 23.0822 12.7667L23.1782 12.8473C23.1149 12.8526 23.0611 12.8724 23.0202 12.9054ZM23.1789 12.9113C23.1891 12.8991 23.242 12.9008 23.3376 12.9172C23.3165 12.9422 23.3085 12.9617 23.3143 12.9773C23.3164 13.0031 23.3083 13.0242 23.2911 13.0372C23.2433 13.0026 23.2034 12.9578 23.1789 12.9113ZM23.1778 12.7831C23.1987 12.7582 23.2224 12.7623 23.2492 12.7951C23.2622 12.8119 23.2701 12.8296 23.2717 12.8454C23.2733 12.8612 23.2684 12.8741 23.2578 12.882C23.2398 12.8683 23.2235 12.8525 23.2097 12.8355C23.1959 12.8185 23.1851 12.8007 23.1778 12.7831ZM22.0723 11.6962C22.0661 11.6839 22.0642 11.672 22.067 11.6628C22.0698 11.6535 22.0771 11.6474 22.0876 11.6455C22.1084 11.6419 22.1247 11.6556 22.1358 11.6859C22.1046 11.7232 22.083 11.7264 22.0723 11.6962ZM22.9354 12.3569C22.9341 12.3165 22.9447 12.2817 22.9662 12.2554C23.0288 12.295 23.0933 12.3276 23.1574 12.352L23.0947 12.4267C23.0627 12.4212 23.0309 12.3732 22.9981 12.2822L22.9354 12.3569ZM22.4705 11.8713C22.5227 11.8091 22.5654 11.8236 22.598 11.9144C22.673 12.0411 22.7421 12.1101 22.8061 12.121C22.8144 12.1287 22.8237 12.1355 22.8334 12.1408C22.843 12.1461 22.8528 12.1499 22.8622 12.152C22.8715 12.1541 22.8812 12.1579 22.8908 12.1632C22.9003 12.1685 22.9095 12.1752 22.9179 12.1828C22.7906 12.1612 22.7058 12.1321 22.6632 12.0964C22.5864 12.0283 22.5205 11.9512 22.4705 11.8713ZM23.3664 12.623C23.3873 12.5981 23.416 12.6063 23.4538 12.6484C23.491 12.6906 23.4884 12.7149 23.4468 12.7222C23.4148 12.7167 23.3877 12.6836 23.3664 12.623ZM32.5477 20.327C32.5472 20.2841 32.5601 20.2687 32.587 20.2803C32.6003 20.2866 32.6131 20.2962 32.6233 20.3077C32.6335 20.3191 32.6405 20.3317 32.6433 20.3434C32.6364 20.3498 32.6272 20.3541 32.6163 20.3559C32.6054 20.3577 32.5929 20.357 32.5796 20.3538C32.5476 20.3483 32.5372 20.3396 32.5477 20.327ZM32.1156 19.9327L32.0191 19.7879C32.1249 19.8343 32.1938 19.8817 32.2264 19.9301L32.3695 19.9546C32.3335 19.9587 32.3039 19.9719 32.2827 19.9932C32.2671 20.0118 32.2324 20.0096 32.1794 19.9862C32.1294 19.9701 32.0783 19.9385 32.0358 19.8975L32.1156 19.9327ZM33.1072 20.7647C33.113 20.7529 33.1249 20.7458 33.1408 20.7446C33.1568 20.7435 33.1757 20.7483 33.1946 20.7583C33.2315 20.779 33.2397 20.8017 33.2189 20.8264C33.2003 20.8222 33.1808 20.8146 33.1616 20.804C33.1423 20.7934 33.1239 20.78 33.1072 20.7647ZM31.5547 19.3665C31.5477 19.3419 31.5303 19.3158 31.5064 19.2939C31.4849 19.2759 31.4737 19.2457 31.4739 19.2031L31.6659 19.3642C31.6554 19.3768 31.6183 19.3774 31.5547 19.3665ZM30.1772 18.0196C30.1773 18.0624 30.2093 18.0892 30.2732 18.1001C30.3153 18.093 30.3151 18.0714 30.2728 18.0359C30.2647 18.0279 30.2554 18.0209 30.2457 18.0155C30.236 18.0101 30.2261 18.0065 30.2168 18.0049C30.2076 18.0033 30.1991 18.0038 30.1923 18.0063C30.1854 18.0089 30.1803 18.0134 30.1772 18.0196Z" fill="#1B2323"/>
</svg>
