<svg width="16" height="22" viewBox="0 0 16 22" fill="none" xmlns="http://www.w3.org/2000/svg">
<path d="M3.06641 18.4707H13.3087V21.6407H3.06641V18.4707Z" fill="white"/>
<path d="M9.48239 14.1088C9.47301 14.0285 9.46814 13.9474 9.46814 13.8657V11.9344C10.2603 11.6864 10.9569 11.2146 11.4773 10.5894C11.4801 10.5894 11.4828 10.5897 11.4856 10.5897C12.3148 10.5897 13.1148 10.3137 13.7713 9.79517C14.5265 9.19857 15.008 8.34706 15.1268 7.3975L15.9538 0.790432L14.6833 0.634425L14.5246 1.90201H13.2345L13.4726 0H2.90306L3.14115 1.90201H1.85105L1.69238 0.634425L0.421875 0.790432L1.24885 7.39754C1.36771 8.34711 1.84909 9.19857 2.60442 9.79521C3.26094 10.3138 4.06087 10.5897 4.8901 10.5897C4.89284 10.5897 4.89561 10.5895 4.89834 10.5895C5.41882 11.2147 6.11534 11.6864 6.90753 11.9345V13.8657C6.90753 13.9474 6.90267 14.0286 6.89328 14.1089C7.3162 14.1871 7.74765 14.2439 8.18781 14.2439C8.62798 14.2439 9.05943 14.1871 9.48239 14.1088ZM14.3659 3.17001L13.8562 7.24149C13.7788 7.86023 13.4651 8.41511 12.9729 8.80384C12.7524 8.97806 12.5069 9.10985 12.2469 9.19701C12.3266 8.95051 12.3844 8.69369 12.4175 8.42872L13.0758 3.17001H14.3659ZM3.40271 8.80384C2.91057 8.41511 2.59686 7.86023 2.51941 7.24149L2.00977 3.17001H3.29987L3.9581 8.42868C3.99126 8.69374 4.04904 8.95055 4.12881 9.19709C3.86878 9.10989 3.62326 8.97806 3.40271 8.80384Z" fill="white"/>
<path d="M10.1498 15.2695C9.54617 15.3971 8.8861 15.5124 8.18741 15.5124C7.48872 15.5124 6.82864 15.3971 6.22499 15.2695C5.84641 15.5773 5.23828 16.2098 5.04688 17.2031H11.3279C11.1365 16.2098 10.5284 15.5773 10.1498 15.2695Z" fill="white"/>
</svg>
