<svg width="81" height="76" viewBox="0 0 81 76" fill="none" xmlns="http://www.w3.org/2000/svg">
<path d="M46.496 44.0329C47.7336 40.983 48.5293 39.016 50.0984 36.5628C50.4741 35.9661 52.7726 34.1759 51.9107 33.6897C50.8941 33.1371 47.2032 35.6346 46.3413 36.1429C45.1036 36.8501 44.1533 37.911 43.0703 38.8392C43.9544 40.3421 44.3301 41.646 45.4793 42.9279L46.496 44.055V44.0329Z" fill="#F37715"/>
<path d="M3.09047 21.3129C9.36714 14.9921 16.0416 8.58279 24.3074 4.95823C28.5287 3.10175 32.2416 1.75359 36.3966 4.3836C42.2755 8.09657 46.0989 13.2461 50.1655 18.6166C52.5524 21.7771 55.6687 25.4016 56.0444 29.5345C51.6463 21.4456 38.1647 6.5274 33.6119 4.84772C31.6449 4.11839 28.2414 4.89193 25.965 6.01908C20.9259 8.47229 18.0749 10.0193 13.721 13.4892C10.8258 15.7877 6.86972 19.4786 5.19005 22.86L3.06836 21.3351L3.09047 21.3129Z" fill="#F37715"/>
<path d="M25.5879 49.8236C31.2236 43.6353 39.3347 36.2536 46.8711 32.5185C48.3077 31.8113 53.6119 29.0708 55.3579 29.8443C57.5017 30.8167 55.2032 34.154 54.4739 35.4358C52.971 38.1321 48.5729 46.0885 49.8769 49.5142C50.8051 51.9232 60.9715 44.7624 63.9773 43.1491C71.4253 39.1267 77.0831 37.7343 80.8624 39.8781C72.1325 40.1654 69.4804 41.4031 59.2697 47.7903C56.1756 49.7352 47.7331 54.9289 47.6005 48.5196C47.49 43.2375 51.8659 37.226 54.1202 32.85C55.2695 30.6399 52.9931 31.4356 50.8714 32.2091C46.9595 33.6236 42.8708 36.3862 39.6662 38.9941C35.2239 42.6186 30.3617 46.8841 26.273 50.8844L25.5879 49.8457V49.8236Z" fill="#F37715"/>
<path d="M47.0254 15.0807C52.1749 11.7877 60.3965 7.08018 65.4355 12.738C70.143 18.0202 73.3697 24.7168 76.5744 30.9713C77.9004 33.5792 79.7348 36.3419 79.9337 39.3255C77.9667 37.4027 76.928 35.06 75.9114 32.5184C74.2538 28.4739 72.331 25.3135 70.2093 21.5563C67.3583 16.4952 63.8663 9.90911 56.9708 11.8982C54.1198 12.7159 50.5173 14.4177 48.5062 16.7162L47.0696 15.1028L47.0254 15.0807Z" fill="#F37715"/>
<path d="M40.3948 37.8008C41.3894 39.5689 44.3509 43.9448 45.1465 44.9836C46.2737 46.4423 47.445 47.6799 48.6606 49.0502C49.2131 49.669 50.716 50.7077 50.7381 51.5918C48.749 52.3432 45.9643 48.4977 45.0802 47.1495C43.71 45.0499 42.3397 42.884 40.9695 40.7844C39.9307 39.171 40.3727 37.8229 40.3727 37.8229L40.3948 37.8008Z" fill="#F37715"/>
<path d="M1.78493 18.8824C0.790387 18.1972 -0.137857 19.7664 0.900888 20.2526C1.93963 20.7389 10.0286 28.3416 20.9244 44.5858C31.8202 60.83 39.2682 72.2783 40.3732 73.8033C41.5004 75.3282 43.18 75.6377 44.4619 74.5326C45.7437 73.4055 47.9096 70.8418 46.9372 70.2008C45.9648 69.5599 42.7822 69.7146 41.1688 72.3667C41.1688 72.3667 28.1293 52.7411 22.604 44.7405C17.0788 36.74 8.98984 23.8551 1.78493 18.8824Z" fill="#F37715"/>
<path d="M27.9317 49.0938C27.9317 49.0938 39.0264 65.6032 46.9165 70.2002L44.3528 71.6367C44.3528 71.6367 34.0758 61.6913 27.5781 49.4695L27.9317 49.1159V49.0938Z" fill="#F37715"/>
<path d="M13.3441 13.2021C15.4658 16.5615 18.0074 19.6556 20.4606 22.7719C19.4218 24.8715 16.8139 26.2859 15.09 27.7667C14.0513 28.6728 13.1009 29.6011 12.0401 30.463C9.45428 28.6286 8.01773 25.5566 5.54242 23.5233C4.74679 22.8603 4.06165 22.8382 4.19426 21.8657C4.34897 20.827 6.13914 19.6114 6.86848 18.86C7.66411 18.0423 8.43763 17.2687 9.34377 16.5615L13.322 13.2021H13.3441Z" fill="#F37715"/>
<path d="M22.8242 7.081C24.6365 8.98168 26.4488 10.8161 27.819 13.1367C28.46 14.2196 29.4766 15.1921 30.4712 16.0098C34.0073 13.7555 38.2286 11.678 42.3394 10.8603C41.8089 9.57841 39.9967 8.69437 39.0463 7.63352C38.2949 6.79369 37.5877 5.88754 36.6815 5.20241C34.6703 3.69955 32.3497 3.27963 29.9407 3.81006C28.6589 4.09737 27.3328 4.38468 26.1615 5.0035L22.8684 7.05889L22.8242 7.081Z" fill="#F37715"/>
<path d="M18.4258 39.656C20.3486 36.9597 24.3267 33.8876 27.1115 31.9648C28.8574 33.5119 30.6034 35.1032 31.7748 37.1365C32.5704 38.5509 34.4269 40.8273 33.9186 42.4407C33.3439 44.2751 31.0233 45.9548 29.6089 47.1261C28.6585 47.8996 27.1336 50.0434 25.8296 49.734C24.6362 49.4467 23.5974 46.9714 22.9123 46.0653L18.4479 39.6781L18.4258 39.656Z" fill="#F37715"/>
<path d="M45.2345 33.6894C43.5991 30.0869 40.306 27.5895 38.2285 24.3628C40.2397 22.7273 42.6045 21.6002 45.0356 20.8045C46.1186 20.4509 47.953 19.5669 49.1022 19.8321C50.4725 20.1415 51.6438 22.1748 52.4837 23.1914C53.5445 24.4954 54.4948 25.9319 55.3347 27.3906C56.0198 28.562 56.3734 29.5786 55.9093 30.9268C53.1246 29.2692 49.7431 31.1699 47.2678 32.5843L45.2124 33.6894H45.2345Z" fill="#F37715"/>
<path d="M20.2174 22.8155C21.8529 20.937 24.6597 19.1247 26.8698 17.9754C27.6433 17.5776 30.1407 15.3012 30.6712 15.8979C32.174 17.6439 35.3566 20.738 36.7268 22.484C37.3457 23.2576 38.1413 23.6554 38.6717 24.4731C35.4229 26.8379 32.1961 29.4458 28.7263 31.4349C27.4002 32.2085 27.356 32.4516 26.251 31.2139C25.1017 29.91 24.1072 28.3629 23.0905 26.9484C22.4938 26.1086 21.9855 25.2025 21.3004 24.4289L20.1953 22.8376L20.2174 22.8155Z" fill="#F37715"/>
<path d="M68.7949 18.816C66.5406 18.5729 60.6617 20.584 59.1367 22.3963C61.5899 25.0042 64.1315 28.231 65.325 31.6787C68.3528 31.1704 71.1817 28.4299 74.4306 28.9382C73.8781 26.6176 72.9277 24.96 71.8006 23.1699L68.817 18.816H68.7949Z" fill="#F37715"/>
<path d="M70.3428 40.9391C68.4421 38.2206 67.0056 34.574 65.3038 31.6567C62.3644 31.6125 56.9717 35.1707 54.6953 36.9388C56.8612 39.3257 59.0271 43.1271 60.11 46.1328C61.6792 46.0886 63.3589 44.5857 64.7291 43.8343L70.3428 40.9391Z" fill="#F37715"/>
<path d="M52.9701 13.1582C55.0476 14.1527 56.7936 17.4016 57.8765 19.4349C58.3186 20.2747 59.1584 21.5124 59.4015 22.4406C57.8986 23.6562 55.6222 24.4297 53.9425 25.4463C52.9259 23.6783 51.5335 21.6008 50.3843 19.9211C49.8981 19.1918 49.5224 18.3298 48.9919 17.6447C48.6604 17.2248 48.13 16.9596 47.9753 16.407C47.5996 15.2136 49.9865 14.3959 50.981 13.7328L52.9701 13.1582Z" fill="#F37715"/>
<path d="M54.1866 34.6621C54.4297 35.2588 54.8496 35.8114 55.1369 36.4081C55.2474 36.6291 55.3137 36.8501 55.4242 37.049C54.7833 37.2258 54.1866 37.6457 53.5898 37.9331C53.192 38.1099 52.7279 38.1762 52.3301 38.3751L54.1866 34.6621Z" fill="#F37715"/>
<path d="M20.7041 3.6543C19.9085 3.6543 19.9085 4.91405 20.7041 4.91405C21.4998 4.91405 21.4998 3.6543 20.7041 3.6543Z" fill="#F37715"/>
<path d="M38.2287 1.77587C32.6814 -1.40667 27.7971 0.206701 22.2497 2.5715C21.5204 2.88092 22.1392 3.96387 22.8907 3.65446C27.9297 1.51066 32.4604 -0.0806092 37.6099 2.85882C38.3171 3.25664 38.936 2.17369 38.2508 1.77587H38.2287Z" fill="#F37715"/>
<path d="M40.7714 3.45567C40.5724 3.25676 40.3514 3.05785 40.1083 2.92525C39.4011 2.52743 38.7823 3.61038 39.4674 4.0082C39.6221 4.0966 39.7326 4.2071 39.8652 4.33971C40.4399 4.91433 41.3239 4.0303 40.7493 3.45567H40.7714Z" fill="#F37715"/>
<path d="M42.2295 5.04688C41.4339 5.04688 41.4339 6.28453 42.2295 6.28453C43.0252 6.28453 43.0252 5.04688 42.2295 5.04688Z" fill="#F37715"/>
<path d="M57.1917 50.6635C55.3131 51.6138 53.4346 52.7631 51.3129 53.0946C48.9923 53.4482 47.5115 52.5642 45.9423 50.995C45.2572 50.3099 44.771 49.9563 44.0195 49.249C44.1742 49.9784 44.4394 50.553 44.6384 50.9729C44.9036 51.5475 45.2351 52.078 45.6771 52.52C46.539 53.4703 47.7104 54.0891 48.9922 54.3101C52.1969 54.8406 55.0921 53.1167 57.8105 51.7464C58.5399 51.3707 57.8989 50.3099 57.1696 50.6635H57.1917Z" fill="#F37715"/>
<path d="M60.1544 49.1378C59.9997 49.2925 59.8671 49.3588 59.6461 49.3588C58.8504 49.3809 58.8283 50.6407 59.6461 50.6186C60.1986 50.6186 60.6406 50.4197 61.0384 50.0218C61.613 49.4693 60.729 48.5853 60.1544 49.1378Z" fill="#F37715"/>
<path d="M63.5567 47.2148C62.7389 47.2148 62.7389 48.4746 63.5567 48.4746C64.3744 48.4746 64.3523 47.2148 63.5567 47.2148Z" fill="#F37715"/>
<path d="M57.1045 7.89844C56.3089 7.89844 56.3089 9.13609 57.1045 9.13609C57.9002 9.13609 57.9223 7.89844 57.1045 7.89844Z" fill="#F37715"/>
<path d="M64.9498 8.89235C63.5574 7.721 61.8778 7.25688 60.0655 7.36738C59.2698 7.41159 59.2698 8.67134 60.0655 8.62714C61.5241 8.53874 62.9165 8.82605 64.0658 9.79849C64.6846 10.3068 65.5686 9.44487 64.9498 8.91445V8.89235Z" fill="#F37715"/>
<path d="M66.8067 10.3281C65.9889 10.3281 65.9889 11.5879 66.8067 11.5879C67.6244 11.5879 67.6023 10.3281 66.8067 10.3281Z" fill="#F37715"/>
<path d="M12.1488 34.441C11.6625 33.7779 11.1321 33.1149 10.6238 32.474C9.25352 30.7722 7.72856 29.203 5.98258 27.8991C5.34165 27.4129 4.70072 28.4958 5.34165 28.982C7.02133 30.2197 8.45789 31.7667 9.76185 33.3801C10.8448 34.7283 12.3035 36.5627 13.9168 37.292C13.5632 36.3195 12.7676 35.3692 12.3919 34.7946C12.3035 34.6841 12.2372 34.5515 12.1488 34.441Z" fill="#F37715"/>
<path d="M3.63969 25.9316C2.84406 25.9316 2.84406 27.1914 3.63969 27.1914C4.43533 27.1914 4.43533 25.9316 3.63969 25.9316Z" fill="#F37715"/>
<path d="M38.0733 73.7363C37.2777 73.7363 37.2777 74.9961 38.0733 74.9961C38.8689 74.9961 38.891 73.7363 38.0733 73.7363Z" fill="#F37715"/>
<path d="M36.9701 71.6806C34.3622 68.3875 31.0471 62.5971 28.2402 59.5029C30.0083 63.5695 33.5003 69.3379 36.0861 72.5646C36.5944 73.2055 37.4563 72.2994 36.9701 71.6806Z" fill="#F37715"/>
</svg>
