<svg width="35" height="34" viewBox="0 0 35 34" fill="none" xmlns="http://www.w3.org/2000/svg">
<path d="M17.0723 7C11.5503 7 7.07227 11.478 7.07227 17C7.07227 22.522 11.5503 27 17.0723 27C22.5943 27 27.0723 22.522 27.0723 17C27.0723 11.478 22.5943 7 17.0723 7ZM17.0723 9.478C20.3943 9.478 23.2203 11.644 24.2123 14.636H9.93227C10.9243 11.642 13.7503 9.478 17.0723 9.478ZM9.55027 17H12.4563L12.8223 18.718C12.8603 18.902 12.9183 19.078 12.9883 19.244L10.9163 21.316C10.0563 20.094 9.55027 18.604 9.55027 16.998V17ZM12.5603 23.014L14.7243 20.85C15.0123 20.946 15.3203 20.998 15.6363 20.998H18.5023C18.8203 20.998 19.1263 20.946 19.4143 20.85L21.5783 23.014C20.3203 23.96 18.7583 24.52 17.0683 24.52C15.3783 24.52 13.8143 23.958 12.5583 23.014H12.5603ZM23.2263 21.316L21.1543 19.244C21.2263 19.076 21.2823 18.9 21.3203 18.718L21.6863 17H24.5923C24.5923 18.606 24.0863 20.094 23.2263 21.318V21.316Z" fill="#F37715"/>
</svg>
