<svg width="75" height="70" viewBox="0 0 75 70" fill="none" xmlns="http://www.w3.org/2000/svg">
<path opacity="0.6" d="M42.8615 40.5404C43.9983 37.7389 44.7291 35.9321 46.1705 33.6788C46.5156 33.1306 48.6269 31.4863 47.8351 31.0396C46.9013 30.5321 43.5111 32.8261 42.7194 33.293C41.5825 33.9427 40.7096 34.9171 39.7148 35.7697C40.5269 37.1502 40.872 38.3479 41.9276 39.5254L42.8615 40.5607V40.5404Z" fill="#F37715"/>
<path d="M2.99198 19.6718C8.75739 13.8658 14.8882 7.97855 22.4807 4.64923C26.3581 2.94397 29.7687 1.70562 33.5852 4.1214C38.9852 7.53193 42.4972 12.262 46.2325 17.1951C48.425 20.0981 51.2874 23.4274 51.6325 27.2236C47.5927 19.7936 35.2092 6.09057 31.0273 4.54772C29.2205 3.87779 26.0942 4.58833 24.0032 5.62366C19.3747 7.87704 16.7559 9.29809 12.7566 12.4853C10.0972 14.5966 6.4634 17.9868 4.92055 21.0928L2.97168 19.6921L2.99198 19.6718Z" fill="#F37715"/>
<path d="M23.6562 45.8599C28.8329 40.1757 36.2833 33.3952 43.2059 29.9644C44.5254 29.3148 49.3976 26.7975 51.0013 27.508C52.9705 28.4012 50.8592 31.4666 50.1893 32.6441C48.8089 35.1208 44.769 42.429 45.9668 45.5757C46.8194 47.7884 56.1577 41.211 58.9186 39.729C65.76 36.0343 70.957 34.7554 74.4284 36.7245C66.4096 36.9884 63.9735 38.1253 54.5946 43.9922C51.7525 45.7787 43.9976 50.5493 43.8758 44.6621C43.7743 39.8102 47.7938 34.2884 49.8645 30.2689C50.9201 28.2388 48.8292 28.9696 46.8803 29.6802C43.2871 30.9794 39.5314 33.517 36.5878 35.9125C32.5074 39.2418 28.0412 43.1599 24.2856 46.8343L23.6562 45.8802V45.8599Z" fill="#F37715"/>
<path d="M43.3486 13.9474C48.0787 10.9226 55.6306 6.5985 60.2592 11.7955C64.5832 16.6474 67.5471 22.7985 70.4907 28.5436C71.7088 30.9391 73.3937 33.4767 73.5764 36.2173C71.7697 34.4511 70.8155 32.2992 69.8817 29.9647C68.3592 26.2496 66.593 23.3466 64.6441 19.8955C62.0253 15.2466 58.8178 9.197 52.484 11.0241C49.8652 11.7752 46.5561 13.3384 44.7088 15.4496L43.3892 13.9677L43.3486 13.9474Z" fill="#F37715"/>
<path d="M37.2575 34.8164C38.171 36.4405 40.8913 40.46 41.6222 41.4141C42.6575 42.754 43.7334 43.8908 44.85 45.1495C45.3575 45.7179 46.7379 46.672 46.7582 47.4841C44.9312 48.1743 42.3733 44.642 41.5613 43.4036C40.3026 41.4751 39.044 39.4856 37.7853 37.557C36.8312 36.075 37.2372 34.8367 37.2372 34.8367L37.2575 34.8164Z" fill="#F37715"/>
<path d="M1.793 17.4388C0.879466 16.8095 0.0268321 18.2508 0.980967 18.6975C1.9351 19.1441 9.36518 26.1275 19.3734 41.0486C29.3817 55.9696 36.223 66.4854 37.2381 67.8861C38.2734 69.2869 39.8163 69.5711 40.9937 68.5561C42.1712 67.5207 44.1606 65.1658 43.2674 64.5771C42.3742 63.9884 39.4509 64.1305 37.9689 66.5666C37.9689 66.5666 25.9915 48.5395 20.9163 41.1907C15.8411 33.8418 8.41104 22.0065 1.793 17.4388Z" fill="#F37715"/>
<path d="M25.8092 45.1895C25.8092 45.1895 36.0002 60.3541 43.2475 64.5767L40.8926 65.8962C40.8926 65.8962 31.4528 56.7609 25.4844 45.5346L25.8092 45.2098V45.1895Z" fill="#F37715"/>
<path d="M12.4099 12.2217C14.3588 15.3074 16.6934 18.1495 18.9468 21.0119C17.9926 22.9405 15.5971 24.2397 14.0137 25.5999C13.0595 26.4322 12.1866 27.2848 11.2122 28.0766C8.83698 26.3916 7.51744 23.5698 5.24376 21.7021C4.51293 21.0931 3.88361 21.0728 4.00541 20.1796C4.14752 19.2254 5.79188 18.1089 6.4618 17.4187C7.19263 16.6675 7.90314 15.957 8.73547 15.3074L12.3896 12.2217H12.4099Z" fill="#F37715"/>
<path d="M21.1191 6.59847C22.7838 8.34433 24.4485 10.0293 25.7071 12.1609C26.2958 13.1556 27.2297 14.0488 28.1432 14.8C31.3913 12.7293 35.2687 10.821 39.0447 10.0699C38.5575 8.89245 36.8928 8.08042 36.0199 7.10598C35.3296 6.33456 34.68 5.50222 33.8477 4.8729C32.0003 3.49245 29.8687 3.10674 27.656 3.59396C26.4785 3.85787 25.2605 4.12177 24.1845 4.69019L21.1597 6.57816L21.1191 6.59847Z" fill="#F37715"/>
<path d="M17.0781 36.5212C18.8443 34.0445 22.4984 31.2227 25.0563 29.4565C26.6601 30.8776 28.2638 32.3393 29.3398 34.2069C30.0706 35.5062 31.7759 37.5971 31.3089 39.0791C30.7811 40.7641 28.6496 42.3069 27.3503 43.3829C26.4774 44.0934 25.0766 46.0625 23.8789 45.7783C22.7826 45.5144 21.8285 43.2407 21.1992 42.4084L17.0984 36.5415L17.0781 36.5212Z" fill="#F37715"/>
<path d="M41.7029 31.0396C40.2007 27.7305 37.1758 25.4366 35.2676 22.4727C37.1149 20.9704 39.2871 19.9351 41.5202 19.2042C42.5149 18.8794 44.1999 18.0674 45.2556 18.311C46.5142 18.5952 47.5901 20.4629 48.3616 21.3967C49.336 22.5945 50.2089 23.914 50.9804 25.2539C51.6097 26.3298 51.9345 27.2636 51.5082 28.502C48.9503 26.9794 45.8443 28.7253 43.5706 30.0245L41.6826 31.0396H41.7029Z" fill="#F37715"/>
<path d="M18.7244 21.0516C20.2267 19.326 22.8048 17.6614 24.8349 16.6058C25.5454 16.2403 27.8394 14.1494 28.3266 14.6975C29.7071 16.3012 32.6304 19.1433 33.889 20.7471C34.4575 21.4576 35.1883 21.823 35.6755 22.5742C32.6913 24.7463 29.7274 27.1418 26.5402 28.9689C25.3221 29.6794 25.2815 29.9027 24.2665 28.7659C23.2109 27.5682 22.2973 26.1471 21.3635 24.8479C20.8154 24.0764 20.3485 23.2441 19.7191 22.5336L18.7041 21.0719L18.7244 21.0516Z" fill="#F37715"/>
<path d="M63.3441 17.3778C61.2734 17.1545 55.8734 19.0019 54.4727 20.6665C56.726 23.062 59.0606 26.0259 60.1569 29.1928C62.9381 28.7259 65.5366 26.2086 68.5208 26.6755C68.0132 24.544 67.1403 23.0214 66.105 21.3771L63.3644 17.3778H63.3441Z" fill="#F37715"/>
<path d="M64.7655 37.6986C63.0196 35.2016 61.7001 31.8519 60.1369 29.1722C57.4369 29.1316 52.4836 32.4001 50.3926 34.0241C52.3821 36.2166 54.3715 39.7083 55.3663 42.4692C56.8076 42.4286 58.3505 41.0482 59.6091 40.358L64.7655 37.6986Z" fill="#F37715"/>
<path d="M48.809 12.1812C50.7173 13.0947 52.3211 16.0789 53.3158 17.9466C53.7218 18.718 54.4933 19.8548 54.7166 20.7075C53.3361 21.824 51.2451 22.5345 49.7023 23.4684C48.7684 21.8443 47.4895 19.936 46.4338 18.3932C45.9872 17.7233 45.6421 16.9315 45.1549 16.3022C44.8504 15.9165 44.3632 15.6729 44.2211 15.1654C43.876 14.0691 46.0684 13.318 46.982 12.709L48.809 12.1812Z" fill="#F37715"/>
<path d="M49.9269 31.9336C50.1502 32.4817 50.536 32.9892 50.7999 33.5374C50.9014 33.7404 50.9623 33.9434 51.0638 34.1261C50.4751 34.2885 49.9269 34.6742 49.3788 34.9381C49.0134 35.1005 48.5871 35.1614 48.2217 35.3441L49.9269 31.9336Z" fill="#F37715"/>
<path d="M19.1712 3.45117C18.4403 3.45117 18.4403 4.60831 19.1712 4.60831C19.902 4.60831 19.902 3.45117 19.1712 3.45117Z" fill="#F37715"/>
<path d="M35.2688 1.72594C30.1733 -1.19736 25.6868 0.284591 20.5913 2.45677C19.9214 2.74098 20.4898 3.73572 21.1801 3.45151C25.8086 1.48234 29.9703 0.0206834 34.7004 2.72068C35.35 3.08609 35.9184 2.09136 35.2891 1.72594H35.2688Z" fill="#F37715"/>
<path d="M37.6038 3.2692C37.4211 3.08649 37.2181 2.90378 36.9948 2.78198C36.3452 2.41657 35.7767 3.41131 36.4061 3.77672C36.5482 3.85792 36.6497 3.95942 36.7715 4.08123C37.2993 4.60905 38.1113 3.79702 37.5835 3.2692H37.6038Z" fill="#F37715"/>
<path d="M38.9427 4.73047C38.2118 4.73047 38.2118 5.86731 38.9427 5.86731C39.6735 5.86731 39.6735 4.73047 38.9427 4.73047Z" fill="#F37715"/>
<path d="M52.6862 46.6313C50.9606 47.5042 49.235 48.5598 47.2862 48.8644C45.1546 49.1892 43.7944 48.3771 42.3531 46.9358C41.7238 46.3065 41.2771 45.9817 40.5869 45.332C40.729 46.002 40.9726 46.5298 41.1553 46.9155C41.3989 47.4433 41.7035 47.9305 42.1095 48.3365C42.9012 49.2095 43.9771 49.7779 45.1546 49.9809C48.0982 50.4681 50.7576 48.8847 53.2546 47.626C53.9245 47.2809 53.3358 46.3065 52.6658 46.6313H52.6862Z" fill="#F37715"/>
<path d="M55.4074 45.2305C55.2653 45.3726 55.1435 45.4335 54.9405 45.4335C54.2097 45.4538 54.1894 46.611 54.9405 46.5907C55.448 46.5907 55.854 46.4079 56.2194 46.0425C56.7473 45.535 55.9353 44.723 55.4074 45.2305Z" fill="#F37715"/>
<path d="M58.5331 43.4639C57.7819 43.4639 57.7819 44.621 58.5331 44.621C59.2842 44.621 59.2639 43.4639 58.5331 43.4639Z" fill="#F37715"/>
<path d="M52.6057 7.34961C51.8749 7.34961 51.8749 8.48645 52.6057 8.48645C53.3366 8.48645 53.3569 7.34961 52.6057 7.34961Z" fill="#F37715"/>
<path d="M59.8119 8.26245C58.533 7.18651 56.9901 6.7602 55.3255 6.8617C54.5946 6.9023 54.5946 8.05944 55.3255 8.01884C56.6653 7.93764 57.9443 8.20155 58.9999 9.09478C59.5683 9.5617 60.3804 8.76996 59.8119 8.28275V8.26245Z" fill="#F37715"/>
<path d="M61.5184 9.58203C60.7673 9.58203 60.7673 10.7392 61.5184 10.7392C62.2696 10.7392 62.2493 9.58203 61.5184 9.58203Z" fill="#F37715"/>
<path d="M11.3139 31.7301C10.8673 31.1211 10.38 30.5121 9.91311 29.9234C8.65447 28.3602 7.25372 26.9189 5.64996 25.7211C5.06124 25.2745 4.47252 26.2692 5.06124 26.7158C6.60409 27.8527 7.92364 29.2737 9.12139 30.7557C10.1161 31.994 11.456 33.679 12.9379 34.3489C12.6131 33.4557 11.8823 32.5828 11.5372 32.0549C11.456 31.9534 11.3951 31.8316 11.3139 31.7301Z" fill="#F37715"/>
<path d="M3.49734 23.9146C2.76651 23.9146 2.76651 25.0717 3.49734 25.0717C4.22817 25.0717 4.22817 23.9146 3.49734 23.9146Z" fill="#F37715"/>
<path d="M35.1262 67.8247C34.3954 67.8247 34.3954 68.9818 35.1262 68.9818C35.8571 68.9818 35.8774 67.8247 35.1262 67.8247Z" fill="#F37715"/>
<path d="M34.1116 65.9367C31.7161 62.9119 28.671 57.5931 26.0928 54.751C27.7168 58.4863 30.9244 63.7848 33.2995 66.7487C33.7665 67.3374 34.5582 66.5051 34.1116 65.9367Z" fill="#F37715"/>
</svg>
