<svg width="34" height="26" viewBox="0 0 34 26" fill="none" xmlns="http://www.w3.org/2000/svg">
<path fill-rule="evenodd" clip-rule="evenodd" d="M0.94233 13.7462C0.534521 13.5249 0.378339 13.0173 0.599597 12.6052C0.820855 12.1931 1.32845 12.0412 1.74059 12.2625L8.30025 15.8069C8.70806 16.0282 8.86424 16.5358 8.64298 16.9479C8.54754 17.1215 8.40437 17.2516 8.23517 17.321L6.94233 17.8807C8.78181 18.7397 11.6148 20.0759 12.8642 20.744C14.1484 21.4338 15.2287 21.9327 16.0616 22.3189C16.4217 22.4837 16.7384 22.6312 17.0291 22.7744C17.4456 22.9783 17.6191 23.4859 17.4109 23.9024C17.207 24.3189 16.6994 24.4924 16.2829 24.2842C16.0399 24.1627 15.7189 24.0152 15.3545 23.846C14.5215 23.4599 13.4412 22.9609 12.0703 22.2234C10.2916 21.269 5.16359 18.9046 4.58224 18.6356C4.374 18.5575 4.19613 18.397 4.10068 18.18C3.91847 17.7505 4.1137 17.256 4.5432 17.0737L5.97053 16.4577L0.94233 13.7419L0.94233 13.7462Z" fill="#F37715"/>
<path fill-rule="evenodd" clip-rule="evenodd" d="M1.74508 13.7463C1.33727 13.9675 0.82534 13.8157 0.599744 13.4079C0.378486 13.0001 0.53033 12.4881 0.938139 12.2625L5.81883 9.61613L4.47827 8.89596C4.07046 8.67904 3.91428 8.17144 4.1312 7.75929C4.2223 7.5901 4.36113 7.46429 4.52165 7.39053C4.53901 7.38186 10.1789 4.7875 12.0618 3.77665C13.0379 3.2517 13.7668 2.89161 14.3568 2.62697C14.9728 2.35365 15.4327 2.17578 15.8666 2.02828C16.3091 1.88077 16.7863 2.11505 16.9338 2.55756C17.0813 2.99574 16.847 3.4773 16.4045 3.6248C16.0054 3.7593 15.5802 3.91982 15.0423 4.16277C14.4783 4.41439 13.7841 4.75712 12.8514 5.25604C11.5585 5.95018 8.57805 7.35148 6.74725 8.20615L7.91862 8.83521C8.08781 8.90897 8.23098 9.03478 8.32643 9.20832C8.54768 9.61613 8.39584 10.1281 7.98803 10.3493L1.7364 13.7419L1.74508 13.7463Z" fill="#F37715"/>
<path fill-rule="evenodd" clip-rule="evenodd" d="M15.8275 24.0325C15.411 23.8286 15.2332 23.3254 15.4371 22.9046C15.641 22.4837 16.1442 22.3102 16.565 22.5141C17.2765 22.8612 18.0314 23.1302 18.8123 23.3124C19.5716 23.4859 20.3698 23.577 21.1941 23.577C24.1139 23.577 26.7603 22.3926 28.6735 20.4794C30.5867 18.5662 31.7711 15.9197 31.7711 13C31.7711 10.0803 30.5867 7.43384 28.6735 5.52061C26.7603 3.60738 24.1139 2.423 21.1941 2.423C20.244 2.423 19.3286 2.54881 18.4566 2.77875C17.5542 3.01736 16.7039 3.37311 15.9186 3.8243C15.5152 4.05424 15.0032 3.91541 14.7733 3.51627C14.5434 3.1128 14.6822 2.60087 15.0813 2.37094C15.9967 1.84166 16.9859 1.42951 18.0271 1.15185C19.0423 0.882871 20.1008 0.735362 21.1898 0.735362C24.5781 0.735362 27.641 2.10629 29.8622 4.32755C32.0835 6.54881 33.4544 9.61172 33.4544 13C33.4544 16.3883 32.0835 19.4512 29.8622 21.6725C27.641 23.8894 24.5781 25.2646 21.1898 25.2646C20.2483 25.2646 19.3243 25.1562 18.4349 24.9523C17.5195 24.7397 16.6431 24.4317 15.8232 24.0325L15.8275 24.0325Z" fill="#F37715"/>
<path fill-rule="evenodd" clip-rule="evenodd" d="M0.94233 13.7462C0.534521 13.5249 0.378339 13.0173 0.599597 12.6052C0.820855 12.1931 1.32845 12.0412 1.74059 12.2625L8.30025 15.8069C8.70806 16.0282 8.86424 16.5358 8.64298 16.9479C8.54754 17.1215 8.40437 17.2516 8.23517 17.321L6.94233 17.8807C8.78181 18.7397 11.6148 20.0759 12.8642 20.744C14.1484 21.4338 15.2287 21.9327 16.0616 22.3189C16.4217 22.4837 16.7384 22.6312 17.0291 22.7744C17.4456 22.9783 17.6191 23.4859 17.4109 23.9024C17.207 24.3189 16.6994 24.4924 16.2829 24.2842C16.0399 24.1627 15.7189 24.0152 15.3545 23.846C14.5215 23.4599 13.4412 22.9609 12.0703 22.2234C10.2916 21.269 5.16359 18.9046 4.58224 18.6356C4.374 18.5575 4.19613 18.397 4.10068 18.18C3.91847 17.7505 4.1137 17.256 4.5432 17.0737L5.97053 16.4577L0.94233 13.7419L0.94233 13.7462Z" fill="#F37715"/>
<path fill-rule="evenodd" clip-rule="evenodd" d="M1.74508 13.7463C1.33727 13.9675 0.82534 13.8157 0.599744 13.4079C0.378486 13.0001 0.53033 12.4881 0.938139 12.2625L5.81883 9.61613L4.47827 8.89596C4.07046 8.67904 3.91428 8.17144 4.1312 7.75929C4.2223 7.5901 4.36113 7.46429 4.52165 7.39053C4.53901 7.38186 10.1789 4.7875 12.0618 3.77665C13.0379 3.2517 13.7668 2.89161 14.3568 2.62697C14.9728 2.35365 15.4327 2.17578 15.8666 2.02828C16.3091 1.88077 16.7863 2.11505 16.9338 2.55756C17.0813 2.99574 16.847 3.4773 16.4045 3.6248C16.0054 3.7593 15.5802 3.91982 15.0423 4.16277C14.4783 4.41439 13.7841 4.75712 12.8514 5.25604C11.5585 5.95018 8.57805 7.35148 6.74725 8.20615L7.91862 8.83521C8.08781 8.90897 8.23098 9.03478 8.32643 9.20832C8.54768 9.61613 8.39584 10.1281 7.98803 10.3493L1.7364 13.7419L1.74508 13.7463Z" fill="#F37715"/>
<path fill-rule="evenodd" clip-rule="evenodd" d="M15.8275 24.0325C15.411 23.8286 15.2332 23.3254 15.4371 22.9046C15.641 22.4837 16.1442 22.3102 16.565 22.5141C17.2765 22.8612 18.0314 23.1302 18.8123 23.3124C19.5716 23.4859 20.3698 23.577 21.1941 23.577C24.1139 23.577 26.7603 22.3926 28.6735 20.4794C30.5867 18.5662 31.7711 15.9197 31.7711 13C31.7711 10.0803 30.5867 7.43384 28.6735 5.52061C26.7603 3.60738 24.1139 2.423 21.1941 2.423C20.244 2.423 19.3286 2.54881 18.4566 2.77875C17.5542 3.01736 16.7039 3.37311 15.9186 3.8243C15.5152 4.05424 15.0032 3.91541 14.7733 3.51627C14.5434 3.1128 14.6822 2.60087 15.0813 2.37094C15.9967 1.84166 16.9859 1.42951 18.0271 1.15185C19.0423 0.882871 20.1008 0.735362 21.1898 0.735362C24.5781 0.735362 27.641 2.10629 29.8622 4.32755C32.0835 6.54881 33.4544 9.61172 33.4544 13C33.4544 16.3883 32.0835 19.4512 29.8622 21.6725C27.641 23.8894 24.5781 25.2646 21.1898 25.2646C20.2483 25.2646 19.3243 25.1562 18.4349 24.9523C17.5195 24.7397 16.6431 24.4317 15.8232 24.0325L15.8275 24.0325Z" fill="#F37715"/>
<path fill-rule="evenodd" clip-rule="evenodd" d="M23.0295 11.1477C23.5197 11.1477 23.9189 11.5469 23.9189 12.0371C23.9189 12.5273 23.5197 12.9265 23.0295 12.9265H18.3874C17.8972 12.9265 17.498 12.5273 17.498 12.0371C17.498 11.5469 17.8972 11.1477 18.3874 11.1477H23.0295Z" fill="#F37715"/>
<path fill-rule="evenodd" clip-rule="evenodd" d="M23.0295 8.73535C23.5197 8.73535 23.9189 9.13448 23.9189 9.62472C23.9189 10.115 23.5197 10.5141 23.0295 10.5141H18.3874C17.8972 10.5141 17.498 10.115 17.498 9.62472C17.498 9.13448 17.8972 8.73535 18.3874 8.73535H23.0295Z" fill="#F37715"/>
<path fill-rule="evenodd" clip-rule="evenodd" d="M19.8236 12.5358C19.8236 12.0455 20.2227 11.6464 20.713 11.6464C21.2032 11.6464 21.6023 12.0455 21.6023 12.5358V16.8828C21.6023 17.3731 21.2032 17.7722 20.713 17.7722C20.2227 17.7722 19.8236 17.3731 19.8236 16.8828V12.5358Z" fill="#F37715"/>
<path fill-rule="evenodd" clip-rule="evenodd" d="M23.0295 11.1477C23.5197 11.1477 23.9189 11.5469 23.9189 12.0371C23.9189 12.5273 23.5197 12.9265 23.0295 12.9265H18.3874C17.8972 12.9265 17.498 12.5273 17.498 12.0371C17.498 11.5469 17.8972 11.1477 18.3874 11.1477H23.0295Z" fill="#F37715"/>
<path fill-rule="evenodd" clip-rule="evenodd" d="M23.0295 8.73535C23.5197 8.73535 23.9189 9.13448 23.9189 9.62472C23.9189 10.115 23.5197 10.5141 23.0295 10.5141H18.3874C17.8972 10.5141 17.498 10.115 17.498 9.62472C17.498 9.13448 17.8972 8.73535 18.3874 8.73535H23.0295Z" fill="#F37715"/>
<path fill-rule="evenodd" clip-rule="evenodd" d="M19.8236 12.5358C19.8236 12.0455 20.2227 11.6464 20.713 11.6464C21.2032 11.6464 21.6023 12.0455 21.6023 12.5358V16.8828C21.6023 17.3731 21.2032 17.7722 20.713 17.7722C20.2227 17.7722 19.8236 17.3731 19.8236 16.8828V12.5358Z" fill="#F37715"/>
<path fill-rule="evenodd" clip-rule="evenodd" d="M20.8863 5.42299C18.7605 5.42299 16.8343 6.28633 15.4416 7.67895C14.049 9.07158 13.1857 10.9978 13.1857 13.1236C13.1857 15.2495 14.049 17.1757 15.4416 18.5683C16.8343 19.9609 18.7605 20.8243 20.8863 20.8243C23.0121 20.8243 24.9384 19.9609 26.331 18.5683C27.7236 17.1757 28.587 15.2495 28.587 13.1236C28.587 10.9978 27.7236 9.07158 26.331 7.67895C24.9384 6.28633 23.0121 5.42299 20.8863 5.42299ZM14.2486 6.48589C15.9492 4.78524 18.292 3.73535 20.8863 3.73535C23.4807 3.73535 25.8234 4.78524 27.5241 6.48589C29.2247 8.18654 30.2746 10.5336 30.2746 13.1236C30.2746 15.7137 29.2247 18.0607 27.5241 19.7614C25.8234 21.462 23.4807 22.5119 20.8863 22.5119C18.292 22.5119 15.9492 21.462 14.2486 19.7614C12.5479 18.0651 11.498 15.718 11.498 13.1236C11.498 10.5293 12.5479 8.18654 14.2486 6.48589Z" fill="white"/>
</svg>
