<svg width="60" height="40" viewBox="0 0 60 40" fill="none" xmlns="http://www.w3.org/2000/svg">
<path d="M58.5737 36.6445C57.6459 37.7404 56.6567 37.4758 55.6319 37.6397C55.949 38.2867 56.3274 37.8463 56.6297 38.664C55.9551 38.7562 55.3604 39.0839 54.7521 38.9798C52.9015 38.6572 51.0485 38.4472 49.1954 38.3755C47.7688 38.3174 46.3409 38.1945 44.9204 37.9436C42.3719 37.498 39.8197 37.6073 37.2711 37.3888C34.9032 37.1822 32.5304 37.2129 30.1601 37.1822C29.9094 37.2198 29.6587 37.288 29.4105 37.4468H18.0023C17.2466 36.9756 16.4724 37.2078 15.7106 37.0559C15.0753 36.9347 14.4412 37.0354 13.8059 37.09V4.37815C14.3466 4.3662 14.8909 4.36619 15.4353 4.37473C17.8597 4.42594 20.2879 4.41228 22.7123 4.40375C22.7663 4.19719 22.8302 4.03331 22.9052 3.91722C19.8701 3.74139 16.8374 3.32485 13.8047 3.32997V2.4986C15.5103 2.41837 17.2183 2.46105 18.9263 2.55323C21.0669 2.6659 23.2075 2.86051 25.3456 2.81442C25.3124 2.67956 25.2915 2.53275 25.3063 2.33984H28.3058C28.194 2.52421 28.0699 2.60103 27.9458 2.642C28.8526 2.57883 29.7632 2.56689 30.6663 2.37228V3.39655C31.0055 3.64921 31.3581 3.69017 31.7157 3.69017C35.0359 3.67822 38.3525 3.73286 41.669 3.66457C44.7042 3.60653 47.7369 3.80797 50.7609 4.40034C52.8044 4.79981 54.8516 5.14805 56.8988 5.45022C57.1016 5.47924 57.2982 5.57996 57.4886 5.97943C57.2109 6.41987 56.9172 5.78652 56.6666 6.39937C57.1077 6.73568 57.5218 6.85347 57.9458 6.932C58.0637 6.95248 58.3685 6.94395 58.2517 7.48169C58.0944 8.20893 58.2997 8.09967 58.4029 8.17479C58.962 8.60327 59.4707 9.48927 59.9991 9.50976C58.2247 10.2575 56.3827 9.27929 54.4633 9.53024C55.5975 10.097 56.6494 10.6262 57.7012 11.152C57.1839 12.1677 56.6309 11.21 56.0448 11.7273C56.2205 11.8536 56.3201 11.9458 56.4257 11.9919C56.7342 12.1302 57.163 12.1763 57.1569 13.134C57.1544 13.7298 56.7342 14.0951 56.3225 14.2556C56.6187 14.4229 56.8067 14.5287 56.9971 14.6465C57.1003 14.7096 57.2392 14.7592 57.2453 15.0835C57.2539 15.5837 57.0758 15.512 56.9701 15.5035C56.5412 15.4779 56.1112 15.4027 55.6823 15.3481C56.3655 16.2392 57.0758 16.7975 57.8438 17.0416C56.8878 18.2349 55.8691 17.4496 54.9954 18.129C55.1158 19.2045 55.4365 19.6415 55.8482 19.7371C55.5484 19.8464 55.2645 19.8293 54.9831 19.8549C54.8627 19.8634 54.7054 19.8669 54.6931 20.309C54.6845 20.7495 54.8357 20.8041 54.9561 20.8758C55.3911 21.1284 55.8273 21.3708 56.2623 21.615C55.8273 22.3422 55.3063 21.5723 54.8688 22.5095C55.5398 22.8748 56.1689 23.148 56.7342 24.0083H51.5191C51.685 24.6502 51.9369 24.2525 51.9455 24.7356C51.9541 25.3023 51.7243 25.2767 51.5855 25.3997C51.47 25.5004 51.3139 25.5806 51.223 25.4457C50.7609 24.7441 50.3518 25.3826 49.929 25.7138C50.7302 25.8981 51.5289 25.9784 52.3301 26.091C52.6988 26.1457 52.6177 25.0702 52.829 24.7475C52.7713 24.6724 52.7147 24.5956 52.63 24.4863C52.8597 24.3105 53.0527 24.3856 53.2136 24.7049C53.4311 25.1368 53.9153 24.6929 53.9005 25.427C53.8821 26.3591 53.4053 25.4645 53.1239 26.2088C54.1758 26.3932 55.1502 26.8131 56.1026 27.6838C55.6098 29.0614 54.9991 28.6244 54.44 28.7849C55.3407 29.0068 55.3714 29.0409 55.6737 30.4476C53.3549 30.6405 51.0817 29.7511 48.7899 30.0823C48.8833 30.4135 48.9988 30.3008 49.0984 30.3042C51.2758 30.3674 53.4274 31.3831 55.5987 31.716C55.8679 31.7587 56.3692 31.3678 56.3631 32.2742C56.3606 33.0015 55.8433 32.6447 55.5594 32.6566C54.8062 32.6942 54.0541 32.7864 53.2923 32.66C55.1183 33.4283 56.8091 35.3607 58.5798 36.6428L58.5737 36.6445Z" fill="#F37715"/>
<path d="M3.83196 10.3318C4.01145 11.1285 3.77555 11.281 3.50376 11.5597C3.35249 11.7179 3.12557 11.7443 2.92942 11.7914C2.13713 11.9816 1.34228 12.1718 0.535885 12.2038C0.864083 12.3376 1.19228 12.4129 1.51663 12.4317C2.2679 12.4732 3.02429 12.3997 3.75632 12.701C4.05632 12.8253 4.58964 12.7519 4.564 13.2811C4.53579 13.9214 3.99991 13.7764 3.65889 13.8423C3.3371 13.9026 3.00634 13.8517 2.77558 14.2924C2.93583 14.5373 3.3089 14.2548 3.3089 14.7237C3.31146 15.1493 2.99352 15.1927 2.78199 15.3113C2.58327 15.4281 2.36918 15.4864 2.12944 15.5844C2.34354 15.7595 2.54866 15.6861 2.7384 15.7011C2.96532 15.72 3.17044 15.7934 3.36915 15.946C3.57684 16.1042 3.87042 16.1211 3.93709 16.5072C4.01273 16.9517 3.55889 16.7426 3.51787 17.2153C3.65633 17.3773 3.82684 17.5769 4.07939 17.8726C3.62556 17.8726 3.77299 18.5675 3.4512 18.6937C3.41274 18.7069 3.5653 18.916 3.6653 18.9536C3.93324 19.0553 4.22939 19.0704 4.46015 19.2644C5.35244 20.0064 6.31524 20.2832 7.32162 20.3943C7.58059 20.4226 7.8511 20.4414 8.08186 20.658C8.02546 20.6712 7.97161 20.6863 7.91777 20.7051C8.04084 20.8482 8.17032 20.9047 8.29596 20.9236C8.55108 21.2757 8.87031 21.4283 9.20748 21.5111C9.31517 21.5394 9.42158 21.562 9.52927 21.5846C9.4908 21.8671 9.22927 21.8991 9.0844 22.0611C9.04081 22.1082 8.99979 22.1534 8.9421 22.2136C9.21004 22.3812 9.49978 22.5564 9.41901 23.0517C9.34594 23.4736 9.05363 23.5527 8.79723 23.5847C8.23314 23.6544 7.66521 23.677 7.09727 23.7429C6.90497 23.7655 6.63959 23.7994 6.65241 24.193C6.66523 24.6092 6.94599 24.5678 7.12932 24.5357C7.96776 24.3738 8.52929 24.9105 8.89595 25.9727C8.98441 26.227 9.10748 26.3249 9.28696 26.3287C9.45106 26.3287 9.61772 26.3418 9.78182 26.3513C10.0472 26.3644 10.3754 26.4021 10.4062 26.8277C10.4446 27.3381 10.069 27.1987 9.86387 27.259C9.25491 27.4342 8.63954 27.5603 7.88572 27.7411C8.37801 27.8108 8.678 28.0331 8.91133 28.4361C9.08825 28.7374 9.34081 28.8297 9.58952 28.9182C9.75618 28.9747 10.0152 28.9144 10.0062 29.2798C9.99977 29.5585 9.76003 29.5397 9.61132 29.6131C9.54209 29.6452 9.47927 29.6866 9.4126 29.7243C9.44081 29.9842 9.72798 29.8636 9.68055 30.1593C9.63311 30.4512 9.44978 30.3589 9.31517 30.391C8.978 30.4644 8.55236 30.2158 8.3716 30.9936C8.80108 31.0124 9.12287 31.3552 9.45619 31.666C9.58824 31.7903 9.69849 31.9353 9.6767 32.1763C9.64465 32.4965 9.45234 32.4871 9.29209 32.5097C9.12799 32.5379 8.96133 32.5605 8.79979 32.5417C8.3357 32.4814 8.23827 32.9824 8.19725 33.4551C8.15622 33.9787 8.39596 34.3082 8.72672 34.4099C9.02928 34.5079 9.34465 34.521 9.65106 34.5813C9.85618 34.6284 10.0613 34.7056 10.0805 35.086C10.0959 35.425 10.0677 35.7395 9.80618 35.8789C9.63952 35.9712 9.45234 35.9994 9.44081 36.3742C9.42799 36.7773 9.68311 36.7999 9.81003 37.0051C9.86387 37.0936 9.97669 37.1445 10.0587 37.1351C11.3613 36.9731 12.651 37.4741 13.9445 37.3196C16.9791 36.9637 20.0098 36.8846 23.0572 37.0503C25.8135 37.2085 28.5737 37.7038 31.3441 37.2594C31.7416 37.1953 36.4021 37.2217 36.8098 37.2876L36.8098 2.23172C36.5444 2.2223 32.0326 2.25432 31.7698 2.35602C30.8198 2.72703 29.8493 2.77223 28.8929 2.97186C26.3725 3.50484 23.852 3.04531 21.3482 2.56318C19.6983 2.24867 18.065 1.75148 16.4112 1.46898C14.3958 1.12057 12.392 0.606425 10.3639 0.412444C9.80618 0.361595 9.23184 0.301329 8.6921 -3.79944e-07L5.94089 -2.59684e-07C6.16524 0.209047 6.41395 0.288146 6.67292 0.310746C7.7511 0.403028 8.80877 0.742023 9.88054 0.917171C11.7164 1.21285 13.5394 1.67803 15.3663 2.08482C17.6598 2.58955 19.9534 3.10934 22.2456 3.62348C21.3405 3.61972 20.4354 3.59147 19.5354 3.43327C18.5226 3.26189 17.5201 2.88146 16.5035 2.76093C14.2074 2.4822 11.9331 1.91721 9.63054 1.65354C7.36521 1.39365 5.10373 1.22792 2.83327 1.27877C2.70378 1.28253 2.53968 1.19025 2.44481 1.43131C2.7666 1.88519 2.77942 2.7421 3.52043 2.79295C3.04736 3.17338 2.68455 2.96433 2.36277 3.14136C2.80763 3.66492 3.34736 3.48977 3.82683 3.73837C3.21146 3.88715 2.6025 3.96625 1.99098 3.99826C1.23074 4.03593 1.22818 4.02086 0.826905 5.02278C1.62176 4.89849 2.30892 5.40698 3.02813 5.68948C3.34095 5.81377 4.08452 7.05676 4.00247 7.311C3.77171 8.01159 3.28069 7.99276 2.85763 8.01913C1.90765 8.07939 0.952542 8.06056 3.52997e-07 8.07563L3.60077e-07 8.23759C0.816648 8.33552 1.61791 8.48242 2.41276 8.85343C3.02429 9.13216 3.56146 9.14535 3.8294 10.3262L3.83196 10.3318Z" fill="#F37715"/>
<path d="M40.9203 15.6586C40.8898 15.668 40.8611 15.6802 40.8351 15.6951C40.8091 15.71 40.7805 15.7223 40.7499 15.7318C40.7277 15.7154 40.716 15.7033 40.716 15.6951C40.716 15.6866 40.7049 15.6745 40.682 15.6586C40.6839 15.6397 40.6961 15.6221 40.716 15.6097H40.8181C40.7809 15.6115 40.7442 15.6028 40.716 15.5854V15.439H40.7842C40.8521 15.3901 40.8982 15.3658 40.9203 15.3658C40.9201 15.3046 40.9257 15.2435 40.9373 15.1829C40.9475 15.1197 40.9297 15.0557 40.8864 15.0001C40.923 14.9552 40.9462 14.9054 40.9543 14.8537C40.9098 14.7596 40.8981 14.659 40.9203 14.5609C40.9443 14.471 40.9326 14.3781 40.8864 14.2927C40.889 14.2012 40.9119 14.1106 40.9543 14.0242C40.9321 13.9604 40.9207 13.895 40.9203 13.8292C40.9204 13.7635 40.909 13.6979 40.8864 13.6342C40.8981 13.6117 40.9011 13.5873 40.895 13.5637C40.889 13.5401 40.8742 13.518 40.8521 13.5C40.8305 13.4817 40.8159 13.4597 40.81 13.4361C40.804 13.4125 40.8068 13.3883 40.8181 13.3657C40.7731 13.333 40.7388 13.325 40.716 13.3414L40.6138 13.2682V13.3657C40.5745 13.3142 40.5289 13.2652 40.4776 13.2193C40.4419 13.2353 40.4006 13.2438 40.3585 13.2438C40.3163 13.2438 40.2751 13.2353 40.2393 13.2193C40.2524 13.2199 40.2652 13.2224 40.2769 13.2266C40.2887 13.2309 40.2991 13.2367 40.3076 13.2439C40.2976 13.25 40.2894 13.2574 40.2835 13.2657C40.2776 13.2741 40.2742 13.2832 40.2733 13.2925C40.2724 13.3019 40.269 13.311 40.2632 13.3194C40.2574 13.3278 40.2492 13.3353 40.2393 13.3414C40.2088 13.3509 40.1802 13.3631 40.1541 13.3779C40.1281 13.3928 40.0995 13.4051 40.0689 13.4146C40.0185 13.33 39.9953 13.2383 40.001 13.1464C39.9619 13.1445 39.9236 13.1371 39.8885 13.1245C39.8534 13.112 39.8222 13.0945 39.7966 13.0732C39.7513 13.1055 39.7173 13.1176 39.6944 13.1097C39.6723 13.1012 39.638 13.1055 39.5923 13.1218C39.5401 13.1512 39.4829 13.1758 39.4222 13.195C39.4023 13.1827 39.39 13.1652 39.3879 13.1464C39.3879 13.1298 39.3657 13.1218 39.32 13.1218L38.8091 13.1218C38.6864 13.1014 38.5604 13.0932 38.4346 13.0975C38.3537 13.0937 38.2725 13.1019 38.1963 13.1218C38.1509 13.1543 38.1111 13.1623 38.0771 13.1464C38.0419 13.1296 38.0003 13.121 37.958 13.1218C37.8924 13.1055 37.8221 13.1013 37.7536 13.1097C37.6851 13.1175 37.615 13.1133 37.5492 13.0975C37.3856 13.0821 37.2207 13.0739 37.0556 13.0732L36.5617 13.0732C36.5138 13.057 36.4614 13.0486 36.4084 13.0486C36.3554 13.0486 36.3031 13.057 36.2551 13.0732C36.1948 13.0891 36.1285 13.0891 36.0681 13.0732C36.0077 13.0568 35.941 13.0568 35.8807 13.0732C35.8066 13.0734 35.7326 13.0774 35.6593 13.0854C35.5739 13.0929 35.4873 13.0888 35.404 13.0732C35.3587 13.0568 35.3247 13.0568 35.3019 13.0732C35.2978 13.0769 35.2926 13.0799 35.2867 13.082C35.2808 13.084 35.2743 13.0851 35.2677 13.0851C35.2612 13.0851 35.2547 13.084 35.2488 13.082C35.2429 13.0799 35.2377 13.0769 35.2336 13.0732H34.9783C34.8994 13.0732 34.8222 13.0562 34.757 13.0243L34.723 13.0486C34.6702 13.0498 34.6181 13.0581 34.5696 13.0732C34.5456 13.0811 34.5195 13.0851 34.493 13.0851C34.4666 13.0851 34.4405 13.0811 34.4165 13.0732C34.2841 13.0404 34.1402 13.0404 34.0077 13.0732C33.9867 13.081 33.9634 13.0851 33.9397 13.0851C33.916 13.0851 33.8926 13.081 33.8716 13.0732C33.8296 13.0574 33.7829 13.0489 33.7355 13.0486C33.713 13.0486 33.7015 13.0323 33.7015 13V13.0486C33.6374 13.0481 33.5738 13.0564 33.5141 13.0732C33.4901 13.0811 33.464 13.0851 33.4376 13.0851C33.4112 13.0851 33.3851 13.0811 33.361 13.0732C33.2648 13.0411 33.1551 13.0367 33.0545 13.0608C32.9539 13.085 32.8442 13.0806 32.7479 13.0486H32.6457L32.6118 13.0243C32.59 13.0401 32.5622 13.0509 32.5318 13.0552C32.5014 13.0596 32.4699 13.0573 32.4414 13.0486C32.4145 13.0405 32.3855 13.0362 32.3563 13.0362C32.3271 13.0362 32.2982 13.0405 32.2713 13.0486C32.2427 13.0572 32.2112 13.0595 32.1809 13.0552C32.1505 13.0509 32.1226 13.0401 32.1009 13.0243L32.033 13.0732C31.9554 13.0553 31.8756 13.043 31.7946 13.0365C31.7115 13.0269 31.6263 13.04 31.556 13.0732C31.5575 13.06 31.5553 13.0467 31.5495 13.0341C31.5436 13.0215 31.5343 13.0099 31.522 13C31.4088 13.0486 31.3293 13.0648 31.2837 13.0486C31.2155 13.0159 31.1251 13.0159 31.0115 13.0486C30.8405 13.0628 30.6674 13.0545 30.5005 13.0243C30.4551 13.0079 30.4212 13.0079 30.3983 13.0243C30.3762 13.0404 30.3419 13.0404 30.2962 13.0243C30.2391 13.025 30.1822 13.029 30.1261 13.0365C30.0689 13.0453 30.0093 13.0411 29.9557 13.0243C29.9059 13.0255 29.8581 13.0383 29.8195 13.0608C29.8012 13.0724 29.7784 13.0797 29.7541 13.0819C29.7298 13.0842 29.7052 13.0811 29.6834 13.0732C29.6178 13.0569 29.5475 13.0527 29.479 13.0608C29.4218 13.0698 29.3622 13.0655 29.3086 13.0486H28.798C28.7432 13.0508 28.6902 13.0635 28.6446 13.0854C28.5884 13.1097 28.5372 13.1298 28.4915 13.1464L28.3553 13.0975C28.2409 13.0958 28.1265 13.104 28.0148 13.1218V13.0732C27.8708 13.0404 27.7161 13.0404 27.5721 13.0732C27.5175 13.0892 27.4563 13.0892 27.4017 13.0732C27.3748 13.065 27.3459 13.0608 27.3167 13.0608C27.2874 13.0608 27.2585 13.065 27.2316 13.0732C27.1603 13.0566 27.0844 13.0523 27.0103 13.0608C26.9249 13.0686 26.8382 13.0645 26.755 13.0486C26.5971 13.0648 26.4372 13.0689 26.278 13.0608C26.1197 13.0526 25.9495 13.0486 25.7674 13.0486C25.7252 13.048 25.6836 13.0565 25.6483 13.0732C25.6303 13.081 25.6097 13.0852 25.5887 13.0852C25.5677 13.0852 25.5471 13.081 25.5291 13.0732C25.3926 13.0732 25.3022 13.0975 25.2565 13.1464V13.0732L25.1886 13.1218C25.1591 13.0953 25.1164 13.0779 25.0695 13.0732C25.0276 13.0715 24.9867 13.0631 24.9499 13.0486C24.9008 13.0731 24.8437 13.0881 24.7841 13.0924C24.7246 13.0967 24.6645 13.0901 24.6094 13.0732C24.5691 13.0725 24.5288 13.0766 24.4903 13.0854C24.4499 13.0927 24.4071 13.0883 24.3711 13.0732C24.2474 13.0568 24.1204 13.0568 23.9967 13.0732V13.0243C23.9235 13.0534 23.842 13.0701 23.7584 13.0732C23.5681 13.0404 23.3698 13.0404 23.1795 13.0732C23.2024 13.0732 23.2135 13.0891 23.2135 13.1218C23.1958 13.1141 23.1761 13.1091 23.1557 13.107C23.1352 13.1049 23.1143 13.1058 23.0943 13.1097C23.0539 13.117 23.0111 13.1126 22.9752 13.0975C22.9298 13.0811 22.8848 13.0648 22.839 13.0486C22.8181 13.0406 22.7946 13.0364 22.7708 13.0364C22.747 13.0364 22.7235 13.0406 22.7026 13.0486C22.6838 13.0404 22.6617 13.0371 22.6399 13.0394C22.6182 13.0416 22.5982 13.0492 22.5834 13.0608C22.5686 13.0724 22.5487 13.08 22.5269 13.0823C22.5052 13.0846 22.483 13.0813 22.4642 13.0732C22.3661 13.0462 22.2629 13.0298 22.158 13.0243C22.1105 13.0246 22.0637 13.033 22.0215 13.0486C22.0006 13.0566 21.9772 13.0607 21.9535 13.0607C21.9298 13.0607 21.9064 13.0566 21.8854 13.0486C21.8667 13.0404 21.8445 13.0371 21.8228 13.0393C21.801 13.0416 21.781 13.0491 21.7663 13.0608C21.7515 13.0724 21.7315 13.08 21.7098 13.0823C21.6881 13.0846 21.6659 13.0813 21.6471 13.0732C21.6261 13.081 21.6027 13.0851 21.579 13.0851C21.5553 13.0851 21.532 13.081 21.511 13.0732C21.4656 13.0568 21.4206 13.0404 21.3748 13.0243C21.3295 13.0243 21.3014 13.0323 21.2896 13.0486C21.2785 13.0648 21.2501 13.0732 21.2044 13.0732V13.1218C21.1819 13.1218 21.148 13.138 21.1022 13.1707C21.0572 13.2682 21.0231 13.3495 21 13.4146C20.9994 13.4435 21.0052 13.4723 21.017 13.5C21.0293 13.5275 21.035 13.5564 21.034 13.5853C21.0307 13.6996 21.0421 13.8139 21.0683 13.9267C21.0458 13.9906 21.0343 14.0561 21.034 14.122V14.3413C21.0337 14.4026 21.0395 14.4638 21.0513 14.5244C21.063 14.585 21.0687 14.6461 21.0683 14.7073C21.0448 14.7638 21.0508 14.8245 21.0853 14.878C21.1228 14.9395 21.1402 15.0063 21.1362 15.0733C21.1271 15.1575 21.1507 15.2419 21.2044 15.3172C21.1819 15.3331 21.1705 15.3452 21.1705 15.3537C21.1705 15.3616 21.159 15.3738 21.1362 15.3901C21.1485 15.4 21.1579 15.4116 21.1638 15.4242C21.1697 15.4368 21.1719 15.4501 21.1705 15.4633C21.148 15.4794 21.131 15.4879 21.1192 15.4879C21.1081 15.4879 21.0911 15.4958 21.0683 15.5122C21.0911 15.5122 21.1251 15.5283 21.1705 15.5611C21.1105 15.5708 21.053 15.5872 21 15.6097C21.022 15.6415 21.0579 15.6672 21.1022 15.6829C21.1254 15.6906 21.1515 15.6924 21.1763 15.688C21.2011 15.6836 21.223 15.6732 21.2384 15.6586C21.2612 15.6422 21.3295 15.6502 21.4427 15.6829C21.4468 15.704 21.4408 15.7255 21.4258 15.7439C21.4109 15.7624 21.405 15.7839 21.4088 15.805C21.4164 15.8124 21.426 15.8186 21.4371 15.8232C21.4482 15.8279 21.4605 15.8309 21.4732 15.832C21.4859 15.8331 21.4989 15.8324 21.5112 15.8298C21.5235 15.8273 21.535 15.823 21.5449 15.8171C21.5548 15.8112 21.5662 15.8068 21.5786 15.8042C21.5909 15.8016 21.6039 15.8008 21.6167 15.802C21.6295 15.8031 21.6418 15.8061 21.6528 15.8108C21.6639 15.8155 21.6735 15.8218 21.681 15.8293C21.6959 15.8365 21.7127 15.8413 21.7303 15.8434C21.7479 15.8455 21.766 15.8448 21.7832 15.8415C21.8156 15.8319 21.8505 15.8278 21.8854 15.8293C21.904 15.8445 21.9289 15.8551 21.9564 15.8594C21.9839 15.8638 22.0127 15.8618 22.0385 15.8536C22.0957 15.8372 22.1466 15.8209 22.192 15.805C22.2106 15.8201 22.2355 15.8306 22.263 15.835C22.2905 15.8393 22.3192 15.8373 22.3451 15.8293C22.3709 15.821 22.3998 15.8188 22.4274 15.8232C22.4551 15.8276 22.48 15.8383 22.4985 15.8536L22.6347 15.805L22.7026 15.8536C22.732 15.8377 22.7679 15.829 22.8047 15.829C22.8416 15.829 22.8775 15.8377 22.9069 15.8536C22.9752 15.8861 23.066 15.8861 23.1795 15.8536C23.2057 15.8377 23.2388 15.829 23.2731 15.829C23.3073 15.829 23.3405 15.8377 23.3666 15.8536C23.3858 15.8682 23.4107 15.8784 23.4381 15.8827C23.4654 15.8871 23.494 15.8855 23.52 15.8782C23.5862 15.8941 23.6579 15.8941 23.7241 15.8782C23.7787 15.8637 23.8362 15.8554 23.8945 15.8536C23.9163 15.8616 23.9409 15.8647 23.9652 15.8625C23.9894 15.8603 24.0122 15.853 24.0306 15.8415C24.0405 15.8356 24.052 15.8312 24.0643 15.8286C24.0767 15.826 24.0896 15.8253 24.1024 15.8264C24.1151 15.8275 24.1274 15.8305 24.1385 15.8352C24.1496 15.8399 24.1592 15.8462 24.1668 15.8536C24.1855 15.8691 24.2117 15.8789 24.2402 15.8811C24.2686 15.8834 24.2972 15.8779 24.3202 15.8658C24.3658 15.844 24.4186 15.8315 24.4733 15.8293V15.8782C24.4974 15.886 24.5236 15.8901 24.55 15.8901C24.5765 15.8901 24.6027 15.886 24.6268 15.8782C24.6752 15.8631 24.7271 15.8548 24.7799 15.8536H25.2565C25.2644 15.8612 25.2747 15.8673 25.2865 15.8716C25.2983 15.8758 25.3114 15.878 25.3246 15.878C25.3378 15.878 25.3508 15.8758 25.3626 15.8716C25.3744 15.8673 25.3847 15.8612 25.3926 15.8536C25.4515 15.8844 25.5248 15.8976 25.597 15.8903C25.6645 15.8821 25.7329 15.878 25.8014 15.8782L26.2101 15.8782C26.3445 15.8589 26.4815 15.8507 26.6185 15.8536C26.6831 15.8855 26.7622 15.8986 26.8399 15.8903C26.9131 15.8824 26.9871 15.8784 27.0612 15.8782C27.1362 15.9023 27.2175 15.9148 27.2997 15.9148C27.3819 15.9148 27.4632 15.9023 27.5382 15.8782C27.5619 15.8781 27.5852 15.8823 27.6061 15.8903C27.6272 15.898 27.6506 15.9022 27.6743 15.9025C27.72 15.8861 27.7879 15.8941 27.8787 15.9268C27.8966 15.9348 27.9172 15.939 27.9383 15.939C27.9593 15.939 27.98 15.9348 27.9978 15.9268C28.0332 15.9102 28.0748 15.9018 28.117 15.9025C28.1388 15.9104 28.1634 15.9135 28.1877 15.9113C28.2119 15.9091 28.2347 15.9018 28.2531 15.8903C28.263 15.8844 28.2745 15.88 28.2868 15.8774C28.2992 15.8748 28.3121 15.874 28.3249 15.8752C28.3377 15.8763 28.35 15.8793 28.3611 15.884C28.3721 15.8887 28.3817 15.895 28.3893 15.9025C28.4053 15.9168 28.4264 15.9277 28.4503 15.9341C28.4743 15.9405 28.5002 15.9422 28.5254 15.939C28.57 15.9309 28.6159 15.9268 28.6619 15.9268C28.7642 15.9263 28.8665 15.9304 28.9681 15.939C29.0769 15.9439 29.1848 15.9225 29.2746 15.8782C29.2735 15.8914 29.2796 15.9045 29.2916 15.9146C29.2978 15.9196 29.3025 15.9253 29.3055 15.9316C29.3084 15.9379 29.3094 15.9445 29.3086 15.9511C29.4413 15.9676 29.5779 15.9549 29.7004 15.9146C29.8254 15.874 29.9446 15.8941 30.0578 15.9757C30.0565 15.9623 30.0626 15.9491 30.0748 15.939C30.0809 15.934 30.0856 15.9282 30.0885 15.922C30.0914 15.9157 30.0925 15.9091 30.0918 15.9025L30.16 15.9511H30.3301V15.8782C30.3762 15.9104 30.4101 15.9268 30.4323 15.9268C30.4592 15.9186 30.4882 15.9144 30.5175 15.9144C30.5468 15.9144 30.5758 15.9186 30.6027 15.9268C30.6684 15.9429 30.7386 15.947 30.8071 15.939C30.8746 15.9308 30.943 15.9268 31.0115 15.9268C31.0828 15.9102 31.1587 15.906 31.2328 15.9146C31.3211 15.9214 31.4102 15.9087 31.4881 15.8782C31.5065 15.8771 31.5251 15.8787 31.5426 15.8829C31.5602 15.887 31.5764 15.8937 31.5903 15.9025C31.5943 15.9062 31.5994 15.9092 31.6053 15.9113C31.6112 15.9133 31.6177 15.9144 31.6242 15.9144C31.6308 15.9144 31.6372 15.9133 31.6431 15.9113C31.649 15.9092 31.6541 15.9062 31.6582 15.9025C31.7313 15.8733 31.8129 15.8566 31.8965 15.8536V15.9268C31.9197 15.9104 31.9367 15.9025 31.9477 15.9025C31.9595 15.9025 31.9765 15.8941 31.9987 15.8782V15.9511C32.0649 15.9672 32.1368 15.9672 32.203 15.9511C32.1975 15.9167 32.2096 15.8821 32.237 15.8536C32.2579 15.8676 32.2753 15.8842 32.2883 15.9025C32.302 15.9203 32.3191 15.9367 32.3392 15.9511C32.3991 15.9413 32.4566 15.9249 32.5096 15.9025C32.6209 15.8827 32.7356 15.8745 32.8501 15.8782C32.8762 15.877 32.9017 15.872 32.9251 15.8636C32.9485 15.8552 32.9693 15.8436 32.9862 15.8293V15.9025L33.0545 15.8536C33.1052 15.8724 33.1512 15.8972 33.1906 15.9268C33.2363 15.9429 33.2647 15.9429 33.2758 15.9268C33.2876 15.9104 33.3156 15.9025 33.361 15.9025C33.5319 15.8994 33.7028 15.9076 33.8716 15.9268C33.8939 15.9269 33.916 15.9237 33.9365 15.9174C33.957 15.9111 33.9754 15.9019 33.9908 15.8903C34.0247 15.8658 34.0649 15.8697 34.1099 15.9025C34.1362 15.9171 34.1664 15.9279 34.1985 15.9342C34.2307 15.9404 34.2643 15.9421 34.2973 15.939C34.3488 15.9303 34.4029 15.9346 34.4504 15.9511C34.4982 15.9675 34.5522 15.9718 34.6039 15.9635C34.6542 15.9557 34.7055 15.9515 34.757 15.9511H35.1997C35.2234 15.951 35.2468 15.9468 35.2679 15.939C35.2851 15.9354 35.3031 15.9346 35.3208 15.9367C35.3384 15.9388 35.3551 15.9438 35.3698 15.9511C35.4761 15.967 35.5852 15.9712 35.6933 15.9635C35.8007 15.955 35.9087 15.9508 36.0168 15.9511C36.0684 15.9515 36.1198 15.9557 36.1703 15.9635C36.2218 15.9719 36.2757 15.9675 36.3234 15.9511C36.3783 15.9341 36.4385 15.9274 36.4981 15.9317C36.5577 15.936 36.6147 15.9511 36.6639 15.9757C36.8105 15.9593 36.9599 15.9593 37.1066 15.9757C37.1902 15.9916 37.2782 15.9916 37.3618 15.9757C37.4419 15.9593 37.5382 15.9429 37.6514 15.9268L37.7536 15.9757C37.8012 15.9591 37.8553 15.9548 37.9067 15.9635C37.9583 15.9719 38.0122 15.9675 38.0598 15.9511C38.0846 15.959 38.1119 15.962 38.1388 15.9599C38.1658 15.9578 38.1915 15.9505 38.2133 15.939C38.2362 15.9268 38.2648 15.9213 38.2932 15.9236C38.3215 15.9258 38.3477 15.9357 38.3664 15.9511C38.4082 15.9669 38.4565 15.9713 38.5025 15.9635C38.5485 15.9552 38.5972 15.9595 38.639 15.9757C38.6983 15.9927 38.7634 15.997 38.826 15.9878C38.8993 15.9799 38.9733 15.9759 39.0474 15.9757C39.1005 15.9767 39.1531 15.9683 39.2007 15.9513C39.2482 15.9343 39.2892 15.9092 39.32 15.8782L39.3539 15.9268C39.4126 15.9253 39.471 15.9336 39.5244 15.9511C39.5947 15.9404 39.6632 15.9241 39.7284 15.9025C39.7305 15.9213 39.7428 15.9388 39.7627 15.9511C39.9445 15.9184 40.0689 15.8941 40.1371 15.8782V15.9268C40.1775 15.9262 40.2178 15.9303 40.2563 15.939C40.2902 15.9472 40.3304 15.9347 40.3755 15.9025C40.4212 15.8697 40.4666 15.8782 40.5116 15.9268C40.5573 15.8941 40.5916 15.8782 40.6138 15.8782C40.6273 15.8999 40.6445 15.9203 40.665 15.939C40.6859 15.9575 40.7031 15.978 40.716 16C40.7122 15.9789 40.7181 15.9574 40.7329 15.939C40.7391 15.934 40.7437 15.9282 40.7466 15.922C40.7496 15.9157 40.7507 15.9091 40.7499 15.9025H40.8521C40.8479 15.8629 40.8548 15.823 40.8723 15.7853C40.8899 15.7476 40.9177 15.7128 40.9543 15.6829C41 15.6665 41.0114 15.6464 40.9886 15.6219C40.9689 15.5999 40.946 15.5796 40.9203 15.5611L40.9203 15.6586ZM25.7674 13.195C25.7903 13.2112 25.8073 13.2193 25.8184 13.2193C25.8301 13.2193 25.8471 13.2275 25.8696 13.2439C25.8293 13.2444 25.789 13.2403 25.7505 13.2317C25.712 13.2229 25.6717 13.2187 25.6313 13.2193C25.6398 13.2123 25.6502 13.2065 25.6618 13.2023C25.6735 13.1981 25.6862 13.1956 25.6992 13.195C25.7255 13.1937 25.7501 13.185 25.7674 13.1707V13.195ZM26.8229 13.2925C26.8686 13.2762 26.948 13.2925 27.0612 13.3414H27.0273L26.9933 13.3657C26.9921 13.3791 26.9982 13.3923 27.0103 13.4025C27.0165 13.4074 27.0212 13.4131 27.0241 13.4194C27.027 13.4257 27.0281 13.4323 27.0273 13.4389L26.959 13.3903C26.9597 13.3969 26.9586 13.4035 26.9557 13.4098C26.9528 13.416 26.9481 13.4218 26.942 13.4268C26.936 13.4317 26.9313 13.4375 26.9284 13.4438C26.9255 13.45 26.9244 13.4566 26.9251 13.4632V13.3657L26.8229 13.2925L26.8229 13.3657C26.7854 13.3493 26.7411 13.3427 26.6975 13.3472C26.654 13.3517 26.614 13.3669 26.5846 13.3903L26.5163 13.3657C26.4287 13.3865 26.3362 13.3949 26.2441 13.3903C26.236 13.3386 26.2128 13.2887 26.1758 13.2439H26.6528C26.729 13.2239 26.8102 13.2155 26.8911 13.2193C26.8686 13.2355 26.8568 13.2476 26.8568 13.2561C26.8568 13.264 26.8457 13.2762 26.8229 13.2925ZM39.0817 13.3171C39.0817 13.2518 39.1104 13.2233 39.1666 13.2317C39.1918 13.2341 39.2159 13.2409 39.2367 13.2515C39.2575 13.2621 39.2743 13.2762 39.2857 13.2925C39.216 13.2898 39.1463 13.2982 39.0817 13.3171ZM22.9069 13.2682C22.9069 13.3007 22.8958 13.3087 22.873 13.2925C22.873 13.2598 22.8789 13.2439 22.89 13.2439C22.9017 13.2439 22.9069 13.2518 22.9069 13.2682ZM23.0091 13.2439C23.0091 13.2925 22.998 13.3171 22.9752 13.3171C22.9069 13.2682 22.9187 13.2439 23.0091 13.2439ZM36.9704 13.3171C37.0353 13.297 37.1043 13.2846 37.1748 13.2804C37.2173 13.2757 37.2608 13.2816 37.2979 13.2971C37.3351 13.3127 37.3637 13.3369 37.3788 13.3657C37.3439 13.3644 37.309 13.3685 37.2766 13.3779C37.2545 13.3861 37.2205 13.3819 37.1748 13.3657V13.2925C37.1066 13.3414 37.084 13.3739 37.1066 13.3903C37.1074 13.3837 37.1063 13.377 37.1034 13.3707C37.1005 13.3643 37.0958 13.3585 37.0896 13.3536C37.0775 13.3434 37.0715 13.3304 37.0726 13.3171C37.0501 13.333 37.0162 13.333 36.9704 13.3171ZM38.1281 13.3657C38.1012 13.3681 38.074 13.3648 38.0498 13.3561C38.0256 13.3475 38.0054 13.3339 37.9919 13.3171C38.0315 13.2972 38.08 13.2884 38.1281 13.2925V13.3657ZM22.6347 13.3903C22.6122 13.3573 22.5781 13.3573 22.5325 13.3903V13.3414H22.6347V13.3903ZM24.9499 13.3657C24.9519 13.3846 24.9642 13.4022 24.9842 13.4146C24.8793 13.4199 24.776 13.4363 24.6777 13.4632C24.7005 13.4469 24.7116 13.4347 24.7116 13.4268C24.7116 13.4183 24.7234 13.4062 24.7459 13.3903C24.7606 13.3829 24.7774 13.378 24.7951 13.3758C24.8127 13.3737 24.8309 13.3744 24.8481 13.3779C24.8653 13.3814 24.8833 13.3821 24.9009 13.38C24.9186 13.3779 24.9353 13.373 24.9499 13.3657ZM26.0736 13.4878C26.0074 13.5683 25.9137 13.6354 25.8014 13.6828V13.7803C25.7425 13.7858 25.6828 13.7772 25.6313 13.756C25.6443 13.7554 25.657 13.7529 25.6687 13.7487C25.6803 13.7446 25.6907 13.7388 25.6992 13.7317V13.6585H25.8014C25.756 13.6585 25.6993 13.6178 25.6313 13.5364L25.7331 13.4632C25.6881 13.4632 25.6881 13.4469 25.7331 13.4146C25.756 13.3819 25.7792 13.3697 25.8014 13.3779C25.8186 13.3814 25.8367 13.3821 25.8544 13.38C25.872 13.3779 25.8888 13.373 25.9036 13.3657V13.4389C25.8959 13.4462 25.8849 13.4515 25.8725 13.4537C25.86 13.4559 25.8469 13.455 25.8353 13.4511C25.8132 13.4429 25.7903 13.455 25.7674 13.4878C25.8152 13.5039 25.869 13.5082 25.9205 13.5C25.9709 13.4922 26.0222 13.4881 26.0736 13.4878ZM39.4222 13.3657C39.4222 13.4146 39.4108 13.4389 39.3879 13.4389C39.3117 13.419 39.2305 13.4107 39.1496 13.4146C39.1655 13.4002 39.1865 13.3892 39.2105 13.3827C39.2345 13.3762 39.2605 13.3746 39.2857 13.3779C39.3317 13.386 39.3803 13.3817 39.4222 13.3657ZM39.8306 13.4389C39.8021 13.4302 39.7706 13.4279 39.7403 13.4322C39.7099 13.4365 39.6821 13.4474 39.6605 13.4632C39.6406 13.4509 39.6283 13.4334 39.6262 13.4146C39.6888 13.3883 39.7585 13.3717 39.8306 13.3657V13.4389ZM40.1032 13.4878C40.1711 13.4062 40.2393 13.3903 40.3076 13.4389C40.2762 13.452 40.2414 13.4603 40.2054 13.4632C40.1693 13.4663 40.1345 13.4746 40.1032 13.4878ZM26.2101 13.7074C26.1876 13.7233 26.1758 13.7354 26.1758 13.7439C26.1758 13.7518 26.1647 13.764 26.1419 13.7803L26.0736 13.7317V13.6342C26.094 13.6485 26.1169 13.6608 26.1419 13.6707C26.1674 13.68 26.1905 13.6924 26.2101 13.7074ZM26.0397 13.8049H25.9375C25.9177 13.7924 25.9055 13.7749 25.9036 13.756C25.9028 13.7467 25.8995 13.7376 25.8936 13.7292C25.8878 13.7208 25.8796 13.7134 25.8696 13.7074C25.9604 13.7074 26.0175 13.7233 26.0397 13.756V13.8049ZM38.4346 14.9755C38.4575 15.008 38.4516 15.0281 38.4177 15.0366C38.3834 15.0445 38.3664 15.0403 38.3664 15.0244C38.3651 15.0178 38.3659 15.011 38.3689 15.0046C38.3718 14.9983 38.3768 14.9925 38.3834 14.9877C38.39 14.983 38.3981 14.9794 38.407 14.9773C38.4159 14.9752 38.4254 14.9746 38.4346 14.9755ZM40.5798 15.0487L40.5116 15.1462C40.5156 15.0963 40.504 15.0464 40.4776 15.0001C40.5005 15.0001 40.5345 15.016 40.5798 15.0487ZM39.32 15.244C39.3463 15.2903 39.3579 15.3402 39.3539 15.3901H39.2518C39.2885 15.3454 39.3118 15.2956 39.32 15.244ZM39.2178 15.3415C39.2178 15.3574 39.1839 15.3901 39.1156 15.439C39.1156 15.4063 39.1104 15.3862 39.0987 15.378C39.0838 15.3596 39.0778 15.3382 39.0817 15.3172C39.1297 15.313 39.1782 15.3217 39.2178 15.3415ZM39.2857 15.439C39.2857 15.4715 39.2687 15.4837 39.2348 15.4757C39.2179 15.4712 39.2036 15.4627 39.1944 15.4516C39.1851 15.4405 39.1814 15.4275 39.1839 15.4147C39.2023 15.4136 39.2208 15.4152 39.2383 15.4193C39.2558 15.4235 39.2719 15.4302 39.2857 15.439ZM40.5459 15.5611C40.5562 15.5665 40.5636 15.5743 40.5667 15.5832C40.5698 15.5921 40.5685 15.6015 40.5629 15.6097C40.5518 15.6258 40.5345 15.6258 40.5116 15.6097C40.5116 15.5611 40.5234 15.5447 40.5459 15.5611ZM39.6605 15.6097C39.6825 15.6398 39.6941 15.6732 39.6945 15.7072C39.6346 15.7171 39.5772 15.7336 39.5244 15.7561V15.6586C39.5472 15.6422 39.5923 15.6586 39.6605 15.7072V15.6097ZM40.2054 15.6829C40.2054 15.764 40.1711 15.7804 40.1032 15.7318C39.9899 15.6829 39.9106 15.6745 39.8649 15.7072C39.8556 15.7067 39.8463 15.7076 39.8375 15.7097C39.8287 15.7118 39.8206 15.7152 39.8136 15.7196C39.8067 15.724 39.7986 15.7273 39.7899 15.7294C39.7811 15.7315 39.7719 15.7323 39.7627 15.7318C39.8535 15.6665 39.9217 15.6343 39.9671 15.6343C40.0507 15.6371 40.1322 15.6538 40.2054 15.6829ZM39.2518 15.6829C39.2518 15.7154 39.2296 15.7276 39.1839 15.7196C39.1385 15.7112 39.1274 15.6908 39.1496 15.6586C39.1724 15.6422 39.2067 15.6502 39.2518 15.6829ZM29.479 15.6829C29.5019 15.7154 29.5019 15.7355 29.479 15.7439C29.4674 15.7477 29.4543 15.7485 29.442 15.7463C29.4296 15.7441 29.4186 15.739 29.4108 15.7318C29.4117 15.7224 29.4152 15.7133 29.4211 15.7049C29.427 15.6965 29.4351 15.689 29.4451 15.6829C29.4679 15.6665 29.479 15.6665 29.479 15.6829ZM29.9557 15.7072L30.0918 15.7561C30.0014 15.7886 29.9335 15.7965 29.8878 15.7804L29.7856 15.8536C29.8059 15.8274 29.8175 15.7982 29.8195 15.7683C29.8195 15.7439 29.8424 15.7234 29.8878 15.7072C29.9274 15.6874 29.9759 15.6787 30.0239 15.6829L29.9557 15.7072ZM28.9002 15.7072C28.9027 15.7201 28.899 15.7331 28.8897 15.7442C28.8803 15.7554 28.866 15.7638 28.8489 15.7683C28.815 15.7762 28.798 15.764 28.798 15.7318C28.8119 15.723 28.8281 15.7163 28.8456 15.7121C28.8632 15.7079 28.8817 15.7062 28.9002 15.7072ZM30.6027 15.7804C30.62 15.7947 30.6446 15.8036 30.671 15.805C30.6938 15.805 30.7167 15.8209 30.7388 15.8536H30.5345C30.5345 15.8372 30.5573 15.8129 30.6027 15.7804ZM32.1691 15.9268C32.1466 15.8941 32.1125 15.8941 32.0669 15.9268C32.0444 15.9593 32.0558 15.9757 32.1009 15.9757C32.1101 15.9766 32.1196 15.976 32.1285 15.9739C32.1374 15.9718 32.1454 15.9682 32.1521 15.9635C32.1587 15.9587 32.1637 15.953 32.1666 15.9466C32.1696 15.9402 32.1704 15.9334 32.1691 15.9268Z" fill="#1B2323"/>
<path d="M40.9203 21.6586C40.8898 21.668 40.8611 21.6802 40.8351 21.6951C40.8091 21.71 40.7805 21.7223 40.7499 21.7318C40.7277 21.7154 40.716 21.7033 40.716 21.6951C40.716 21.6866 40.7049 21.6745 40.682 21.6586C40.6839 21.6397 40.6961 21.6221 40.716 21.6097H40.8181C40.7809 21.6115 40.7442 21.6028 40.716 21.5854V21.439H40.7842C40.8521 21.3901 40.8982 21.3658 40.9203 21.3658C40.9201 21.3046 40.9257 21.2435 40.9373 21.1829C40.9475 21.1197 40.9297 21.0557 40.8864 21.0001C40.923 20.9552 40.9462 20.9054 40.9543 20.8537C40.9098 20.7596 40.8981 20.659 40.9203 20.5609C40.9443 20.471 40.9326 20.3781 40.8864 20.2927C40.889 20.2012 40.9119 20.1106 40.9543 20.0242C40.9321 19.9604 40.9207 19.895 40.9203 19.8292C40.9204 19.7635 40.909 19.6979 40.8864 19.6342C40.8981 19.6117 40.9011 19.5873 40.895 19.5637C40.889 19.5401 40.8742 19.518 40.8521 19.5C40.8305 19.4817 40.8159 19.4597 40.81 19.4361C40.804 19.4125 40.8068 19.3883 40.8181 19.3657C40.7731 19.333 40.7388 19.325 40.716 19.3414L40.6138 19.2682V19.3657C40.5745 19.3142 40.5289 19.2652 40.4776 19.2193C40.4419 19.2353 40.4006 19.2438 40.3585 19.2438C40.3163 19.2438 40.2751 19.2353 40.2393 19.2193C40.2524 19.2199 40.2652 19.2224 40.2769 19.2266C40.2887 19.2309 40.2991 19.2367 40.3076 19.2439C40.2976 19.25 40.2894 19.2574 40.2835 19.2657C40.2776 19.2741 40.2742 19.2832 40.2733 19.2925C40.2724 19.3019 40.269 19.311 40.2632 19.3194C40.2574 19.3278 40.2492 19.3353 40.2393 19.3414C40.2088 19.3509 40.1802 19.3631 40.1541 19.3779C40.1281 19.3928 40.0995 19.4051 40.0689 19.4146C40.0185 19.33 39.9953 19.2383 40.001 19.1464C39.9619 19.1445 39.9236 19.1371 39.8885 19.1245C39.8534 19.112 39.8222 19.0945 39.7966 19.0732C39.7513 19.1055 39.7173 19.1176 39.6944 19.1097C39.6723 19.1012 39.638 19.1055 39.5923 19.1218C39.5401 19.1512 39.4829 19.1758 39.4222 19.195C39.4023 19.1827 39.39 19.1652 39.3879 19.1464C39.3879 19.1298 39.3657 19.1218 39.32 19.1218H38.8091C38.6864 19.1014 38.5604 19.0932 38.4346 19.0975C38.3537 19.0937 38.2725 19.1019 38.1963 19.1218C38.1509 19.1543 38.1111 19.1623 38.0771 19.1464C38.0419 19.1296 38.0003 19.121 37.958 19.1218C37.8924 19.1055 37.8221 19.1013 37.7536 19.1097C37.6851 19.1175 37.615 19.1133 37.5492 19.0975C37.3856 19.0821 37.2207 19.0739 37.0556 19.0732H36.5617C36.5138 19.057 36.4614 19.0486 36.4084 19.0486C36.3554 19.0486 36.3031 19.057 36.2551 19.0732C36.1948 19.0891 36.1285 19.0891 36.0681 19.0732C36.0077 19.0568 35.941 19.0568 35.8807 19.0732C35.8066 19.0734 35.7326 19.0774 35.6593 19.0854C35.5739 19.0929 35.4873 19.0888 35.404 19.0732C35.3587 19.0568 35.3247 19.0568 35.3019 19.0732C35.2978 19.0769 35.2926 19.0799 35.2867 19.082C35.2808 19.084 35.2743 19.0851 35.2677 19.0851C35.2612 19.0851 35.2547 19.084 35.2488 19.082C35.2429 19.0799 35.2377 19.0769 35.2336 19.0732H34.9783C34.8994 19.0732 34.8222 19.0562 34.757 19.0243L34.723 19.0486C34.6702 19.0498 34.6181 19.0581 34.5696 19.0732C34.5456 19.0811 34.5195 19.0851 34.493 19.0851C34.4666 19.0851 34.4405 19.0811 34.4165 19.0732C34.2841 19.0404 34.1402 19.0404 34.0077 19.0732C33.9867 19.081 33.9634 19.0851 33.9397 19.0851C33.916 19.0851 33.8926 19.081 33.8716 19.0732C33.8296 19.0574 33.7829 19.0489 33.7355 19.0486C33.713 19.0486 33.7015 19.0323 33.7015 19V19.0486C33.6374 19.0481 33.5738 19.0564 33.5141 19.0732C33.4901 19.0811 33.464 19.0851 33.4376 19.0851C33.4112 19.0851 33.3851 19.0811 33.361 19.0732C33.2648 19.0411 33.1551 19.0367 33.0545 19.0608C32.9539 19.085 32.8442 19.0806 32.7479 19.0486H32.6457L32.6118 19.0243C32.59 19.0401 32.5622 19.0509 32.5318 19.0552C32.5014 19.0596 32.4699 19.0573 32.4414 19.0486C32.4145 19.0405 32.3855 19.0362 32.3563 19.0362C32.3271 19.0362 32.2982 19.0405 32.2713 19.0486C32.2427 19.0572 32.2112 19.0595 32.1809 19.0552C32.1505 19.0509 32.1226 19.0401 32.1009 19.0243L32.033 19.0732C31.9554 19.0553 31.8756 19.043 31.7946 19.0365C31.7115 19.0269 31.6263 19.04 31.556 19.0732C31.5575 19.06 31.5553 19.0467 31.5495 19.0341C31.5436 19.0215 31.5343 19.0099 31.522 19C31.4088 19.0486 31.3293 19.0648 31.2837 19.0486C31.2155 19.0159 31.1251 19.0159 31.0115 19.0486C30.8405 19.0628 30.6674 19.0545 30.5005 19.0243C30.4551 19.0079 30.4212 19.0079 30.3983 19.0243C30.3762 19.0404 30.3419 19.0404 30.2962 19.0243C30.2391 19.025 30.1822 19.029 30.1261 19.0365C30.0689 19.0453 30.0093 19.0411 29.9557 19.0243C29.9059 19.0255 29.8581 19.0383 29.8195 19.0608C29.8012 19.0724 29.7784 19.0797 29.7541 19.0819C29.7298 19.0842 29.7052 19.0811 29.6834 19.0732C29.6178 19.0569 29.5475 19.0527 29.479 19.0608C29.4218 19.0698 29.3622 19.0655 29.3086 19.0486H28.798C28.7432 19.0508 28.6902 19.0635 28.6446 19.0854C28.5884 19.1097 28.5372 19.1298 28.4915 19.1464L28.3553 19.0975C28.2409 19.0958 28.1265 19.104 28.0148 19.1218V19.0732C27.8708 19.0404 27.7161 19.0404 27.5721 19.0732C27.5175 19.0892 27.4563 19.0892 27.4017 19.0732C27.3748 19.065 27.3459 19.0608 27.3167 19.0608C27.2874 19.0608 27.2585 19.065 27.2316 19.0732C27.1603 19.0566 27.0844 19.0523 27.0103 19.0608C26.9249 19.0686 26.8382 19.0645 26.755 19.0486C26.5971 19.0648 26.4372 19.0689 26.278 19.0608C26.1197 19.0526 25.9495 19.0486 25.7674 19.0486C25.7252 19.048 25.6836 19.0565 25.6483 19.0732C25.6303 19.081 25.6097 19.0852 25.5887 19.0852C25.5677 19.0852 25.5471 19.081 25.5291 19.0732C25.3926 19.0732 25.3022 19.0975 25.2565 19.1464V19.0732L25.1886 19.1218C25.1591 19.0953 25.1164 19.0779 25.0695 19.0732C25.0276 19.0715 24.9867 19.0631 24.9499 19.0486C24.9008 19.0731 24.8437 19.0881 24.7841 19.0924C24.7246 19.0967 24.6645 19.0901 24.6094 19.0732C24.5691 19.0725 24.5288 19.0766 24.4903 19.0854C24.4499 19.0927 24.4071 19.0883 24.3711 19.0732C24.2474 19.0568 24.1204 19.0568 23.9967 19.0732V19.0243C23.9235 19.0534 23.842 19.0701 23.7584 19.0732C23.5681 19.0404 23.3698 19.0404 23.1795 19.0732C23.2024 19.0732 23.2135 19.0891 23.2135 19.1218C23.1958 19.1141 23.1761 19.1091 23.1557 19.107C23.1352 19.1049 23.1143 19.1058 23.0943 19.1097C23.0539 19.117 23.0111 19.1126 22.9752 19.0975C22.9298 19.0811 22.8848 19.0648 22.839 19.0486C22.8181 19.0406 22.7946 19.0364 22.7708 19.0364C22.747 19.0364 22.7235 19.0406 22.7026 19.0486C22.6838 19.0404 22.6617 19.0371 22.6399 19.0394C22.6182 19.0416 22.5982 19.0492 22.5834 19.0608C22.5686 19.0724 22.5487 19.08 22.5269 19.0823C22.5052 19.0846 22.483 19.0813 22.4642 19.0732C22.3661 19.0462 22.2629 19.0298 22.158 19.0243C22.1105 19.0246 22.0637 19.033 22.0215 19.0486C22.0006 19.0566 21.9772 19.0607 21.9535 19.0607C21.9298 19.0607 21.9064 19.0566 21.8854 19.0486C21.8667 19.0404 21.8445 19.0371 21.8228 19.0393C21.801 19.0416 21.781 19.0491 21.7663 19.0608C21.7515 19.0724 21.7315 19.08 21.7098 19.0823C21.6881 19.0846 21.6659 19.0813 21.6471 19.0732C21.6261 19.081 21.6027 19.0851 21.579 19.0851C21.5553 19.0851 21.532 19.081 21.511 19.0732C21.4656 19.0568 21.4206 19.0404 21.3748 19.0243C21.3295 19.0243 21.3014 19.0323 21.2896 19.0486C21.2785 19.0648 21.2501 19.0732 21.2044 19.0732V19.1218C21.1819 19.1218 21.148 19.138 21.1022 19.1707C21.0572 19.2682 21.0231 19.3495 21 19.4146C20.9994 19.4435 21.0052 19.4723 21.017 19.5C21.0293 19.5275 21.035 19.5564 21.034 19.5853C21.0307 19.6996 21.0421 19.8139 21.0683 19.9267C21.0458 19.9906 21.0343 20.0561 21.034 20.122V20.3413C21.0337 20.4026 21.0395 20.4638 21.0513 20.5244C21.063 20.585 21.0687 20.6461 21.0683 20.7073C21.0448 20.7638 21.0508 20.8245 21.0853 20.878C21.1228 20.9395 21.1402 21.0063 21.1362 21.0733C21.1271 21.1575 21.1507 21.2419 21.2044 21.3172C21.1819 21.3331 21.1705 21.3452 21.1705 21.3537C21.1705 21.3616 21.159 21.3738 21.1362 21.3901C21.1485 21.4 21.1579 21.4116 21.1638 21.4242C21.1697 21.4368 21.1719 21.4501 21.1705 21.4633C21.148 21.4794 21.131 21.4879 21.1192 21.4879C21.1081 21.4879 21.0911 21.4958 21.0683 21.5122C21.0911 21.5122 21.1251 21.5283 21.1705 21.5611C21.1105 21.5708 21.053 21.5872 21 21.6097C21.022 21.6415 21.0579 21.6672 21.1022 21.6829C21.1254 21.6906 21.1515 21.6924 21.1763 21.688C21.2011 21.6836 21.223 21.6732 21.2384 21.6586C21.2612 21.6422 21.3295 21.6502 21.4427 21.6829C21.4468 21.704 21.4408 21.7255 21.4258 21.7439C21.4109 21.7624 21.405 21.7839 21.4088 21.805C21.4164 21.8124 21.426 21.8186 21.4371 21.8232C21.4482 21.8279 21.4605 21.8309 21.4732 21.832C21.4859 21.8331 21.4989 21.8324 21.5112 21.8298C21.5235 21.8273 21.535 21.823 21.5449 21.8171C21.5548 21.8112 21.5662 21.8068 21.5786 21.8042C21.5909 21.8016 21.6039 21.8008 21.6167 21.802C21.6295 21.8031 21.6418 21.8061 21.6528 21.8108C21.6639 21.8155 21.6735 21.8218 21.681 21.8293C21.6959 21.8365 21.7127 21.8413 21.7303 21.8434C21.7479 21.8455 21.766 21.8448 21.7832 21.8415C21.8156 21.8319 21.8505 21.8278 21.8854 21.8293C21.904 21.8445 21.9289 21.8551 21.9564 21.8594C21.9839 21.8638 22.0127 21.8618 22.0385 21.8536C22.0957 21.8372 22.1466 21.8209 22.192 21.805C22.2106 21.8201 22.2355 21.8306 22.263 21.835C22.2905 21.8393 22.3192 21.8373 22.3451 21.8293C22.3709 21.821 22.3998 21.8188 22.4274 21.8232C22.4551 21.8276 22.48 21.8383 22.4985 21.8536L22.6347 21.805L22.7026 21.8536C22.732 21.8377 22.7679 21.829 22.8047 21.829C22.8416 21.829 22.8775 21.8377 22.9069 21.8536C22.9752 21.8861 23.066 21.8861 23.1795 21.8536C23.2057 21.8377 23.2388 21.829 23.2731 21.829C23.3073 21.829 23.3405 21.8377 23.3666 21.8536C23.3858 21.8682 23.4107 21.8784 23.4381 21.8827C23.4654 21.8871 23.494 21.8855 23.52 21.8782C23.5862 21.8941 23.6579 21.8941 23.7241 21.8782C23.7787 21.8637 23.8362 21.8554 23.8945 21.8536C23.9163 21.8616 23.9409 21.8647 23.9652 21.8625C23.9894 21.8603 24.0122 21.853 24.0306 21.8415C24.0405 21.8356 24.052 21.8312 24.0643 21.8286C24.0767 21.826 24.0896 21.8253 24.1024 21.8264C24.1151 21.8275 24.1274 21.8305 24.1385 21.8352C24.1496 21.8399 24.1592 21.8462 24.1668 21.8536C24.1855 21.8691 24.2117 21.8789 24.2402 21.8811C24.2686 21.8834 24.2972 21.8779 24.3202 21.8658C24.3658 21.844 24.4186 21.8315 24.4733 21.8293V21.8782C24.4974 21.886 24.5236 21.8901 24.55 21.8901C24.5765 21.8901 24.6027 21.886 24.6268 21.8782C24.6752 21.8631 24.7271 21.8548 24.7799 21.8536H25.2565C25.2644 21.8612 25.2747 21.8673 25.2865 21.8716C25.2983 21.8758 25.3114 21.878 25.3246 21.878C25.3378 21.878 25.3508 21.8758 25.3626 21.8716C25.3744 21.8673 25.3847 21.8612 25.3926 21.8536C25.4515 21.8844 25.5248 21.8976 25.597 21.8903C25.6645 21.8821 25.7329 21.878 25.8014 21.8782H26.2101C26.3445 21.8589 26.4815 21.8507 26.6185 21.8536C26.6831 21.8855 26.7622 21.8986 26.8399 21.8903C26.9131 21.8824 26.9871 21.8784 27.0612 21.8782C27.1362 21.9023 27.2175 21.9148 27.2997 21.9148C27.3819 21.9148 27.4632 21.9023 27.5382 21.8782C27.5619 21.8781 27.5852 21.8823 27.6061 21.8903C27.6272 21.898 27.6506 21.9022 27.6743 21.9025C27.72 21.8861 27.7879 21.8941 27.8787 21.9268C27.8966 21.9348 27.9172 21.939 27.9383 21.939C27.9593 21.939 27.98 21.9348 27.9978 21.9268C28.0332 21.9102 28.0748 21.9018 28.117 21.9025C28.1388 21.9104 28.1634 21.9135 28.1877 21.9113C28.2119 21.9091 28.2347 21.9018 28.2531 21.8903C28.263 21.8844 28.2745 21.88 28.2868 21.8774C28.2992 21.8748 28.3121 21.874 28.3249 21.8752C28.3377 21.8763 28.35 21.8793 28.3611 21.884C28.3721 21.8887 28.3817 21.895 28.3893 21.9025C28.4053 21.9168 28.4264 21.9277 28.4503 21.9341C28.4743 21.9405 28.5002 21.9422 28.5254 21.939C28.57 21.9309 28.6159 21.9268 28.6619 21.9268C28.7642 21.9263 28.8665 21.9304 28.9681 21.939C29.0769 21.9439 29.1848 21.9225 29.2746 21.8782C29.2735 21.8914 29.2796 21.9045 29.2916 21.9146C29.2978 21.9196 29.3025 21.9253 29.3055 21.9316C29.3084 21.9379 29.3094 21.9445 29.3086 21.9511C29.4413 21.9676 29.5779 21.9549 29.7004 21.9146C29.8254 21.874 29.9446 21.8941 30.0578 21.9757C30.0565 21.9623 30.0626 21.9491 30.0748 21.939C30.0809 21.934 30.0856 21.9282 30.0885 21.922C30.0914 21.9157 30.0925 21.9091 30.0918 21.9025L30.16 21.9511H30.3301V21.8782C30.3762 21.9104 30.4101 21.9268 30.4323 21.9268C30.4592 21.9186 30.4882 21.9144 30.5175 21.9144C30.5468 21.9144 30.5758 21.9186 30.6027 21.9268C30.6684 21.9429 30.7386 21.947 30.8071 21.939C30.8746 21.9308 30.943 21.9268 31.0115 21.9268C31.0828 21.9102 31.1587 21.906 31.2328 21.9146C31.3211 21.9214 31.4102 21.9087 31.4881 21.8782C31.5065 21.8771 31.5251 21.8787 31.5426 21.8829C31.5602 21.887 31.5764 21.8937 31.5903 21.9025C31.5943 21.9062 31.5994 21.9092 31.6053 21.9113C31.6112 21.9133 31.6177 21.9144 31.6242 21.9144C31.6308 21.9144 31.6372 21.9133 31.6431 21.9113C31.649 21.9092 31.6541 21.9062 31.6582 21.9025C31.7313 21.8733 31.8129 21.8566 31.8965 21.8536V21.9268C31.9197 21.9104 31.9367 21.9025 31.9477 21.9025C31.9595 21.9025 31.9765 21.8941 31.9987 21.8782V21.9511C32.0649 21.9672 32.1368 21.9672 32.203 21.9511C32.1975 21.9167 32.2096 21.8821 32.237 21.8536C32.2579 21.8676 32.2753 21.8842 32.2883 21.9025C32.302 21.9203 32.3191 21.9367 32.3392 21.9511C32.3991 21.9413 32.4566 21.9249 32.5096 21.9025C32.6209 21.8827 32.7356 21.8745 32.8501 21.8782C32.8762 21.877 32.9017 21.872 32.9251 21.8636C32.9485 21.8552 32.9693 21.8436 32.9862 21.8293V21.9025L33.0545 21.8536C33.1052 21.8724 33.1512 21.8972 33.1906 21.9268C33.2363 21.9429 33.2647 21.9429 33.2758 21.9268C33.2876 21.9104 33.3156 21.9025 33.361 21.9025C33.5319 21.8994 33.7028 21.9076 33.8716 21.9268C33.8939 21.9269 33.916 21.9237 33.9365 21.9174C33.957 21.9111 33.9754 21.9019 33.9908 21.8903C34.0247 21.8658 34.0649 21.8697 34.1099 21.9025C34.1362 21.9171 34.1664 21.9279 34.1985 21.9342C34.2307 21.9404 34.2643 21.9421 34.2973 21.939C34.3488 21.9303 34.4029 21.9346 34.4504 21.9511C34.4982 21.9675 34.5522 21.9718 34.6039 21.9635C34.6542 21.9557 34.7055 21.9515 34.757 21.9511H35.1997C35.2234 21.951 35.2468 21.9468 35.2679 21.939C35.2851 21.9354 35.3031 21.9346 35.3208 21.9367C35.3384 21.9388 35.3551 21.9438 35.3698 21.9511C35.4761 21.967 35.5852 21.9712 35.6933 21.9635C35.8007 21.955 35.9087 21.9508 36.0168 21.9511C36.0684 21.9515 36.1198 21.9557 36.1703 21.9635C36.2218 21.9719 36.2757 21.9675 36.3234 21.9511C36.3783 21.9341 36.4385 21.9274 36.4981 21.9317C36.5577 21.936 36.6147 21.9511 36.6639 21.9757C36.8105 21.9593 36.9599 21.9593 37.1066 21.9757C37.1902 21.9916 37.2782 21.9916 37.3618 21.9757C37.4419 21.9593 37.5382 21.9429 37.6514 21.9268L37.7536 21.9757C37.8012 21.9591 37.8553 21.9548 37.9067 21.9635C37.9583 21.9719 38.0122 21.9675 38.0598 21.9511C38.0846 21.959 38.1119 21.962 38.1388 21.9599C38.1658 21.9578 38.1915 21.9505 38.2133 21.939C38.2362 21.9268 38.2648 21.9213 38.2932 21.9236C38.3215 21.9258 38.3477 21.9357 38.3664 21.9511C38.4082 21.9669 38.4565 21.9713 38.5025 21.9635C38.5485 21.9552 38.5972 21.9595 38.639 21.9757C38.6983 21.9927 38.7634 21.997 38.826 21.9878C38.8993 21.9799 38.9733 21.9759 39.0474 21.9757C39.1005 21.9767 39.1531 21.9683 39.2007 21.9513C39.2482 21.9343 39.2892 21.9092 39.32 21.8782L39.3539 21.9268C39.4126 21.9253 39.471 21.9336 39.5244 21.9511C39.5947 21.9404 39.6632 21.9241 39.7284 21.9025C39.7305 21.9213 39.7428 21.9388 39.7627 21.9511C39.9445 21.9184 40.0689 21.8941 40.1371 21.8782V21.9268C40.1775 21.9262 40.2178 21.9303 40.2563 21.939C40.2902 21.9472 40.3304 21.9347 40.3755 21.9025C40.4212 21.8697 40.4666 21.8782 40.5116 21.9268C40.5573 21.8941 40.5916 21.8782 40.6138 21.8782C40.6273 21.8999 40.6445 21.9203 40.665 21.939C40.6859 21.9575 40.7031 21.978 40.716 22C40.7122 21.9789 40.7181 21.9574 40.7329 21.939C40.7391 21.934 40.7437 21.9282 40.7466 21.922C40.7496 21.9157 40.7507 21.9091 40.7499 21.9025H40.8521C40.8479 21.8629 40.8548 21.823 40.8723 21.7853C40.8899 21.7476 40.9177 21.7128 40.9543 21.6829C41 21.6665 41.0114 21.6464 40.9886 21.6219C40.9689 21.5999 40.946 21.5796 40.9203 21.5611L40.9203 21.6586ZM25.7674 19.195C25.7903 19.2112 25.8073 19.2193 25.8184 19.2193C25.8301 19.2193 25.8471 19.2275 25.8696 19.2439C25.8293 19.2444 25.789 19.2403 25.7505 19.2317C25.712 19.2229 25.6717 19.2187 25.6313 19.2193C25.6398 19.2123 25.6502 19.2065 25.6618 19.2023C25.6735 19.1981 25.6862 19.1956 25.6992 19.195C25.7255 19.1937 25.7501 19.185 25.7674 19.1707V19.195ZM26.8229 19.2925C26.8686 19.2762 26.948 19.2925 27.0612 19.3414H27.0273L26.9933 19.3657C26.9921 19.3791 26.9982 19.3923 27.0103 19.4025C27.0165 19.4074 27.0212 19.4131 27.0241 19.4194C27.027 19.4257 27.0281 19.4323 27.0273 19.4389L26.959 19.3903C26.9597 19.3969 26.9586 19.4035 26.9557 19.4098C26.9528 19.416 26.9481 19.4218 26.942 19.4268C26.936 19.4317 26.9313 19.4375 26.9284 19.4438C26.9255 19.45 26.9244 19.4566 26.9251 19.4632V19.3657L26.8229 19.2925L26.8229 19.3657C26.7854 19.3493 26.7411 19.3427 26.6975 19.3472C26.654 19.3517 26.614 19.3669 26.5846 19.3903L26.5163 19.3657C26.4287 19.3865 26.3362 19.3949 26.2441 19.3903C26.236 19.3386 26.2128 19.2887 26.1758 19.2439H26.6528C26.729 19.2239 26.8102 19.2155 26.8911 19.2193C26.8686 19.2355 26.8568 19.2476 26.8568 19.2561C26.8568 19.264 26.8457 19.2762 26.8229 19.2925ZM39.0817 19.3171C39.0817 19.2518 39.1104 19.2233 39.1666 19.2317C39.1918 19.2341 39.2159 19.2409 39.2367 19.2515C39.2575 19.2621 39.2743 19.2762 39.2857 19.2925C39.216 19.2898 39.1463 19.2982 39.0817 19.3171ZM22.9069 19.2682C22.9069 19.3007 22.8958 19.3087 22.873 19.2925C22.873 19.2598 22.8789 19.2439 22.89 19.2439C22.9017 19.2439 22.9069 19.2518 22.9069 19.2682ZM23.0091 19.2439C23.0091 19.2925 22.998 19.3171 22.9752 19.3171C22.9069 19.2682 22.9187 19.2439 23.0091 19.2439ZM36.9704 19.3171C37.0353 19.297 37.1043 19.2846 37.1748 19.2804C37.2173 19.2757 37.2608 19.2816 37.2979 19.2971C37.3351 19.3127 37.3637 19.3369 37.3788 19.3657C37.3439 19.3644 37.309 19.3685 37.2766 19.3779C37.2545 19.3861 37.2205 19.3819 37.1748 19.3657V19.2925C37.1066 19.3414 37.084 19.3739 37.1066 19.3903C37.1074 19.3837 37.1063 19.377 37.1034 19.3707C37.1005 19.3643 37.0958 19.3585 37.0896 19.3536C37.0775 19.3434 37.0715 19.3304 37.0726 19.3171C37.0501 19.333 37.0162 19.333 36.9704 19.3171ZM38.1281 19.3657C38.1012 19.3681 38.074 19.3648 38.0498 19.3561C38.0256 19.3475 38.0054 19.3339 37.9919 19.3171C38.0315 19.2972 38.08 19.2884 38.1281 19.2925V19.3657ZM22.6347 19.3903C22.6122 19.3573 22.5781 19.3573 22.5325 19.3903V19.3414H22.6347V19.3903ZM24.9499 19.3657C24.9519 19.3846 24.9642 19.4022 24.9842 19.4146C24.8793 19.4199 24.776 19.4363 24.6777 19.4632C24.7005 19.4469 24.7116 19.4347 24.7116 19.4268C24.7116 19.4183 24.7234 19.4062 24.7459 19.3903C24.7606 19.3829 24.7774 19.378 24.7951 19.3758C24.8127 19.3737 24.8309 19.3744 24.8481 19.3779C24.8653 19.3814 24.8833 19.3821 24.9009 19.38C24.9186 19.3779 24.9353 19.373 24.9499 19.3657ZM26.0736 19.4878C26.0074 19.5683 25.9137 19.6354 25.8014 19.6828V19.7803C25.7425 19.7858 25.6828 19.7772 25.6313 19.756C25.6443 19.7554 25.657 19.7529 25.6687 19.7487C25.6803 19.7446 25.6907 19.7388 25.6992 19.7317V19.6585H25.8014C25.756 19.6585 25.6993 19.6178 25.6313 19.5364L25.7331 19.4632C25.6881 19.4632 25.6881 19.4469 25.7331 19.4146C25.756 19.3819 25.7792 19.3697 25.8014 19.3779C25.8186 19.3814 25.8367 19.3821 25.8544 19.38C25.872 19.3779 25.8888 19.373 25.9036 19.3657V19.4389C25.8959 19.4462 25.8849 19.4515 25.8725 19.4537C25.86 19.4559 25.8469 19.455 25.8353 19.4511C25.8132 19.4429 25.7903 19.455 25.7674 19.4878C25.8152 19.5039 25.869 19.5082 25.9205 19.5C25.9709 19.4922 26.0222 19.4881 26.0736 19.4878ZM39.4222 19.3657C39.4222 19.4146 39.4108 19.4389 39.3879 19.4389C39.3117 19.419 39.2305 19.4107 39.1496 19.4146C39.1655 19.4002 39.1865 19.3892 39.2105 19.3827C39.2345 19.3762 39.2605 19.3746 39.2857 19.3779C39.3317 19.386 39.3803 19.3817 39.4222 19.3657ZM39.8306 19.4389C39.8021 19.4302 39.7706 19.4279 39.7403 19.4322C39.7099 19.4365 39.6821 19.4474 39.6605 19.4632C39.6406 19.4509 39.6283 19.4334 39.6262 19.4146C39.6888 19.3883 39.7585 19.3717 39.8306 19.3657V19.4389ZM40.1032 19.4878C40.1711 19.4062 40.2393 19.3903 40.3076 19.4389C40.2762 19.452 40.2414 19.4603 40.2054 19.4632C40.1693 19.4663 40.1345 19.4746 40.1032 19.4878ZM26.2101 19.7074C26.1876 19.7233 26.1758 19.7354 26.1758 19.7439C26.1758 19.7518 26.1647 19.764 26.1419 19.7803L26.0736 19.7317V19.6342C26.094 19.6485 26.1169 19.6608 26.1419 19.6707C26.1674 19.68 26.1905 19.6924 26.2101 19.7074ZM26.0397 19.8049H25.9375C25.9177 19.7924 25.9055 19.7749 25.9036 19.756C25.9028 19.7467 25.8995 19.7376 25.8936 19.7292C25.8878 19.7208 25.8796 19.7134 25.8696 19.7074C25.9604 19.7074 26.0175 19.7233 26.0397 19.756V19.8049ZM38.4346 20.9755C38.4575 21.008 38.4516 21.0281 38.4177 21.0366C38.3834 21.0445 38.3664 21.0403 38.3664 21.0244C38.3651 21.0178 38.3659 21.011 38.3689 21.0046C38.3718 20.9983 38.3768 20.9925 38.3834 20.9877C38.39 20.983 38.3981 20.9794 38.407 20.9773C38.4159 20.9752 38.4254 20.9746 38.4346 20.9755ZM40.5798 21.0487L40.5116 21.1462C40.5156 21.0963 40.504 21.0464 40.4776 21.0001C40.5005 21.0001 40.5345 21.016 40.5798 21.0487ZM39.32 21.244C39.3463 21.2903 39.3579 21.3402 39.3539 21.3901H39.2518C39.2885 21.3454 39.3118 21.2956 39.32 21.244ZM39.2178 21.3415C39.2178 21.3574 39.1839 21.3901 39.1156 21.439C39.1156 21.4063 39.1104 21.3862 39.0987 21.378C39.0838 21.3596 39.0778 21.3382 39.0817 21.3172C39.1297 21.313 39.1782 21.3217 39.2178 21.3415ZM39.2857 21.439C39.2857 21.4715 39.2687 21.4837 39.2348 21.4757C39.2179 21.4712 39.2036 21.4627 39.1944 21.4516C39.1851 21.4405 39.1814 21.4275 39.1839 21.4147C39.2023 21.4136 39.2208 21.4152 39.2383 21.4193C39.2558 21.4235 39.2719 21.4302 39.2857 21.439ZM40.5459 21.5611C40.5562 21.5665 40.5636 21.5743 40.5667 21.5832C40.5698 21.5921 40.5685 21.6015 40.5629 21.6097C40.5518 21.6258 40.5345 21.6258 40.5116 21.6097C40.5116 21.5611 40.5234 21.5447 40.5459 21.5611ZM39.6605 21.6097C39.6825 21.6398 39.6941 21.6732 39.6945 21.7072C39.6346 21.7171 39.5772 21.7336 39.5244 21.7561V21.6586C39.5472 21.6422 39.5923 21.6586 39.6605 21.7072V21.6097ZM40.2054 21.6829C40.2054 21.764 40.1711 21.7804 40.1032 21.7318C39.9899 21.6829 39.9106 21.6745 39.8649 21.7072C39.8556 21.7067 39.8463 21.7076 39.8375 21.7097C39.8287 21.7118 39.8206 21.7152 39.8136 21.7196C39.8067 21.724 39.7986 21.7273 39.7899 21.7294C39.7811 21.7315 39.7719 21.7323 39.7627 21.7318C39.8535 21.6665 39.9217 21.6343 39.9671 21.6343C40.0507 21.6371 40.1322 21.6538 40.2054 21.6829ZM39.2518 21.6829C39.2518 21.7154 39.2296 21.7276 39.1839 21.7196C39.1385 21.7112 39.1274 21.6908 39.1496 21.6586C39.1724 21.6422 39.2067 21.6502 39.2518 21.6829ZM29.479 21.6829C29.5019 21.7154 29.5019 21.7355 29.479 21.7439C29.4674 21.7477 29.4543 21.7485 29.442 21.7463C29.4296 21.7441 29.4186 21.739 29.4108 21.7318C29.4117 21.7224 29.4152 21.7133 29.4211 21.7049C29.427 21.6965 29.4351 21.689 29.4451 21.6829C29.4679 21.6665 29.479 21.6665 29.479 21.6829ZM29.9557 21.7072L30.0918 21.7561C30.0014 21.7886 29.9335 21.7965 29.8878 21.7804L29.7856 21.8536C29.8059 21.8274 29.8175 21.7982 29.8195 21.7683C29.8195 21.7439 29.8424 21.7234 29.8878 21.7072C29.9274 21.6874 29.9759 21.6787 30.0239 21.6829L29.9557 21.7072ZM28.9002 21.7072C28.9027 21.7201 28.899 21.7331 28.8897 21.7442C28.8803 21.7554 28.866 21.7638 28.8489 21.7683C28.815 21.7762 28.798 21.764 28.798 21.7318C28.8119 21.723 28.8281 21.7163 28.8456 21.7121C28.8632 21.7079 28.8817 21.7062 28.9002 21.7072ZM30.6027 21.7804C30.62 21.7947 30.6446 21.8036 30.671 21.805C30.6938 21.805 30.7167 21.8209 30.7388 21.8536H30.5345C30.5345 21.8372 30.5573 21.8129 30.6027 21.7804ZM32.1691 21.9268C32.1466 21.8941 32.1125 21.8941 32.0669 21.9268C32.0444 21.9593 32.0558 21.9757 32.1009 21.9757C32.1101 21.9766 32.1196 21.976 32.1285 21.9739C32.1374 21.9718 32.1454 21.9682 32.1521 21.9635C32.1587 21.9587 32.1637 21.953 32.1666 21.9466C32.1696 21.9402 32.1704 21.9334 32.1691 21.9268Z" fill="#1B2323"/>
<path d="M40.9203 27.6586C40.8898 27.668 40.8611 27.6802 40.8351 27.6951C40.8091 27.71 40.7805 27.7223 40.7499 27.7318C40.7277 27.7154 40.716 27.7033 40.716 27.6951C40.716 27.6866 40.7049 27.6745 40.682 27.6586C40.6839 27.6397 40.6961 27.6221 40.716 27.6097H40.8181C40.7809 27.6115 40.7442 27.6028 40.716 27.5854V27.439H40.7842C40.8521 27.3901 40.8982 27.3658 40.9203 27.3658C40.9201 27.3046 40.9257 27.2435 40.9373 27.1829C40.9475 27.1197 40.9297 27.0557 40.8864 27.0001C40.923 26.9552 40.9462 26.9054 40.9543 26.8537C40.9098 26.7596 40.8981 26.659 40.9203 26.5609C40.9443 26.471 40.9326 26.3781 40.8864 26.2927C40.889 26.2012 40.9119 26.1106 40.9543 26.0242C40.9321 25.9604 40.9207 25.895 40.9203 25.8292C40.9204 25.7635 40.909 25.6979 40.8864 25.6342C40.8981 25.6117 40.9011 25.5873 40.895 25.5637C40.889 25.5401 40.8742 25.518 40.8521 25.5C40.8305 25.4817 40.8159 25.4597 40.81 25.4361C40.804 25.4125 40.8068 25.3883 40.8181 25.3657C40.7731 25.333 40.7388 25.325 40.716 25.3414L40.6138 25.2682V25.3657C40.5745 25.3142 40.5289 25.2652 40.4776 25.2193C40.4419 25.2353 40.4006 25.2438 40.3585 25.2438C40.3163 25.2438 40.2751 25.2353 40.2393 25.2193C40.2524 25.2199 40.2652 25.2224 40.2769 25.2266C40.2887 25.2309 40.2991 25.2367 40.3076 25.2439C40.2976 25.25 40.2894 25.2574 40.2835 25.2657C40.2776 25.2741 40.2742 25.2832 40.2733 25.2925C40.2724 25.3019 40.269 25.311 40.2632 25.3194C40.2574 25.3278 40.2492 25.3353 40.2393 25.3414C40.2088 25.3509 40.1802 25.3631 40.1541 25.3779C40.1281 25.3928 40.0995 25.4051 40.0689 25.4146C40.0185 25.33 39.9953 25.2383 40.001 25.1464C39.9619 25.1445 39.9236 25.1371 39.8885 25.1245C39.8534 25.112 39.8222 25.0945 39.7966 25.0732C39.7513 25.1055 39.7173 25.1176 39.6944 25.1097C39.6723 25.1012 39.638 25.1055 39.5923 25.1218C39.5401 25.1512 39.4829 25.1758 39.4222 25.195C39.4023 25.1827 39.39 25.1652 39.3879 25.1464C39.3879 25.1298 39.3657 25.1218 39.32 25.1218H38.8091C38.6864 25.1014 38.5604 25.0932 38.4346 25.0975C38.3537 25.0937 38.2725 25.1019 38.1963 25.1218C38.1509 25.1543 38.1111 25.1623 38.0771 25.1464C38.0419 25.1296 38.0003 25.121 37.958 25.1218C37.8924 25.1055 37.8221 25.1013 37.7536 25.1097C37.6851 25.1175 37.615 25.1133 37.5492 25.0975C37.3856 25.0821 37.2207 25.0739 37.0556 25.0732H36.5617C36.5138 25.057 36.4614 25.0486 36.4084 25.0486C36.3554 25.0486 36.3031 25.057 36.2551 25.0732C36.1948 25.0891 36.1285 25.0891 36.0681 25.0732C36.0077 25.0568 35.941 25.0568 35.8807 25.0732C35.8066 25.0734 35.7326 25.0774 35.6593 25.0854C35.5739 25.0929 35.4873 25.0888 35.404 25.0732C35.3587 25.0568 35.3247 25.0568 35.3019 25.0732C35.2978 25.0769 35.2926 25.0799 35.2867 25.082C35.2808 25.084 35.2743 25.0851 35.2677 25.0851C35.2612 25.0851 35.2547 25.084 35.2488 25.082C35.2429 25.0799 35.2377 25.0769 35.2336 25.0732H34.9783C34.8994 25.0732 34.8222 25.0562 34.757 25.0243L34.723 25.0486C34.6702 25.0498 34.6181 25.0581 34.5696 25.0732C34.5456 25.0811 34.5195 25.0851 34.493 25.0851C34.4666 25.0851 34.4405 25.0811 34.4165 25.0732C34.2841 25.0404 34.1402 25.0404 34.0077 25.0732C33.9867 25.081 33.9634 25.0851 33.9397 25.0851C33.916 25.0851 33.8926 25.081 33.8716 25.0732C33.8296 25.0574 33.7829 25.0489 33.7355 25.0486C33.713 25.0486 33.7015 25.0323 33.7015 25V25.0486C33.6374 25.0481 33.5738 25.0564 33.5141 25.0732C33.4901 25.0811 33.464 25.0851 33.4376 25.0851C33.4112 25.0851 33.3851 25.0811 33.361 25.0732C33.2648 25.0411 33.1551 25.0367 33.0545 25.0608C32.9539 25.085 32.8442 25.0806 32.7479 25.0486H32.6457L32.6118 25.0243C32.59 25.0401 32.5622 25.0509 32.5318 25.0552C32.5014 25.0596 32.4699 25.0573 32.4414 25.0486C32.4145 25.0405 32.3855 25.0362 32.3563 25.0362C32.3271 25.0362 32.2982 25.0405 32.2713 25.0486C32.2427 25.0572 32.2112 25.0595 32.1809 25.0552C32.1505 25.0509 32.1226 25.0401 32.1009 25.0243L32.033 25.0732C31.9554 25.0553 31.8756 25.043 31.7946 25.0365C31.7115 25.0269 31.6263 25.04 31.556 25.0732C31.5575 25.06 31.5553 25.0467 31.5495 25.0341C31.5436 25.0215 31.5343 25.0099 31.522 25C31.4088 25.0486 31.3293 25.0648 31.2837 25.0486C31.2155 25.0159 31.1251 25.0159 31.0115 25.0486C30.8405 25.0628 30.6674 25.0545 30.5005 25.0243C30.4551 25.0079 30.4212 25.0079 30.3983 25.0243C30.3762 25.0404 30.3419 25.0404 30.2962 25.0243C30.2391 25.025 30.1822 25.029 30.1261 25.0365C30.0689 25.0453 30.0093 25.0411 29.9557 25.0243C29.9059 25.0255 29.8581 25.0383 29.8195 25.0608C29.8012 25.0724 29.7784 25.0797 29.7541 25.0819C29.7298 25.0842 29.7052 25.0811 29.6834 25.0732C29.6178 25.0569 29.5475 25.0527 29.479 25.0608C29.4218 25.0698 29.3622 25.0655 29.3086 25.0486H28.798C28.7432 25.0508 28.6902 25.0635 28.6446 25.0854C28.5884 25.1097 28.5372 25.1298 28.4915 25.1464L28.3553 25.0975C28.2409 25.0958 28.1265 25.104 28.0148 25.1218V25.0732C27.8708 25.0404 27.7161 25.0404 27.5721 25.0732C27.5175 25.0892 27.4563 25.0892 27.4017 25.0732C27.3748 25.065 27.3459 25.0608 27.3167 25.0608C27.2874 25.0608 27.2585 25.065 27.2316 25.0732C27.1603 25.0566 27.0844 25.0523 27.0103 25.0608C26.9249 25.0686 26.8382 25.0645 26.755 25.0486C26.5971 25.0648 26.4372 25.0689 26.278 25.0608C26.1197 25.0526 25.9495 25.0486 25.7674 25.0486C25.7252 25.048 25.6836 25.0565 25.6483 25.0732C25.6303 25.081 25.6097 25.0852 25.5887 25.0852C25.5677 25.0852 25.5471 25.081 25.5291 25.0732C25.3926 25.0732 25.3022 25.0975 25.2565 25.1464V25.0732L25.1886 25.1218C25.1591 25.0953 25.1164 25.0779 25.0695 25.0732C25.0276 25.0715 24.9867 25.0631 24.9499 25.0486C24.9008 25.0731 24.8437 25.0881 24.7841 25.0924C24.7246 25.0967 24.6645 25.0901 24.6094 25.0732C24.5691 25.0725 24.5288 25.0766 24.4903 25.0854C24.4499 25.0927 24.4071 25.0883 24.3711 25.0732C24.2474 25.0568 24.1204 25.0568 23.9967 25.0732V25.0243C23.9235 25.0534 23.842 25.0701 23.7584 25.0732C23.5681 25.0404 23.3698 25.0404 23.1795 25.0732C23.2024 25.0732 23.2135 25.0891 23.2135 25.1218C23.1958 25.1141 23.1761 25.1091 23.1557 25.107C23.1352 25.1049 23.1143 25.1058 23.0943 25.1097C23.0539 25.117 23.0111 25.1126 22.9752 25.0975C22.9298 25.0811 22.8848 25.0648 22.839 25.0486C22.8181 25.0406 22.7946 25.0364 22.7708 25.0364C22.747 25.0364 22.7235 25.0406 22.7026 25.0486C22.6838 25.0404 22.6617 25.0371 22.6399 25.0394C22.6182 25.0416 22.5982 25.0492 22.5834 25.0608C22.5686 25.0724 22.5487 25.08 22.5269 25.0823C22.5052 25.0846 22.483 25.0813 22.4642 25.0732C22.3661 25.0462 22.2629 25.0298 22.158 25.0243C22.1105 25.0246 22.0637 25.033 22.0215 25.0486C22.0006 25.0566 21.9772 25.0607 21.9535 25.0607C21.9298 25.0607 21.9064 25.0566 21.8854 25.0486C21.8667 25.0404 21.8445 25.0371 21.8228 25.0393C21.801 25.0416 21.781 25.0491 21.7663 25.0608C21.7515 25.0724 21.7315 25.08 21.7098 25.0823C21.6881 25.0846 21.6659 25.0813 21.6471 25.0732C21.6261 25.081 21.6027 25.0851 21.579 25.0851C21.5553 25.0851 21.532 25.081 21.511 25.0732C21.4656 25.0568 21.4206 25.0404 21.3748 25.0243C21.3295 25.0243 21.3014 25.0323 21.2896 25.0486C21.2785 25.0648 21.2501 25.0732 21.2044 25.0732V25.1218C21.1819 25.1218 21.148 25.138 21.1022 25.1707C21.0572 25.2682 21.0231 25.3495 21 25.4146C20.9994 25.4435 21.0052 25.4723 21.017 25.5C21.0293 25.5275 21.035 25.5564 21.034 25.5853C21.0307 25.6996 21.0421 25.8139 21.0683 25.9267C21.0458 25.9906 21.0343 26.0561 21.034 26.122V26.3413C21.0337 26.4026 21.0395 26.4638 21.0513 26.5244C21.063 26.585 21.0687 26.6461 21.0683 26.7073C21.0448 26.7638 21.0508 26.8245 21.0853 26.878C21.1228 26.9395 21.1402 27.0063 21.1362 27.0733C21.1271 27.1575 21.1507 27.2419 21.2044 27.3172C21.1819 27.3331 21.1705 27.3452 21.1705 27.3537C21.1705 27.3616 21.159 27.3738 21.1362 27.3901C21.1485 27.4 21.1579 27.4116 21.1638 27.4242C21.1697 27.4368 21.1719 27.4501 21.1705 27.4633C21.148 27.4794 21.131 27.4879 21.1192 27.4879C21.1081 27.4879 21.0911 27.4958 21.0683 27.5122C21.0911 27.5122 21.1251 27.5283 21.1705 27.5611C21.1105 27.5708 21.053 27.5872 21 27.6097C21.022 27.6415 21.0579 27.6672 21.1022 27.6829C21.1254 27.6906 21.1515 27.6924 21.1763 27.688C21.2011 27.6836 21.223 27.6732 21.2384 27.6586C21.2612 27.6422 21.3295 27.6502 21.4427 27.6829C21.4468 27.704 21.4408 27.7255 21.4258 27.7439C21.4109 27.7624 21.405 27.7839 21.4088 27.805C21.4164 27.8124 21.426 27.8186 21.4371 27.8232C21.4482 27.8279 21.4605 27.8309 21.4732 27.832C21.4859 27.8331 21.4989 27.8324 21.5112 27.8298C21.5235 27.8273 21.535 27.823 21.5449 27.8171C21.5548 27.8112 21.5662 27.8068 21.5786 27.8042C21.5909 27.8016 21.6039 27.8008 21.6167 27.802C21.6295 27.8031 21.6418 27.8061 21.6528 27.8108C21.6639 27.8155 21.6735 27.8218 21.681 27.8293C21.6959 27.8365 21.7127 27.8413 21.7303 27.8434C21.7479 27.8455 21.766 27.8448 21.7832 27.8415C21.8156 27.8319 21.8505 27.8278 21.8854 27.8293C21.904 27.8445 21.9289 27.8551 21.9564 27.8594C21.9839 27.8638 22.0127 27.8618 22.0385 27.8536C22.0957 27.8372 22.1466 27.8209 22.192 27.805C22.2106 27.8201 22.2355 27.8306 22.263 27.835C22.2905 27.8393 22.3192 27.8373 22.3451 27.8293C22.3709 27.821 22.3998 27.8188 22.4274 27.8232C22.4551 27.8276 22.48 27.8383 22.4985 27.8536L22.6347 27.805L22.7026 27.8536C22.732 27.8377 22.7679 27.829 22.8047 27.829C22.8416 27.829 22.8775 27.8377 22.9069 27.8536C22.9752 27.8861 23.066 27.8861 23.1795 27.8536C23.2057 27.8377 23.2388 27.829 23.2731 27.829C23.3073 27.829 23.3405 27.8377 23.3666 27.8536C23.3858 27.8682 23.4107 27.8784 23.4381 27.8827C23.4654 27.8871 23.494 27.8855 23.52 27.8782C23.5862 27.8941 23.6579 27.8941 23.7241 27.8782C23.7787 27.8637 23.8362 27.8554 23.8945 27.8536C23.9163 27.8616 23.9409 27.8647 23.9652 27.8625C23.9894 27.8603 24.0122 27.853 24.0306 27.8415C24.0405 27.8356 24.052 27.8312 24.0643 27.8286C24.0767 27.826 24.0896 27.8253 24.1024 27.8264C24.1151 27.8275 24.1274 27.8305 24.1385 27.8352C24.1496 27.8399 24.1592 27.8462 24.1668 27.8536C24.1855 27.8691 24.2117 27.8789 24.2402 27.8811C24.2686 27.8834 24.2972 27.8779 24.3202 27.8658C24.3658 27.844 24.4186 27.8315 24.4733 27.8293V27.8782C24.4974 27.886 24.5236 27.8901 24.55 27.8901C24.5765 27.8901 24.6027 27.886 24.6268 27.8782C24.6752 27.8631 24.7271 27.8548 24.7799 27.8536H25.2565C25.2644 27.8612 25.2747 27.8673 25.2865 27.8716C25.2983 27.8758 25.3114 27.878 25.3246 27.878C25.3378 27.878 25.3508 27.8758 25.3626 27.8716C25.3744 27.8673 25.3847 27.8612 25.3926 27.8536C25.4515 27.8844 25.5248 27.8976 25.597 27.8903C25.6645 27.8821 25.7329 27.878 25.8014 27.8782H26.2101C26.3445 27.8589 26.4815 27.8507 26.6185 27.8536C26.6831 27.8855 26.7622 27.8986 26.8399 27.8903C26.9131 27.8824 26.9871 27.8784 27.0612 27.8782C27.1362 27.9023 27.2175 27.9148 27.2997 27.9148C27.3819 27.9148 27.4632 27.9023 27.5382 27.8782C27.5619 27.8781 27.5852 27.8823 27.6061 27.8903C27.6272 27.898 27.6506 27.9022 27.6743 27.9025C27.72 27.8861 27.7879 27.8941 27.8787 27.9268C27.8966 27.9348 27.9172 27.939 27.9383 27.939C27.9593 27.939 27.98 27.9348 27.9978 27.9268C28.0332 27.9102 28.0748 27.9018 28.117 27.9025C28.1388 27.9104 28.1634 27.9135 28.1877 27.9113C28.2119 27.9091 28.2347 27.9018 28.2531 27.8903C28.263 27.8844 28.2745 27.88 28.2868 27.8774C28.2992 27.8748 28.3121 27.874 28.3249 27.8752C28.3377 27.8763 28.35 27.8793 28.3611 27.884C28.3721 27.8887 28.3817 27.895 28.3893 27.9025C28.4053 27.9168 28.4264 27.9277 28.4503 27.9341C28.4743 27.9405 28.5002 27.9422 28.5254 27.939C28.57 27.9309 28.6159 27.9268 28.6619 27.9268C28.7642 27.9263 28.8665 27.9304 28.9681 27.939C29.0769 27.9439 29.1848 27.9225 29.2746 27.8782C29.2735 27.8914 29.2796 27.9045 29.2916 27.9146C29.2978 27.9196 29.3025 27.9253 29.3055 27.9316C29.3084 27.9379 29.3094 27.9445 29.3086 27.9511C29.4413 27.9676 29.5779 27.9549 29.7004 27.9146C29.8254 27.874 29.9446 27.8941 30.0578 27.9757C30.0565 27.9623 30.0626 27.9491 30.0748 27.939C30.0809 27.934 30.0856 27.9282 30.0885 27.922C30.0914 27.9157 30.0925 27.9091 30.0918 27.9025L30.16 27.9511H30.3301V27.8782C30.3762 27.9104 30.4101 27.9268 30.4323 27.9268C30.4592 27.9186 30.4882 27.9144 30.5175 27.9144C30.5468 27.9144 30.5758 27.9186 30.6027 27.9268C30.6684 27.9429 30.7386 27.947 30.8071 27.939C30.8746 27.9308 30.943 27.9268 31.0115 27.9268C31.0828 27.9102 31.1587 27.906 31.2328 27.9146C31.3211 27.9214 31.4102 27.9087 31.4881 27.8782C31.5065 27.8771 31.5251 27.8787 31.5426 27.8829C31.5602 27.887 31.5764 27.8937 31.5903 27.9025C31.5943 27.9062 31.5994 27.9092 31.6053 27.9113C31.6112 27.9133 31.6177 27.9144 31.6242 27.9144C31.6308 27.9144 31.6372 27.9133 31.6431 27.9113C31.649 27.9092 31.6541 27.9062 31.6582 27.9025C31.7313 27.8733 31.8129 27.8566 31.8965 27.8536V27.9268C31.9197 27.9104 31.9367 27.9025 31.9477 27.9025C31.9595 27.9025 31.9765 27.8941 31.9987 27.8782V27.9511C32.0649 27.9672 32.1368 27.9672 32.203 27.9511C32.1975 27.9167 32.2096 27.8821 32.237 27.8536C32.2579 27.8676 32.2753 27.8842 32.2883 27.9025C32.302 27.9203 32.3191 27.9367 32.3392 27.9511C32.3991 27.9413 32.4566 27.9249 32.5096 27.9025C32.6209 27.8827 32.7356 27.8745 32.8501 27.8782C32.8762 27.877 32.9017 27.872 32.9251 27.8636C32.9485 27.8552 32.9693 27.8436 32.9862 27.8293V27.9025L33.0545 27.8536C33.1052 27.8724 33.1512 27.8972 33.1906 27.9268C33.2363 27.9429 33.2647 27.9429 33.2758 27.9268C33.2876 27.9104 33.3156 27.9025 33.361 27.9025C33.5319 27.8994 33.7028 27.9076 33.8716 27.9268C33.8939 27.9269 33.916 27.9237 33.9365 27.9174C33.957 27.9111 33.9754 27.9019 33.9908 27.8903C34.0247 27.8658 34.0649 27.8697 34.1099 27.9025C34.1362 27.9171 34.1664 27.9279 34.1985 27.9342C34.2307 27.9404 34.2643 27.9421 34.2973 27.939C34.3488 27.9303 34.4029 27.9346 34.4504 27.9511C34.4982 27.9675 34.5522 27.9718 34.6039 27.9635C34.6542 27.9557 34.7055 27.9515 34.757 27.9511H35.1997C35.2234 27.951 35.2468 27.9468 35.2679 27.939C35.2851 27.9354 35.3031 27.9346 35.3208 27.9367C35.3384 27.9388 35.3551 27.9438 35.3698 27.9511C35.4761 27.967 35.5852 27.9712 35.6933 27.9635C35.8007 27.955 35.9087 27.9508 36.0168 27.9511C36.0684 27.9515 36.1198 27.9557 36.1703 27.9635C36.2218 27.9719 36.2757 27.9675 36.3234 27.9511C36.3783 27.9341 36.4385 27.9274 36.4981 27.9317C36.5577 27.936 36.6147 27.9511 36.6639 27.9757C36.8105 27.9593 36.9599 27.9593 37.1066 27.9757C37.1902 27.9916 37.2782 27.9916 37.3618 27.9757C37.4419 27.9593 37.5382 27.9429 37.6514 27.9268L37.7536 27.9757C37.8012 27.9591 37.8553 27.9548 37.9067 27.9635C37.9583 27.9719 38.0122 27.9675 38.0598 27.9511C38.0846 27.959 38.1119 27.962 38.1388 27.9599C38.1658 27.9578 38.1915 27.9505 38.2133 27.939C38.2362 27.9268 38.2648 27.9213 38.2932 27.9236C38.3215 27.9258 38.3477 27.9357 38.3664 27.9511C38.4082 27.9669 38.4565 27.9713 38.5025 27.9635C38.5485 27.9552 38.5972 27.9595 38.639 27.9757C38.6983 27.9927 38.7634 27.997 38.826 27.9878C38.8993 27.9799 38.9733 27.9759 39.0474 27.9757C39.1005 27.9767 39.1531 27.9683 39.2007 27.9513C39.2482 27.9343 39.2892 27.9092 39.32 27.8782L39.3539 27.9268C39.4126 27.9253 39.471 27.9336 39.5244 27.9511C39.5947 27.9404 39.6632 27.9241 39.7284 27.9025C39.7305 27.9213 39.7428 27.9388 39.7627 27.9511C39.9445 27.9184 40.0689 27.8941 40.1371 27.8782V27.9268C40.1775 27.9262 40.2178 27.9303 40.2563 27.939C40.2902 27.9472 40.3304 27.9347 40.3755 27.9025C40.4212 27.8697 40.4666 27.8782 40.5116 27.9268C40.5573 27.8941 40.5916 27.8782 40.6138 27.8782C40.6273 27.8999 40.6445 27.9203 40.665 27.939C40.6859 27.9575 40.7031 27.978 40.716 28C40.7122 27.9789 40.7181 27.9574 40.7329 27.939C40.7391 27.934 40.7437 27.9282 40.7466 27.922C40.7496 27.9157 40.7507 27.9091 40.7499 27.9025H40.8521C40.8479 27.8629 40.8548 27.823 40.8723 27.7853C40.8899 27.7476 40.9177 27.7128 40.9543 27.6829C41 27.6665 41.0114 27.6464 40.9886 27.6219C40.9689 27.5999 40.946 27.5796 40.9203 27.5611L40.9203 27.6586ZM25.7674 25.195C25.7903 25.2112 25.8073 25.2193 25.8184 25.2193C25.8301 25.2193 25.8471 25.2275 25.8696 25.2439C25.8293 25.2444 25.789 25.2403 25.7505 25.2317C25.712 25.2229 25.6717 25.2187 25.6313 25.2193C25.6398 25.2123 25.6502 25.2065 25.6618 25.2023C25.6735 25.1981 25.6862 25.1956 25.6992 25.195C25.7255 25.1937 25.7501 25.185 25.7674 25.1707V25.195ZM26.8229 25.2925C26.8686 25.2762 26.948 25.2925 27.0612 25.3414H27.0273L26.9933 25.3657C26.9921 25.3791 26.9982 25.3923 27.0103 25.4025C27.0165 25.4074 27.0212 25.4131 27.0241 25.4194C27.027 25.4257 27.0281 25.4323 27.0273 25.4389L26.959 25.3903C26.9597 25.3969 26.9586 25.4035 26.9557 25.4098C26.9528 25.416 26.9481 25.4218 26.942 25.4268C26.936 25.4317 26.9313 25.4375 26.9284 25.4438C26.9255 25.45 26.9244 25.4566 26.9251 25.4632V25.3657L26.8229 25.2925L26.8229 25.3657C26.7854 25.3493 26.7411 25.3427 26.6975 25.3472C26.654 25.3517 26.614 25.3669 26.5846 25.3903L26.5163 25.3657C26.4287 25.3865 26.3362 25.3949 26.2441 25.3903C26.236 25.3386 26.2128 25.2887 26.1758 25.2439H26.6528C26.729 25.2239 26.8102 25.2155 26.8911 25.2193C26.8686 25.2355 26.8568 25.2476 26.8568 25.2561C26.8568 25.264 26.8457 25.2762 26.8229 25.2925ZM39.0817 25.3171C39.0817 25.2518 39.1104 25.2233 39.1666 25.2317C39.1918 25.2341 39.2159 25.2409 39.2367 25.2515C39.2575 25.2621 39.2743 25.2762 39.2857 25.2925C39.216 25.2898 39.1463 25.2982 39.0817 25.3171ZM22.9069 25.2682C22.9069 25.3007 22.8958 25.3087 22.873 25.2925C22.873 25.2598 22.8789 25.2439 22.89 25.2439C22.9017 25.2439 22.9069 25.2518 22.9069 25.2682ZM23.0091 25.2439C23.0091 25.2925 22.998 25.3171 22.9752 25.3171C22.9069 25.2682 22.9187 25.2439 23.0091 25.2439ZM36.9704 25.3171C37.0353 25.297 37.1043 25.2846 37.1748 25.2804C37.2173 25.2757 37.2608 25.2816 37.2979 25.2971C37.3351 25.3127 37.3637 25.3369 37.3788 25.3657C37.3439 25.3644 37.309 25.3685 37.2766 25.3779C37.2545 25.3861 37.2205 25.3819 37.1748 25.3657V25.2925C37.1066 25.3414 37.084 25.3739 37.1066 25.3903C37.1074 25.3837 37.1063 25.377 37.1034 25.3707C37.1005 25.3643 37.0958 25.3585 37.0896 25.3536C37.0775 25.3434 37.0715 25.3304 37.0726 25.3171C37.0501 25.333 37.0162 25.333 36.9704 25.3171ZM38.1281 25.3657C38.1012 25.3681 38.074 25.3648 38.0498 25.3561C38.0256 25.3475 38.0054 25.3339 37.9919 25.3171C38.0315 25.2972 38.08 25.2884 38.1281 25.2925V25.3657ZM22.6347 25.3903C22.6122 25.3573 22.5781 25.3573 22.5325 25.3903V25.3414H22.6347V25.3903ZM24.9499 25.3657C24.9519 25.3846 24.9642 25.4022 24.9842 25.4146C24.8793 25.4199 24.776 25.4363 24.6777 25.4632C24.7005 25.4469 24.7116 25.4347 24.7116 25.4268C24.7116 25.4183 24.7234 25.4062 24.7459 25.3903C24.7606 25.3829 24.7774 25.378 24.7951 25.3758C24.8127 25.3737 24.8309 25.3744 24.8481 25.3779C24.8653 25.3814 24.8833 25.3821 24.9009 25.38C24.9186 25.3779 24.9353 25.373 24.9499 25.3657ZM26.0736 25.4878C26.0074 25.5683 25.9137 25.6354 25.8014 25.6828V25.7803C25.7425 25.7858 25.6828 25.7772 25.6313 25.756C25.6443 25.7554 25.657 25.7529 25.6687 25.7487C25.6803 25.7446 25.6907 25.7388 25.6992 25.7317V25.6585H25.8014C25.756 25.6585 25.6993 25.6178 25.6313 25.5364L25.7331 25.4632C25.6881 25.4632 25.6881 25.4469 25.7331 25.4146C25.756 25.3819 25.7792 25.3697 25.8014 25.3779C25.8186 25.3814 25.8367 25.3821 25.8544 25.38C25.872 25.3779 25.8888 25.373 25.9036 25.3657V25.4389C25.8959 25.4462 25.8849 25.4515 25.8725 25.4537C25.86 25.4559 25.8469 25.455 25.8353 25.4511C25.8132 25.4429 25.7903 25.455 25.7674 25.4878C25.8152 25.5039 25.869 25.5082 25.9205 25.5C25.9709 25.4922 26.0222 25.4881 26.0736 25.4878ZM39.4222 25.3657C39.4222 25.4146 39.4108 25.4389 39.3879 25.4389C39.3117 25.419 39.2305 25.4107 39.1496 25.4146C39.1655 25.4002 39.1865 25.3892 39.2105 25.3827C39.2345 25.3762 39.2605 25.3746 39.2857 25.3779C39.3317 25.386 39.3803 25.3817 39.4222 25.3657ZM39.8306 25.4389C39.8021 25.4302 39.7706 25.4279 39.7403 25.4322C39.7099 25.4365 39.6821 25.4474 39.6605 25.4632C39.6406 25.4509 39.6283 25.4334 39.6262 25.4146C39.6888 25.3883 39.7585 25.3717 39.8306 25.3657V25.4389ZM40.1032 25.4878C40.1711 25.4062 40.2393 25.3903 40.3076 25.4389C40.2762 25.452 40.2414 25.4603 40.2054 25.4632C40.1693 25.4663 40.1345 25.4746 40.1032 25.4878ZM26.2101 25.7074C26.1876 25.7233 26.1758 25.7354 26.1758 25.7439C26.1758 25.7518 26.1647 25.764 26.1419 25.7803L26.0736 25.7317V25.6342C26.094 25.6485 26.1169 25.6608 26.1419 25.6707C26.1674 25.68 26.1905 25.6924 26.2101 25.7074ZM26.0397 25.8049H25.9375C25.9177 25.7924 25.9055 25.7749 25.9036 25.756C25.9028 25.7467 25.8995 25.7376 25.8936 25.7292C25.8878 25.7208 25.8796 25.7134 25.8696 25.7074C25.9604 25.7074 26.0175 25.7233 26.0397 25.756V25.8049ZM38.4346 26.9755C38.4575 27.008 38.4516 27.0281 38.4177 27.0366C38.3834 27.0445 38.3664 27.0403 38.3664 27.0244C38.3651 27.0178 38.3659 27.011 38.3689 27.0046C38.3718 26.9983 38.3768 26.9925 38.3834 26.9877C38.39 26.983 38.3981 26.9794 38.407 26.9773C38.4159 26.9752 38.4254 26.9746 38.4346 26.9755ZM40.5798 27.0487L40.5116 27.1462C40.5156 27.0963 40.504 27.0464 40.4776 27.0001C40.5005 27.0001 40.5345 27.016 40.5798 27.0487ZM39.32 27.244C39.3463 27.2903 39.3579 27.3402 39.3539 27.3901H39.2518C39.2885 27.3454 39.3118 27.2956 39.32 27.244ZM39.2178 27.3415C39.2178 27.3574 39.1839 27.3901 39.1156 27.439C39.1156 27.4063 39.1104 27.3862 39.0987 27.378C39.0838 27.3596 39.0778 27.3382 39.0817 27.3172C39.1297 27.313 39.1782 27.3217 39.2178 27.3415ZM39.2857 27.439C39.2857 27.4715 39.2687 27.4837 39.2348 27.4757C39.2179 27.4712 39.2036 27.4627 39.1944 27.4516C39.1851 27.4405 39.1814 27.4275 39.1839 27.4147C39.2023 27.4136 39.2208 27.4152 39.2383 27.4193C39.2558 27.4235 39.2719 27.4302 39.2857 27.439ZM40.5459 27.5611C40.5562 27.5665 40.5636 27.5743 40.5667 27.5832C40.5698 27.5921 40.5685 27.6015 40.5629 27.6097C40.5518 27.6258 40.5345 27.6258 40.5116 27.6097C40.5116 27.5611 40.5234 27.5447 40.5459 27.5611ZM39.6605 27.6097C39.6825 27.6398 39.6941 27.6732 39.6945 27.7072C39.6346 27.7171 39.5772 27.7336 39.5244 27.7561V27.6586C39.5472 27.6422 39.5923 27.6586 39.6605 27.7072V27.6097ZM40.2054 27.6829C40.2054 27.764 40.1711 27.7804 40.1032 27.7318C39.9899 27.6829 39.9106 27.6745 39.8649 27.7072C39.8556 27.7067 39.8463 27.7076 39.8375 27.7097C39.8287 27.7118 39.8206 27.7152 39.8136 27.7196C39.8067 27.724 39.7986 27.7273 39.7899 27.7294C39.7811 27.7315 39.7719 27.7323 39.7627 27.7318C39.8535 27.6665 39.9217 27.6343 39.9671 27.6343C40.0507 27.6371 40.1322 27.6538 40.2054 27.6829ZM39.2518 27.6829C39.2518 27.7154 39.2296 27.7276 39.1839 27.7196C39.1385 27.7112 39.1274 27.6908 39.1496 27.6586C39.1724 27.6422 39.2067 27.6502 39.2518 27.6829ZM29.479 27.6829C29.5019 27.7154 29.5019 27.7355 29.479 27.7439C29.4674 27.7477 29.4543 27.7485 29.442 27.7463C29.4296 27.7441 29.4186 27.739 29.4108 27.7318C29.4117 27.7224 29.4152 27.7133 29.4211 27.7049C29.427 27.6965 29.4351 27.689 29.4451 27.6829C29.4679 27.6665 29.479 27.6665 29.479 27.6829ZM29.9557 27.7072L30.0918 27.7561C30.0014 27.7886 29.9335 27.7965 29.8878 27.7804L29.7856 27.8536C29.8059 27.8274 29.8175 27.7982 29.8195 27.7683C29.8195 27.7439 29.8424 27.7234 29.8878 27.7072C29.9274 27.6874 29.9759 27.6787 30.0239 27.6829L29.9557 27.7072ZM28.9002 27.7072C28.9027 27.7201 28.899 27.7331 28.8897 27.7442C28.8803 27.7554 28.866 27.7638 28.8489 27.7683C28.815 27.7762 28.798 27.764 28.798 27.7318C28.8119 27.723 28.8281 27.7163 28.8456 27.7121C28.8632 27.7079 28.8817 27.7062 28.9002 27.7072ZM30.6027 27.7804C30.62 27.7947 30.6446 27.8036 30.671 27.805C30.6938 27.805 30.7167 27.8209 30.7388 27.8536H30.5345C30.5345 27.8372 30.5573 27.8129 30.6027 27.7804ZM32.1691 27.9268C32.1466 27.8941 32.1125 27.8941 32.0669 27.9268C32.0444 27.9593 32.0558 27.9757 32.1009 27.9757C32.1101 27.9766 32.1196 27.976 32.1285 27.9739C32.1374 27.9718 32.1454 27.9682 32.1521 27.9635C32.1587 27.9587 32.1637 27.953 32.1666 27.9466C32.1696 27.9402 32.1704 27.9334 32.1691 27.9268Z" fill="#1B2323"/>
</svg>
