<svg width="60" height="75" viewBox="0 0 60 75" fill="none" xmlns="http://www.w3.org/2000/svg">
<path opacity="0.6" d="M38.9614 3.07153C36.9305 3.86248 35.5838 5.52988 36.3106 8.24476C36.9092 10.4466 41.2273 10.4252 43.1299 10.5535C44.8614 10.6817 47.7046 11.4086 48.2817 9.24949C48.7734 7.43244 47.5763 4.14038 45.8448 3.30668C43.9208 2.36609 41.0777 2.23784 38.9614 3.05017V3.07153Z" fill="#F37715"/>
<path opacity="0.6" d="M49.5448 28.703C48.4332 28.2113 47.0223 27.9762 45.1838 28.0617C41.165 28.2113 29.8565 30.1994 27.1416 26.9287C25.3673 24.7696 26.4576 18.9764 24.2344 16.967C20.8782 13.9315 17.9923 19.8315 15.7905 22.8029C12.9046 26.6935 10.9593 31.2468 11.4937 35.9925C11.7288 38.002 11.8357 39.99 11.964 42.0208C16.3676 42.1705 20.5789 41.3368 25.0039 41.7216C28.9587 42.0636 30.4551 42.8118 30.9254 38.3012C31.1605 35.9711 31.0537 28.0403 35.0512 29.9001C38.9418 31.7171 37.424 38.9426 40.2244 41.5933C42.4904 43.7524 49.2668 42.3843 52.4948 42.1491C52.6658 35.9925 54.2477 30.7979 49.5448 28.7243V28.703ZM21.8829 25.2185C21.3912 29.0236 20.7713 31.3751 17.9709 32.4867C12.9473 34.4961 16.2394 26.5866 17.7358 24.3848C19.8093 21.3493 22.4815 20.5156 21.8829 25.2185Z" fill="#F37715"/>
<path d="M55.1655 33.8113C54.7593 29.3435 54.3104 24.8757 54.1822 20.3866C54.118 18.5695 54.7593 15.4485 54.0325 13.7383C52.5361 10.1897 44.6053 11.5151 41.5911 11.4723C35.7552 11.4082 29.8124 11.1303 23.9764 11.5579C23.5062 11.6006 23.0145 11.6434 22.5442 11.6861L21.3471 12.5626C17.9268 15.0851 14.4209 18.6123 12.1336 22.225C11.4709 23.2724 10.4234 27.3127 9.5256 27.7402C8.39262 28.2747 6.7252 26.2439 5.87012 25.7308C6.59694 27.3769 9.11944 29.3649 9.16219 30.7972C9.22633 32.9562 9.09805 35.4787 9.11943 37.6592C9.16219 42.8965 9.48282 47.8988 9.80348 53.1148C10.0814 57.4971 10.231 61.9007 10.5731 66.2616C10.7441 68.3138 10.6799 71.4562 12.2405 73.0381C15.4684 76.3088 25.1094 74.0856 29.1069 74.0642C35.9476 74.0428 43.002 75.3682 49.7999 74.8979C54.8448 74.5559 55.3151 69.8957 55.8282 65.492C57.0253 54.9959 56.0633 44.2647 55.1441 33.7899L55.1655 33.8113ZM54.46 65.1286C53.2629 71.2852 52.3224 73.5939 46.3368 73.316C40.0947 73.0168 31.4798 72.3327 25.2163 72.632C20.4706 72.8671 13.3948 73.3588 12.668 68.6345C11.5992 61.7297 11.2999 53.2644 10.9579 46.4238C10.6372 39.7755 9.8035 32.2936 12.1336 25.9232C13.801 21.3058 17.4351 17.971 21.1761 15.0423C22.138 14.2941 23.2496 13.4176 24.4681 13.1825C26.9906 12.6908 29.4703 13.2253 31.9928 13.2466C34.6436 13.2894 37.273 13.1825 39.9237 13.097C41.2705 13.0543 42.5958 12.9901 43.9426 12.9688C48.7951 12.8405 52.9209 12.7336 52.814 19.1681C52.6858 25.7308 53.7333 32.8921 54.0539 39.4121C54.4601 47.8133 56.1275 56.7916 54.5028 65.1286H54.46Z" fill="#F37715"/>
<path d="M34.7291 9.95501C34.5153 7.94557 33.9168 2.49443 35.007 1.59659C36.8027 0.12158 43.4723 -0.284591 46.1658 0.185703C50.7191 0.998029 50.5053 4.88865 51.1466 9.07855C51.3818 10.5749 48.8807 10.7887 46.5292 10.6818C51.1894 9.42058 49.2227 7.79592 48.6455 4.9314C45.0328 6.68432 40.6933 5.05966 37.2516 4.16183C40.3299 4.69625 43.7716 4.69625 46.2941 4.4611C50.3771 4.07632 47.6194 1.74623 44.7549 1.4897C37.8929 0.912523 35.349 1.48973 35.7766 6.49195C35.9476 8.45863 35.7124 9.52747 41.3987 9.95501C39.9664 10.5749 37.6578 10.7032 36.1186 10.3398L34.7291 9.93361V9.95501Z" fill="#F37715"/>
<path d="M33.7034 7.73213C32.0788 7.21908 31.2664 7.17633 29.5776 6.89843C27.2903 6.53502 24.6609 6.94118 22.1384 7.13358C20.5779 7.24046 18.6112 7.11222 17.2859 7.92455C15.1909 9.20717 13.4166 12.4565 11.792 14.3163C10.2528 16.0692 8.39303 17.9076 7.11041 19.8315C6.14844 21.2638 4.60929 22.6747 4.03211 24.3207C3.04877 27.057 3.69008 31.0545 3.66871 33.9404C3.64733 36.3987 3.58319 38.964 3.45492 41.4223C3.1984 45.8687 3.21981 50.422 3.51909 54.8684C3.77561 58.3101 4.01075 63.12 5.9133 66.0914C7.0249 67.8229 9.01295 70.8371 10.8727 71.6922C9.73977 69.8324 7.96549 67.4809 7.2173 66.07C3.88249 59.8493 5.37888 55.0822 4.95134 48.9898C4.73757 45.9756 5.48576 43.0897 5.01547 40.1183C4.54517 37.1683 4.92995 34.1969 4.97271 31.2041C4.97271 29.5581 4.4169 27.4418 4.97271 25.8599C5.7209 23.7649 8.26476 21.2424 9.54738 19.4468C11.5782 16.6036 13.8869 13.6749 16.1743 11.0456C18.3333 8.56584 19.8297 9.10026 22.3522 10.8104C22.1171 10.0622 20.471 8.9934 20.0649 8.45897C23.7845 7.62527 30.1976 7.53975 33.5752 7.94591L33.7248 7.79626L33.7034 7.73213Z" fill="#F37715"/>
<path d="M14.1002 34.7093C14.4208 34.9231 14.7842 35.1368 15.2331 35.2865C12.732 31.8875 14.7842 28.7237 16.8364 25.6668C17.8198 24.1918 21.1546 18.9117 22.7578 20.0233C23.6771 20.6646 24.0618 23.9353 24.3397 24.9828C24.7245 23.2726 25.1307 19.3179 23.5702 17.9925C21.8814 16.5602 20.1926 19.553 19.1665 20.7929C17.1143 23.2512 9.76062 31.631 14.1002 34.6879V34.7093Z" fill="#F37715"/>
<path d="M24.7245 28.1679C25.0451 33.1487 21.7103 36.5477 17.1143 36.6332C18.9741 38.3861 22.6723 37.1248 23.8908 35.1368C24.9596 33.3625 25.0451 29.9849 24.7245 27.9541V28.1465V28.1679Z" fill="#F37715"/>
<path d="M35.327 34.8171C35.0705 33.3635 34.4505 33.2993 34.023 33.9834C33.2534 35.2019 32.6762 39.9049 31.7784 42.1281C29.4911 47.7289 21.1754 55.9376 26.4983 62.0728C29.8331 65.8993 39.5169 65.8352 42.8945 62.5645C47.2554 58.3318 43.9633 51.3415 40.6499 47.0875C38.3839 44.1803 37.2937 41.615 36.3531 38.5367C36.1821 38.0023 35.5835 36.1211 35.3484 34.8171H35.327Z" fill="#F37715"/>
<path d="M34.5804 16.8382C34.4094 16.7313 34.1956 16.6457 33.9818 16.5816C32.8061 16.2182 30.4973 15.7907 29.3857 16.5816C27.9962 17.565 27.8252 19.6385 27.8894 21.1349C27.9321 22.4389 27.6114 24.0636 28.4451 25.1752C29.685 26.864 33.255 26.7784 34.7941 25.6027C35.9057 24.7476 36.1195 22.7596 36.1836 21.477C36.2692 19.724 36.1836 17.6932 34.6017 16.8168L34.5804 16.8382ZM34.0246 23.7002C33.4901 24.9614 31.5021 25.111 30.4546 24.4697C29.4713 23.8712 29.343 22.6313 29.2789 21.5839C29.1933 20.0661 28.9582 18.9117 30.476 18.0353C31.5235 17.4367 32.913 17.4367 33.768 18.3559C34.7941 19.4461 34.5376 22.4603 34.0246 23.7002Z" fill="#F37715"/>
<path d="M38.705 26.3512C40.009 26.3085 39.7097 22.5889 39.6456 21.7766C39.5814 20.9215 39.5387 20.1091 39.6456 19.2327C39.6883 18.8265 39.8166 18.3562 39.7738 17.9501C39.6883 17.1805 38.4057 16.2613 38.0637 17.1805C37.8713 17.6936 37.8713 18.6555 37.8713 18.912C37.8285 20.3229 37.7858 21.7124 37.8285 23.1233C37.8285 23.8501 37.6147 25.09 37.8926 25.7527C38.0209 26.0733 38.3843 26.3726 38.7264 26.3512H38.705Z" fill="#F37715"/>
<path d="M42.2964 16.988C41.8903 16.9025 41.4627 17.1804 41.2917 17.95C40.9711 19.4036 41.2917 21.0069 41.5482 22.4605C41.6551 23.0591 41.8048 23.7004 41.7834 24.299C41.762 24.9403 41.4413 25.6671 42.0827 26.0733C43.0232 26.6718 44.7548 26.2229 45.7595 26.1588C46.8925 26.0947 48.3034 26.3298 49.3936 25.9022C50.3555 25.5175 50.2059 24.7479 49.2867 24.4059C47.9186 23.9142 46.3581 24.3417 44.9686 24.4914C43.8142 24.6196 43.5363 24.1494 43.3653 23.0591C43.1301 21.6055 43.0874 20.1091 43.237 18.6554C43.3225 17.7576 42.8309 17.0735 42.2964 16.988Z" fill="#F37715"/>
<path opacity="0.6" d="M13.224 58.7804C15.9816 58.8018 19.3378 58.1177 21.9885 58.9087C22.6512 64.4881 24.7034 67.545 30.3897 68.1436C35.5416 68.678 41.3347 68.8704 45.4177 65.0439C47.4699 63.12 47.8547 60.9609 46.9996 58.3315C48.4105 58.5025 52.0874 57.4123 53.1135 58.2674C54.5243 59.4431 53.0493 63.6757 52.7501 65.1508C51.5743 70.837 49.5649 72.0556 43.8145 71.7135C39.1543 71.4356 34.7506 71.0081 30.0691 71.2646C26.1357 71.4784 21.6251 72.141 17.7559 71.0294C13.5446 69.8109 13.5232 66.6472 13.0957 62.8848L13.2026 58.7804H13.224Z" fill="#F37715"/>
<path d="M56.2344 23.7651C56.0847 28.126 56.6833 31.3967 57.4956 35.7149C58.2652 39.8834 57.9873 45.7621 58.479 50.1657C59.5478 46.2537 59.1203 43.7099 59.1417 40.8881C59.163 37.4464 58.6286 33.8765 58.1583 30.4348C57.8163 27.9764 57.2605 25.5394 56.8329 23.1024C56.6833 22.2687 56.4909 21.4992 56.042 20.751L56.213 23.7651H56.2344Z" fill="#F37715"/>
<path d="M4.60864 19.7244C3.83907 20.7505 2.57782 21.5628 2.1289 22.8027C1.55172 24.3418 1.65862 26.5223 1.57311 28.1683C1.38071 31.7597 1.89374 35.3082 1.85099 38.8995C1.85099 40.6952 1.89375 42.4054 1.53034 44.1583C0.867657 40.0112 0.162208 36.0137 0.119454 31.8238C0.098077 28.5103 -0.58597 24.4487 1.57311 21.7338C2.5137 20.5367 4.13835 19.4892 5.4851 18.8052L4.58727 19.7244H4.60864Z" fill="#F37715"/>
<path d="M7.43141 14.4232C6.70459 15.0432 6.10605 15.8128 5.61438 16.6465C5.20822 17.3092 6.25567 17.9291 6.66183 17.2664C7.11075 16.5182 7.64519 15.8555 8.30787 15.2997C8.90643 14.7867 8.05136 13.9529 7.45281 14.4446L7.43141 14.4232Z" fill="#F37715"/>
<path d="M9.35491 12.4775C9.35491 12.4775 9.22665 12.563 9.16252 12.6057C9.14114 12.6271 8.94874 12.8623 9.05563 12.734C8.84186 12.9905 8.79911 13.3326 9.05563 13.5891C9.2694 13.8028 9.69693 13.8456 9.9107 13.5891C9.9107 13.5891 9.93208 13.5677 9.95346 13.5463C9.97484 13.5249 9.99622 13.5036 9.99622 13.4822C10.5948 13.0546 9.99622 12.0499 9.35491 12.4561V12.4775Z" fill="#F37715"/>
<path d="M1.91386 46.1465C1.74284 45.3983 0.56709 45.719 0.759483 46.4672C0.802237 46.681 0.84501 46.8734 0.84501 47.0871C0.866387 47.8567 2.08486 47.8567 2.06348 47.0871C2.06348 46.7665 1.99937 46.4458 1.91386 46.1465Z" fill="#F37715"/>
<path d="M59.4191 52.4532C59.5046 51.6836 58.2861 51.6836 58.2006 52.4532C58.0082 54.3771 57.773 56.2582 58.0937 58.1822C58.222 58.9518 59.3977 58.6311 59.248 57.8615C58.9274 56.0659 59.2053 54.2488 59.3977 52.4532H59.4191Z" fill="#F37715"/>
<path d="M58.1158 60.3839C58.0516 60.6831 57.9875 60.961 57.9661 61.2603C57.9447 62.0299 59.1419 62.0299 59.1846 61.2603C59.1846 61.0679 59.2274 60.8969 59.2915 60.7045C59.4839 59.9563 58.3081 59.6357 58.1371 60.3839H58.1158Z" fill="#F37715"/>
<path d="M55.1436 17.544V18.4418C55.1436 19.2328 56.362 19.2328 56.362 18.4418V17.544C56.362 16.7744 55.1436 16.7744 55.1436 17.544Z" fill="#F37715"/>
</svg>
