<svg width="306" height="63" viewBox="0 0 306 63" fill="none" xmlns="http://www.w3.org/2000/svg">
<path fill-rule="evenodd" clip-rule="evenodd" d="M303.285 58.952C301.938 60.3871 300.524 60.4647 299.063 60.5449C298.606 60.57 298.145 60.5953 297.681 60.6624C297.96 61.1774 298.265 61.2914 298.569 61.4052C298.921 61.5369 299.272 61.6682 299.581 62.4226C299.104 62.4815 298.647 62.5963 298.202 62.7082C297.45 62.8972 296.732 63.0777 296.005 62.9653C292.479 62.4108 288.949 62.05 285.419 61.9268C282.701 61.827 279.981 61.6158 277.275 61.1846C274.224 60.7033 271.169 60.5987 268.115 60.4941C266.311 60.4324 264.507 60.3706 262.703 60.2311C259.121 59.9492 255.532 59.9245 251.945 59.8998H251.945C251.015 59.8934 250.086 59.887 249.157 59.8762C248.679 59.9407 248.202 60.058 247.729 60.3309H225.996C225.065 59.8072 224.12 59.7891 223.175 59.771C222.659 59.7612 222.143 59.7513 221.631 59.6591C220.629 59.4867 219.629 59.5755 218.628 59.6645C218.419 59.683 218.211 59.7016 218.002 59.7177V59.5636H65V59.2185C62.8182 59.2134 60.803 59.2301 60.4576 59.276C56.5226 59.7967 52.5984 59.5067 48.6799 59.2171H48.6799C47.2771 59.1134 45.875 59.0098 44.4734 58.9435C38.5955 58.6798 32.7498 58.8056 26.8967 59.3719C25.6574 59.494 24.42 59.3588 23.1804 59.2233C21.9243 59.0861 20.6661 58.9486 19.4016 59.0783C19.2434 59.0933 19.0258 59.0124 18.9219 58.8716C18.8426 58.7657 18.7372 58.6904 18.632 58.6151C18.4124 58.4581 18.193 58.3012 18.2097 57.8678C18.2287 57.3588 18.4947 57.2516 18.7721 57.1398C18.8196 57.1206 18.8675 57.1013 18.9145 57.0799C19.4189 56.8581 19.4733 56.3578 19.4437 55.8185C19.4066 55.2132 19.0109 55.0904 18.6153 55.0155C18.4035 54.9811 18.1895 54.9564 17.9752 54.9316L17.9751 54.9316C17.5914 54.8873 17.2068 54.8428 16.8324 54.7429C16.1944 54.5811 15.732 54.0567 15.8111 53.2238C15.8902 52.4718 16.0782 51.6748 16.9733 51.7707C17.2849 51.8006 17.6064 51.7647 17.9229 51.7197C17.9517 51.7164 17.9811 51.7135 18.0107 51.7105C18.2985 51.682 18.6087 51.6513 18.6647 51.1894C18.7068 50.8059 18.4941 50.5752 18.2394 50.3774C18.1809 50.3325 18.1227 50.2871 18.0644 50.2417L18.0632 50.2408C17.4811 49.7875 16.8999 49.335 16.1474 49.3078C16.4128 48.3659 16.9519 48.3701 17.4811 48.3743C17.6471 48.3756 17.8121 48.3769 17.9674 48.349C18.0309 48.3366 18.1 48.336 18.1695 48.3353C18.3843 48.3334 18.603 48.3314 18.6722 47.9805C18.7211 47.7291 18.5856 47.6668 18.4405 47.6002C18.3142 47.5422 18.1807 47.4809 18.1553 47.2884C18.1957 47.2696 18.2353 47.2502 18.2748 47.2309C18.3612 47.1886 18.447 47.1466 18.5386 47.1116C18.609 47.083 18.6899 47.0631 18.7722 47.043L18.7723 47.043C19.0253 46.981 19.2909 46.9159 19.3002 46.5813C19.3138 46.1275 19.0123 46.0864 18.7265 46.0475C18.6462 46.0365 18.5671 46.0258 18.4966 46.006C18.0169 45.8652 17.5297 45.7184 17.1885 45.239C16.7384 44.5979 16.1598 44.2443 15.2102 44.1334C15.6615 44.0442 16.087 43.9633 16.4945 43.8858C17.3998 43.7137 18.2157 43.5586 19.0258 43.3664C19.1195 43.3437 19.2318 43.3388 19.3475 43.3338C19.72 43.3176 20.1284 43.2998 20.0718 42.6803C20.0124 42.0032 19.3794 41.9433 18.8675 41.9223C18.8295 41.9205 18.7914 41.9186 18.7533 41.9167C18.7225 41.9151 18.6917 41.9135 18.6609 41.912C18.4118 41.8992 18.1609 41.8863 17.913 41.8863C17.5668 41.8803 17.3294 41.7245 17.1588 41.3201C16.4516 39.6302 15.3685 38.7763 13.7513 39.034C13.3977 39.0849 12.8561 39.1508 12.8314 38.4887C12.8067 37.8625 13.3185 37.8086 13.6895 37.7726C14.2126 37.7225 14.7357 37.6882 15.258 37.6538L15.2581 37.6538C15.8295 37.6163 16.4 37.5788 16.9684 37.5209C17.4629 37.47 18.0268 37.3441 18.1677 36.673C18.3218 35.8936 17.7768 35.6125 17.2648 35.3485L17.2478 35.3397C17.3336 35.2658 17.4002 35.2062 17.4647 35.1484L17.4648 35.1484L17.5223 35.097C17.6179 35.0088 17.7399 34.9449 17.862 34.8809C18.0966 34.7578 18.3316 34.6346 18.3804 34.339C18.1726 34.303 17.9674 34.2671 17.7597 34.2221C17.1093 34.0903 16.4936 33.8476 16.0015 33.2873C15.7592 33.2574 15.5094 33.1675 15.272 32.9398C15.3759 32.9098 15.4798 32.8859 15.5886 32.8649C15.1658 32.5376 14.6738 32.4942 14.1974 32.4521L14.1222 32.4454C12.181 32.2687 10.324 31.8282 8.60289 30.6477C8.30205 30.4391 7.9436 30.3606 7.58327 30.2816L7.58324 30.2816C7.41046 30.2438 7.23725 30.2058 7.06975 30.1534C6.87687 30.0934 6.58261 29.7609 6.65679 29.7399C6.93078 29.6513 7.0284 29.3863 7.12728 29.118C7.25239 28.7785 7.37951 28.4336 7.86847 28.4336L7.78303 28.3511C7.34234 27.9255 7.03652 27.6302 6.78538 27.3879C6.82413 27.0196 7.05388 26.9114 7.26111 26.8139C7.47699 26.7122 7.66843 26.6221 7.59399 26.2613C7.50092 25.8168 7.17858 25.6799 6.85571 25.5427C6.73249 25.4904 6.60919 25.438 6.49853 25.3685C6.11525 25.1258 5.7196 25.009 5.28191 24.979C5.18644 24.9727 5.08894 24.9761 4.98965 24.9795H4.98964C4.70832 24.9891 4.41255 24.9992 4.10733 24.7932C4.25519 24.7434 4.39799 24.7 4.53638 24.658C4.8308 24.5685 5.10526 24.4852 5.36599 24.3588C5.44336 24.323 5.52812 24.2915 5.61464 24.2594L5.61466 24.2594C5.98437 24.122 6.38632 23.9727 6.38231 23.424C6.38231 22.9837 6.13173 22.9598 5.8628 22.9341C5.67599 22.9162 5.48032 22.8975 5.35362 22.7379C5.71766 22.1645 6.2107 22.1141 6.71778 22.0624L6.71781 22.0624C6.83073 22.0508 6.94435 22.0392 7.05739 22.0218C7.19824 21.9993 7.35633 21.9923 7.51834 21.985C8.11293 21.9584 8.76044 21.9295 8.80319 21.1289C8.84003 20.5018 8.2786 20.4066 7.75059 20.3172C7.56979 20.2865 7.39292 20.2565 7.24532 20.2061C6.16452 19.8392 5.05619 19.8216 3.94584 19.8039H3.94573C3.60554 19.7985 3.26516 19.7931 2.92533 19.7777C2.29971 19.7477 1.66667 19.6278 1.03363 19.4151C2.58903 19.3642 4.12217 19.0616 5.65036 18.759C5.7094 18.7473 5.76989 18.7364 5.83104 18.7254C6.16175 18.6659 6.51192 18.6028 6.75818 18.3904C6.79936 18.3556 6.84012 18.322 6.88009 18.2891C7.34895 17.9025 7.71021 17.6048 7.39121 16.4369L7.38627 16.428C6.95026 14.8431 6.14466 14.5804 5.19516 14.2707L5.19513 14.2707C5.01916 14.2133 4.83824 14.1543 4.65382 14.085C3.12068 13.4947 1.57518 13.261 0 13.1052V12.8475C0.551117 12.8403 1.10268 12.838 1.65429 12.8357H1.65455H1.65461C2.94182 12.8302 4.22928 12.8248 5.51188 12.7577C5.56291 12.755 5.61444 12.7527 5.66634 12.7503C6.44439 12.715 7.30282 12.676 7.7201 11.6311C7.87836 11.2266 6.44413 9.24915 5.84077 9.0514C5.47911 8.93424 5.12165 8.79264 4.76362 8.65081L4.7636 8.6508C3.74831 8.2486 2.7284 7.84457 1.59496 7.99076C2.35716 6.42109 2.37356 6.42042 3.77426 6.36354L3.84027 6.36085C5.01979 6.30992 6.19438 6.18408 7.38132 5.94738C7.03195 5.79797 6.66598 5.74477 6.29956 5.69151C5.69604 5.60378 5.09129 5.51587 4.55738 4.9976C4.80591 4.88482 5.06714 4.87053 5.34962 4.85508C5.77259 4.83193 6.24323 4.80619 6.79032 4.44331C5.80269 4.38741 5.4857 3.71921 5.17932 3.07335C5.04231 2.78454 4.90743 2.5002 4.71564 2.27708C4.85833 1.97803 5.08222 2.00145 5.29233 2.02342C5.35166 2.02962 5.4099 2.03572 5.4649 2.0344C9.84424 1.9535 14.2063 2.21716 18.5757 2.63063C20.8567 2.84607 23.1234 3.18797 25.3887 3.52967C27.5341 3.85327 29.6783 4.17669 31.8324 4.39237C32.9199 4.49871 33.9989 4.7322 35.0776 4.96561C35.9441 5.15311 36.8104 5.34055 37.6806 5.462C39.4165 5.71368 41.1623 5.75862 42.9081 5.76461C41.7477 5.54993 40.5871 5.33463 39.4263 5.11931L39.4254 5.11913C36.1639 4.51412 32.9015 3.90892 29.639 3.31675C28.7378 3.15122 27.8369 2.97961 26.9361 2.808C24.3149 2.30865 21.6932 1.80921 19.0579 1.45913C18.2326 1.34789 17.4116 1.1951 16.5907 1.04232C15.3554 0.812425 14.1203 0.582568 12.871 0.494369C12.3714 0.458415 11.8917 0.332576 11.459 2.60262e-06L16.7656 2.37066e-06C17.8067 0.479388 18.9145 0.575265 19.9902 0.656161C22.5689 0.859594 25.1273 1.28436 27.6851 1.70904C29.0074 1.92858 30.3296 2.14811 31.6544 2.33701C33.3787 2.57994 35.0914 2.92267 36.8038 3.26535C38.2595 3.55663 39.7149 3.84788 41.1771 4.07778C46.0065 4.84479 50.8681 5.57586 55.7296 4.72794C56.3246 4.62551 56.9224 4.54864 57.5207 4.47169C58.7777 4.31005 60.0372 4.14807 61.2786 3.7482C61.49 3.68073 63.1265 3.63254 65 3.60037V3.43636H220V3.48711C220.369 3.48835 220.737 3.49171 221.106 3.49693C225.387 3.57851 229.675 3.5643 233.957 3.5501L234.969 3.54679C235.072 3.19182 235.194 2.91019 235.336 2.71071C233.234 2.60084 231.132 2.43628 229.031 2.27175C225.353 1.98379 221.677 1.69592 218 1.70152V0.272829C221.249 0.134947 224.503 0.20829 227.757 0.366708C228.793 0.415904 229.829 0.474189 230.865 0.532471C233.906 0.703571 236.947 0.874634 239.985 0.81555C239.922 0.58379 239.882 0.331504 239.91 0H245.625C245.411 0.316836 245.175 0.448839 244.939 0.519247C245.317 0.495442 245.697 0.475871 246.076 0.456294C247.426 0.386602 248.778 0.316834 250.121 0.0557404V1.81594C250.767 2.25012 251.439 2.32052 252.12 2.32052C254.343 2.31331 256.565 2.32022 258.786 2.32713C262.886 2.33989 266.984 2.35264 271.081 2.27653C276.863 2.17678 282.641 2.52296 288.401 3.54094C292.294 4.22742 296.194 4.82587 300.094 5.34513C300.48 5.395 300.855 5.5681 301.218 6.25458C300.972 6.60565 300.72 6.55972 300.473 6.51464C300.187 6.46254 299.908 6.41157 299.652 6.97625C300.492 7.55418 301.281 7.75661 302.088 7.89155C302.107 7.89446 302.128 7.89703 302.151 7.89982C302.404 7.93074 302.875 7.98844 302.671 8.8362C302.427 9.8538 302.641 9.91834 302.835 9.97689C302.879 9.99025 302.923 10.0033 302.959 10.0273C303.349 10.2971 303.727 10.6724 304.098 11.0415C304.74 11.6797 305.362 12.2991 306 12.3214C304.038 13.0674 302.032 12.8137 299.979 12.554C298.496 12.3664 296.988 12.1757 295.454 12.3566C296.574 12.8611 297.651 13.3483 298.707 13.8263L298.73 13.8365C299.706 14.2778 300.664 14.7114 301.623 15.1436C301.061 16.139 300.477 16.0316 299.871 15.9202C299.415 15.8363 298.947 15.7502 298.467 16.1322C298.574 16.2018 298.667 16.2654 298.749 16.3222C298.925 16.4427 299.056 16.5331 299.193 16.5869C299.26 16.6141 299.33 16.6392 299.402 16.6648C299.956 16.8632 300.596 17.0919 300.586 18.5496C300.581 19.5734 299.78 20.2012 298.996 20.477L299.052 20.5057C299.584 20.7768 299.931 20.9532 300.281 21.1488C300.299 21.1585 300.317 21.1679 300.335 21.1776C300.523 21.2762 300.743 21.392 300.754 21.8998C300.769 22.6823 300.489 22.6504 300.287 22.6273C300.277 22.6262 300.268 22.6251 300.258 22.6241C300.248 22.6231 300.239 22.6222 300.23 22.6215C299.651 22.5903 299.071 22.5165 298.492 22.4427C298.253 22.4123 298.015 22.3819 297.777 22.3545C299.078 23.8859 300.431 24.8452 301.894 25.2647C300.849 26.4411 299.765 26.4985 298.717 26.5541C297.937 26.5954 297.178 26.6357 296.468 27.1335C296.697 28.9817 297.308 29.7327 298.093 29.897C297.667 30.037 297.258 30.0563 296.855 30.0753C296.718 30.0818 296.581 30.0882 296.445 30.0994L296.433 30.1002C296.205 30.1145 295.915 30.1328 295.892 30.8798C295.877 31.5853 296.126 31.7148 296.346 31.8289C296.362 31.8372 296.378 31.8454 296.393 31.8538C297.072 32.2096 297.753 32.5537 298.433 32.8972L298.434 32.898L298.881 33.124C298.494 33.7081 298.071 33.7302 297.645 33.7525C297.16 33.7778 296.671 33.8034 296.227 34.6613C296.356 34.7247 296.484 34.7865 296.612 34.848C297.746 35.3943 298.812 35.9079 299.78 37.237H289.846C290.01 37.8106 290.219 37.9011 290.383 37.9726C290.535 38.0385 290.65 38.0883 290.658 38.4868C290.671 39.2505 290.404 39.3883 290.161 39.5141C290.094 39.5487 290.029 39.5824 289.972 39.628C289.752 39.8011 289.455 39.9389 289.282 39.7072C288.566 38.7271 287.917 39.2686 287.267 39.8113L287.267 39.8115C287.117 39.9364 286.967 40.0613 286.817 40.1678C287.982 40.4098 289.145 40.5474 290.31 40.6851L290.311 40.6852C290.671 40.7278 291.03 40.7704 291.391 40.8161C291.815 40.8728 291.927 40.2203 292.037 39.5726C292.11 39.1486 292.182 38.7267 292.341 38.5073C292.298 38.4572 292.256 38.4067 292.211 38.3526L292.206 38.3473L292.205 38.3461C292.135 38.2626 292.058 38.1704 291.962 38.0585C292.4 37.7563 292.767 37.8854 293.074 38.434C293.248 38.7466 293.513 38.7922 293.759 38.8346C294.096 38.8928 294.399 38.9448 294.382 39.6749C294.364 40.5141 294.106 40.4917 293.787 40.4641C293.498 40.439 293.158 40.4095 292.903 41.0185C294.907 41.3354 296.763 42.057 298.577 43.5532C297.871 45.3341 297.038 45.3504 296.215 45.3665C295.944 45.3718 295.674 45.3771 295.41 45.4454C297.126 45.8268 297.184 45.8855 297.76 48.3028C295.68 48.4589 293.619 48.2026 291.565 47.9471C289.257 47.66 286.957 47.3739 284.647 47.675C284.788 48.1278 284.956 48.0978 285.115 48.0696C285.155 48.0623 285.195 48.0552 285.234 48.0564C287.65 48.1196 290.049 48.738 292.448 49.3564C294.169 49.8 295.89 50.2436 297.617 50.4825C297.743 50.5005 297.895 50.4738 298.053 50.4461C298.54 50.3606 299.082 50.2653 299.073 51.4419C299.07 52.3842 298.509 52.2674 298.001 52.1617C297.835 52.1272 297.675 52.094 297.542 52.099C297.256 52.1119 296.969 52.1285 296.683 52.1452C295.534 52.2119 294.385 52.2786 293.224 52.1049C295.451 52.9503 297.573 54.6161 299.697 56.2835L299.697 56.2836C300.89 57.22 302.083 58.1568 303.296 58.9491L303.285 58.952Z" fill="#F37715"/>
</svg>
