<svg width="100" height="40" viewBox="0 0 100 40" fill="none" xmlns="http://www.w3.org/2000/svg">
<path fill-rule="evenodd" clip-rule="evenodd" d="M5.15696 10.4361C5.37953 11.1776 5.12748 11.3667 4.80034 11.6121L4.80028 11.6121C4.77241 11.633 4.74399 11.6544 4.71528 11.6765C4.54347 11.8113 4.29915 11.8513 4.06841 11.8891L4.06838 11.8891C4.02572 11.8961 3.98353 11.903 3.94234 11.9105C2.8761 12.1026 1.8064 12.2947 0.721181 12.3271C1.16286 12.4621 1.60454 12.5382 2.04105 12.5572C2.27818 12.5671 2.51569 12.5705 2.75307 12.5739C3.52778 12.5851 4.30108 12.5963 5.05517 12.8293C5.15815 12.8613 5.28156 12.8803 5.40771 12.8998C5.7761 12.9566 6.16782 13.017 6.14212 13.4152C6.11229 13.9235 5.66051 13.9419 5.24566 13.9587C5.13262 13.9633 5.02232 13.9678 4.92405 13.9821C4.84517 13.9932 4.7659 14.0005 4.68711 14.0078L4.6871 14.0079C4.3333 14.0407 3.9893 14.0727 3.7353 14.4367C3.8237 14.5381 3.96022 14.55 4.09056 14.5613C4.2782 14.5776 4.45304 14.5928 4.45304 14.8724C4.45583 15.2208 4.17539 15.3156 3.91743 15.4028L3.91741 15.4028C3.85705 15.4232 3.79792 15.4432 3.74393 15.4659C3.56201 15.5461 3.37052 15.5991 3.16509 15.6559C3.06854 15.6826 2.96891 15.7101 2.86575 15.7417C3.07871 15.8725 3.28507 15.8661 3.48135 15.86C3.55063 15.8578 3.61865 15.8557 3.68527 15.8597C3.99065 15.8787 4.2667 15.9529 4.53412 16.107C4.61133 16.1511 4.69735 16.1844 4.78331 16.2176L4.78333 16.2176C5.0086 16.3047 5.23351 16.3916 5.29844 16.6739C5.35038 16.9029 5.21681 16.9602 5.06619 17.0247C4.9216 17.0866 4.7613 17.1553 4.73426 17.3891L5.48995 18.0531C5.1488 18.0531 5.06011 18.2721 4.97281 18.4876C4.90382 18.658 4.83571 18.8262 4.64455 18.8825C4.59279 18.8958 4.7981 19.1069 4.93267 19.145C5.04953 19.1783 5.17038 19.2024 5.29093 19.2264L5.29096 19.2264C5.54237 19.2766 5.79247 19.3264 6.00237 19.4589C7.20319 20.2084 8.4989 20.488 9.85327 20.6003L9.90574 20.6045C10.2381 20.6312 10.5814 20.6588 10.8764 20.8666C10.8005 20.8799 10.728 20.8951 10.6555 20.9141C10.8212 21.0587 10.9954 21.1158 11.1645 21.1348C11.5078 21.4906 11.9374 21.6446 12.3912 21.7283C12.5361 21.7569 12.6793 21.7797 12.8243 21.8025C12.7902 21.9902 12.6263 22.0685 12.4626 22.1466C12.3774 22.1872 12.2923 22.2278 12.2256 22.2838L12.1854 22.3165C12.1404 22.3531 12.0939 22.391 12.0341 22.4379L12.0459 22.4435C12.4031 22.6111 12.7834 22.7896 12.6759 23.2844C12.5775 23.7106 12.1842 23.7905 11.8391 23.8228C11.4425 23.8596 11.0444 23.8834 10.6457 23.9072C10.2813 23.929 9.91632 23.9508 9.55134 23.9826C9.29254 24.0054 8.9354 24.0397 8.95265 24.4373C8.96991 24.8577 9.34775 24.8158 9.59447 24.7835C10.7228 24.6199 11.4785 25.162 11.972 26.235C12.091 26.4918 12.2566 26.5907 12.4982 26.5945C12.6711 26.5945 12.8462 26.6027 13.0201 26.6108C13.0682 26.613 13.1163 26.6153 13.1641 26.6173C13.5213 26.6306 13.963 26.6687 14.0044 27.0986C14.0439 27.4919 13.7589 27.5032 13.499 27.5135H13.499C13.4183 27.5167 13.34 27.5198 13.2746 27.5342C12.7094 27.6562 12.1402 27.7547 11.5086 27.864L11.5085 27.864C11.2242 27.9132 10.9273 27.9646 10.6124 28.0212C11.2749 28.0916 11.6787 28.3161 11.9927 28.7232C12.2308 29.0276 12.5706 29.1208 12.9053 29.2102C12.9545 29.2227 13.0097 29.2295 13.0657 29.2365C13.2652 29.2612 13.4755 29.2873 13.4661 29.5754C13.4596 29.7879 13.2743 29.8292 13.0977 29.8685C13.0403 29.8813 12.9838 29.8939 12.9347 29.9121C12.8708 29.9343 12.8109 29.961 12.7506 29.9878C12.7231 30.0001 12.6954 30.0124 12.6673 30.0244C12.6849 30.1466 12.7781 30.1855 12.8662 30.2223C12.9674 30.2646 13.062 30.3042 13.0278 30.4638C12.9796 30.6866 12.827 30.6878 12.6771 30.6891H12.6771C12.6286 30.6895 12.5804 30.6899 12.5361 30.6978C12.4278 30.7155 12.3127 30.7147 12.1969 30.7139C11.8276 30.7112 11.4515 30.7085 11.2663 31.3065C11.7914 31.3238 12.1968 31.6111 12.6029 31.8989C12.6439 31.9279 12.6848 31.9569 12.7259 31.9857C12.9036 32.1112 13.052 32.2577 13.0227 32.5012C12.9836 32.7944 12.7671 32.814 12.5663 32.8321L12.5662 32.8321C12.5456 32.834 12.5252 32.8358 12.5051 32.8379C12.2842 32.8665 12.0599 32.8893 11.8426 32.8703C11.218 32.8094 11.0869 33.3154 11.0317 33.7929C10.9764 34.3217 11.2991 34.6546 11.7442 34.7574C12.0055 34.8208 12.2738 34.8491 12.5415 34.8772C12.6911 34.8929 12.8404 34.9087 12.9882 34.9305C13.2642 34.978 13.5403 35.056 13.5661 35.4403C13.5868 35.7827 13.5489 36.1004 13.1969 36.2412C13.1641 36.2548 13.1307 36.2671 13.0976 36.2792C12.904 36.3502 12.7185 36.4183 12.7052 36.7415C12.6936 37.0166 12.8466 37.1162 12.9998 37.2159C13.0733 37.2637 13.1467 37.3116 13.2021 37.3788C13.2746 37.4682 13.4264 37.5195 13.5368 37.51C14.419 37.4277 15.2969 37.515 16.1733 37.6021H16.1733C17.0382 37.6881 17.9016 37.7739 18.7662 37.6965C21.2497 37.4778 23.7313 37.3626 26.2172 37.3435V38H40.5029V37.8205C40.7134 37.8279 40.9239 37.8458 41.1346 37.8788C41.4923 37.9373 41.852 37.9436 42.212 37.9499C42.8711 37.9613 43.531 37.9728 44.1806 38.3053H59.3437C59.6737 38.1321 60.0068 38.0576 60.34 38.0166C60.9882 38.0235 61.6366 38.0276 62.285 38.0316H62.2853C64.7882 38.0473 67.292 38.063 69.7917 38.242C71.0498 38.3305 72.3086 38.3698 73.5675 38.409C75.6982 38.4754 77.8294 38.5418 79.9587 38.8473C81.8467 39.1212 83.7446 39.2553 85.6408 39.3186C88.1037 39.3968 90.5667 39.6259 93.0263 39.978C93.5342 40.0493 94.035 39.9347 94.5595 39.8147C94.8699 39.7437 95.1886 39.6708 95.522 39.6334C95.3063 39.1544 95.0614 39.0711 94.8157 38.9874C94.6036 38.9152 94.3909 38.8428 94.1958 38.5158C94.5201 38.4732 94.8417 38.4571 95.1601 38.4412C96.1793 38.3903 97.1662 38.341 98.1058 37.4299L98.1139 37.428C97.2675 36.9249 96.4348 36.3301 95.6026 35.7355C94.1207 34.6769 92.6402 33.6192 91.086 33.0825C91.8964 33.1928 92.6983 33.1504 93.4994 33.1081L93.5001 33.108C93.6999 33.0975 93.8996 33.0869 94.0994 33.0787C94.1922 33.0755 94.3038 33.0967 94.4193 33.1186C94.7735 33.1856 95.1651 33.2598 95.1675 32.6615C95.1737 31.9145 94.7951 31.975 94.4553 32.0293C94.3452 32.0469 94.2392 32.0638 94.1516 32.0524C92.9463 31.9007 91.7455 31.6191 90.5449 31.3374C88.8709 30.9447 87.1971 30.5521 85.5117 30.512C85.4847 30.5112 85.4568 30.5158 85.4284 30.5204C85.3179 30.5383 85.2005 30.5573 85.1018 30.2699C86.7134 30.0787 88.3182 30.2603 89.9288 30.4426C91.3621 30.6048 92.8 30.7676 94.2513 30.6685C93.8495 29.1336 93.8087 29.0964 92.6115 28.8542C92.7956 28.8109 92.984 28.8075 93.1731 28.8041C93.7473 28.7939 94.3286 28.7835 94.8213 27.6528C93.5555 26.7029 92.2603 26.2447 90.8623 26.0435C91.0404 25.6569 91.2773 25.6755 91.4793 25.6915C91.7016 25.709 91.8817 25.7232 91.8945 25.1904C91.9058 24.7269 91.6951 24.6938 91.4594 24.6569C91.2879 24.63 91.1033 24.601 90.9815 24.4025C90.7675 24.0542 90.5111 23.9722 90.2057 24.1641C90.273 24.2353 90.327 24.2939 90.3758 24.347L90.3762 24.3474L90.3775 24.3488C90.4098 24.3839 90.4399 24.4167 90.4703 24.4491C90.3591 24.5884 90.3088 24.8563 90.2583 25.1255C90.1811 25.5367 90.1033 25.951 89.8072 25.915C89.5556 25.886 89.3043 25.8589 89.053 25.8318C88.2405 25.7444 87.4291 25.657 86.6158 25.5033C86.721 25.4357 86.8255 25.3563 86.9299 25.277C87.3837 24.9325 87.8365 24.5886 88.3356 25.2109C88.4565 25.3581 88.6639 25.2705 88.8174 25.1606C88.8573 25.1317 88.9027 25.1103 88.9494 25.0883C89.1191 25.0085 89.305 24.921 89.296 24.4361C89.2905 24.183 89.2105 24.1515 89.1044 24.1096C88.9895 24.0642 88.8439 24.0067 88.7292 23.6426H95.6608C94.9854 22.7987 94.2414 22.4726 93.4502 22.1257C93.3612 22.0867 93.2716 22.0474 93.1815 22.0072C93.4912 21.4625 93.8324 21.4463 94.1711 21.4301C94.4682 21.416 94.7634 21.402 95.0336 21.0311L94.7211 20.8873L94.721 20.8873C94.2466 20.6691 93.7715 20.4506 93.2975 20.2246C93.2866 20.2193 93.2756 20.2141 93.2644 20.2088C93.1111 20.1364 92.9373 20.0542 92.9479 19.6062C92.964 19.1319 93.1664 19.1203 93.3253 19.1112L93.3334 19.1107C93.4285 19.1036 93.5238 19.0995 93.6196 19.0954L93.6197 19.0954C93.9007 19.0834 94.1861 19.0711 94.4832 18.9822C93.9361 18.8779 93.5098 18.4011 93.3497 17.2276C93.8448 16.9115 94.3749 16.886 94.9187 16.8598C95.6504 16.8245 96.4067 16.788 97.1356 16.0411C96.1148 15.7747 95.1708 15.1657 94.2627 14.1934C94.4289 14.2107 94.5953 14.23 94.7617 14.2493C95.166 14.2962 95.5706 14.3431 95.9744 14.3629C95.987 14.3637 96.0003 14.3651 96.0142 14.3665C96.1553 14.3812 96.3506 14.4015 96.3402 13.9046C96.3328 13.5822 96.179 13.5087 96.0479 13.4461C96.0351 13.44 96.0225 13.4339 96.0103 13.4278C95.7659 13.3037 95.5245 13.1918 95.1539 13.0199L95.1535 13.0198L95.1136 13.0013C95.6608 12.8262 96.2194 12.4276 96.2226 11.7775C96.2299 10.852 95.7836 10.7068 95.3966 10.5808C95.3467 10.5646 95.2977 10.5486 95.2508 10.5314C95.1554 10.4972 95.0637 10.4398 94.9415 10.3633C94.8839 10.3272 94.8194 10.2869 94.7445 10.2427C95.0793 10.0001 95.406 10.0548 95.7242 10.1081C96.1465 10.1788 96.554 10.247 96.9462 9.61498C96.2774 9.34054 95.6086 9.06525 94.9278 8.78502C94.1855 8.47946 93.4289 8.16804 92.6425 7.84546C93.7125 7.73062 94.7644 7.8517 95.7992 7.97081C97.2316 8.13568 98.6311 8.29677 100 7.82311C99.5554 7.80895 99.1209 7.41568 98.6732 7.01048C98.4143 6.77615 98.151 6.53783 97.8787 6.36652C97.8533 6.3513 97.8231 6.34302 97.7922 6.33454C97.6568 6.29736 97.5076 6.25638 97.6778 5.61029C97.8202 5.07203 97.4911 5.03539 97.3147 5.01576C97.2988 5.01399 97.2841 5.01236 97.2712 5.01051C96.7077 4.92483 96.1573 4.79631 95.571 4.42937C95.7496 4.07084 95.9447 4.1032 96.1441 4.13628C96.3166 4.1649 96.4924 4.19406 96.6636 3.97116C96.4104 3.5353 96.1491 3.4254 95.8796 3.39374C93.1586 3.06405 90.4376 2.68407 87.7215 2.24821C83.7021 1.60188 79.6712 1.38209 75.6371 1.44542C72.778 1.49374 69.9189 1.48564 67.0584 1.47754C65.5087 1.47316 63.9585 1.46877 62.4077 1.47335C61.9324 1.47335 61.4637 1.42865 61.0129 1.15298V0.0353907C60.0757 0.201165 59.1326 0.245462 58.1905 0.289711C57.9258 0.30214 57.6612 0.314567 57.3969 0.329681C57.5619 0.284977 57.7268 0.201166 57.8754 0H53.8887C53.8691 0.210479 53.8968 0.370661 53.9409 0.51781C51.8211 0.555323 49.6995 0.446712 47.5774 0.338077C46.8546 0.301073 46.1317 0.264066 45.4088 0.232831C43.1386 0.132248 40.8684 0.0856803 38.6014 0.173225V1.08033C41.1666 1.07678 43.7318 1.25955 46.2979 1.44238C47.764 1.54684 49.2304 1.65132 50.6973 1.72108C50.5977 1.84774 50.5127 2.02655 50.4409 2.25193L49.7347 2.25403L49.5378 2.25463V2.25425C49.4209 2.25114 48.6923 2.25251 47.7524 2.25936C45.4244 2.26406 43.0953 2.26062 40.7687 2.22027C40.6801 2.21913 40.5915 2.21813 40.5029 2.21727V2H26.2172V2.17109C26.0376 2.13862 25.8581 2.10593 25.6786 2.07324C24.4838 1.85566 23.2888 1.63805 22.0857 1.48381C21.1614 1.36388 20.239 1.2245 19.3164 1.08511L19.3163 1.0851C17.5317 0.815467 15.7467 0.545772 13.9474 0.416608C13.1969 0.365246 12.424 0.304371 11.6976 0H7.9951C8.29703 0.211158 8.63175 0.291055 8.98026 0.313883C9.85196 0.369882 10.7137 0.515823 11.5756 0.661788C12.1483 0.758788 12.7211 0.8558 13.297 0.926431C15.1357 1.1487 16.9649 1.46581 18.7937 1.78285C19.4223 1.89182 20.0508 2.00077 20.6796 2.10587C22.5256 2.41078 24.3716 2.72113 26.2172 3.03245V3.45844C25.6346 3.38126 25.0545 3.26703 24.4742 3.15277C23.7216 3.00457 22.9687 2.85632 22.21 2.78881C20.707 2.65187 19.211 2.44652 17.7141 2.24106C16.1335 2.0241 14.552 1.80703 12.9606 1.67024C9.91193 1.40772 6.86847 1.24031 3.81294 1.29168C3.77457 1.29252 3.73394 1.28865 3.69254 1.28471C3.54594 1.27076 3.38973 1.25589 3.29017 1.44577C3.42399 1.58743 3.5181 1.76796 3.61369 1.95133C3.82746 2.3614 4.04862 2.78565 4.73771 2.82115C4.356 3.05154 4.02763 3.06789 3.73251 3.08259C3.53542 3.0924 3.35316 3.10147 3.17975 3.17308C3.55227 3.50214 3.97421 3.55795 4.3953 3.61365C4.65096 3.64747 4.9063 3.68125 5.15006 3.77611C4.32191 3.9264 3.50239 4.00629 2.67941 4.03863L2.63336 4.04034C1.65607 4.07646 1.64463 4.07688 1.11283 5.0735C1.90364 4.98068 2.61525 5.2372 3.32364 5.49257C3.57344 5.58262 3.82285 5.67253 4.07519 5.74692C4.49617 5.87247 5.49685 7.12801 5.38643 7.38482C5.09529 8.04824 4.49635 8.073 3.95349 8.09545L3.9534 8.09545C3.91722 8.09695 3.88129 8.09843 3.84572 8.1001C2.95082 8.14271 2.05253 8.14617 1.15442 8.14963C0.769488 8.15112 0.384588 8.1526 0 8.15717V8.32077C1.09902 8.41969 2.17735 8.56807 3.24704 8.94283C3.37571 8.98685 3.50194 9.02431 3.62472 9.06075L3.62474 9.06075C4.28723 9.25737 4.8493 9.42419 5.15351 10.4304L5.15696 10.4361Z" fill="#F37715"/>
</svg>
