<svg width="100" height="52" viewBox="0 0 100 52" fill="none" xmlns="http://www.w3.org/2000/svg">
<g clip-path="url(#clip0_3236_24644)">
<path d="M22.3391 6.81674L22.0801 1.82065H36.6312L36.3426 6.81674H32.3437V22.6994H26.3528V6.81674H22.3391ZM44.2282 18.5354C44.907 18.5354 45.6271 18.4839 46.382 18.381C47.138 18.2781 47.8877 18.1397 48.6373 17.9649L49.2612 21.7739C48.41 22.1954 47.4214 22.5246 46.2964 22.7659C45.1714 23.0071 43.9248 23.1305 42.5566 23.1305C37.5194 23.1305 35.0008 20.396 35.0008 14.9323C35.0008 13.4932 35.1626 12.2546 35.4872 11.2059C35.8118 10.1625 36.2929 9.29817 36.9262 8.62044C37.5596 7.94271 38.3399 7.443 39.2725 7.12022C40.205 6.79637 41.2793 6.6323 42.4963 6.6323C43.7122 6.6323 44.7505 6.81138 45.6133 7.17169C46.474 7.53629 47.1845 8.03065 47.7418 8.66762C48.299 9.30031 48.7103 10.0499 48.9683 10.9088C49.2263 11.7721 49.3532 12.7072 49.3532 13.7152C49.3532 14.023 49.3331 14.3425 49.2918 14.6664C49.2516 14.9902 49.2062 15.2991 49.1501 15.5864C49.0941 15.8738 49.0328 16.1419 48.9725 16.3778C48.9112 16.6138 48.8551 16.7993 48.8054 16.9333H40.9896C41.0308 17.2057 41.1217 17.447 41.2581 17.6422C41.3956 17.8438 41.588 18.0068 41.8365 18.1408C42.0839 18.2695 42.4043 18.3714 42.7934 18.4389C43.1836 18.5065 43.6604 18.5365 44.2282 18.5365V18.5354ZM43.9089 13.0761C43.8983 12.4638 43.7778 12.023 43.5441 11.7549C43.3115 11.4826 42.9467 11.3485 42.4498 11.3485C41.9634 11.3485 41.5891 11.4879 41.3195 11.7699C41.0509 12.0477 40.9039 12.4841 40.8838 13.075H43.9089V13.0761ZM57.2832 22.976C56.4521 23.1508 55.656 23.1712 54.8915 23.0382C54.126 22.9042 53.4472 22.6318 52.8582 22.2211C52.2704 21.8093 51.7998 21.2753 51.4446 20.6179C51.0893 19.9595 50.9127 19.1938 50.9127 18.3199V1.4657L56.6604 0.833008V17.24C56.6604 17.61 56.7218 17.9446 56.8381 18.2427C56.9544 18.5408 57.1014 18.8024 57.279 19.0287C57.4566 19.255 57.6491 19.4459 57.8616 19.6003C58.0741 19.7536 58.2824 19.8673 58.4854 19.9391L57.2843 22.9771L57.2832 22.976ZM68.4223 18.5354C69.1011 18.5354 69.8212 18.4839 70.5761 18.381C71.3321 18.2781 72.0818 18.1397 72.8314 17.9649L73.4553 21.7739C72.6041 22.1954 71.6155 22.5246 70.4905 22.7659C69.3655 23.0071 68.1189 23.1305 66.7496 23.1305C61.7124 23.1305 59.1938 20.396 59.1938 14.9323C59.1938 13.4932 59.3556 12.2546 59.6802 11.2059C60.0048 10.1625 60.4859 9.29817 61.1203 8.62044C61.7537 7.94271 62.534 7.443 63.4665 7.12022C64.4002 6.79637 65.4734 6.6323 66.6904 6.6323C67.9063 6.6323 68.9446 6.81138 69.8074 7.17169C70.6681 7.53629 71.3786 8.03065 71.9359 8.66762C72.4931 9.30031 72.9044 10.0499 73.1624 10.9088C73.4204 11.7721 73.5472 12.7072 73.5472 13.7152C73.5472 14.023 73.5272 14.3425 73.4859 14.6664C73.4457 14.9902 73.4003 15.2991 73.3442 15.5864C73.2882 15.8738 73.2269 16.1419 73.1666 16.3778C73.1053 16.6138 73.0492 16.7993 72.9995 16.9333H65.1847C65.226 17.2057 65.3169 17.447 65.4533 17.6422C65.5907 17.8438 65.7832 18.0068 66.0317 18.1408C66.2791 18.2695 66.5995 18.3714 66.9896 18.4389C67.3798 18.5065 67.8566 18.5365 68.4244 18.5365L68.4223 18.5354ZM68.103 13.0761C68.0935 12.4638 67.9719 12.023 67.7382 11.7549C67.5056 11.4826 67.1408 11.3485 66.6439 11.3485C66.1575 11.3485 65.7821 11.4879 65.5136 11.7699C65.245 12.0477 65.098 12.4841 65.0779 13.075H68.103V13.0761Z" fill="white"/>
<path d="M72.2891 35.0568C72.2891 31.8686 73.0059 29.4923 74.4386 27.9224C75.8713 26.3589 77.9532 25.5771 80.6833 25.5771C83.4356 25.5771 85.5175 26.3707 86.928 27.9535C88.3374 29.5352 89.0426 31.9169 89.0426 35.0932C89.0426 38.3467 88.3321 40.7649 86.9047 42.3595C85.4773 43.9466 83.3901 44.7412 80.6495 44.7412C77.9078 44.7412 75.8322 43.9466 74.4164 42.3595C73.0007 40.7649 72.2901 38.3349 72.2901 35.0578L72.2891 35.0568ZM82.4914 35.1275C82.4914 34.2793 82.4575 33.5758 82.3888 33.015C82.3211 32.4531 82.2133 32.0059 82.0642 31.6767C81.9225 31.3486 81.7343 31.1159 81.507 30.9786C81.2786 30.8403 81.0121 30.7695 80.7108 30.7695C80.4042 30.7695 80.1303 30.8349 79.903 30.9668C79.6704 31.0976 79.4769 31.3303 79.3225 31.6649C79.1692 31.9995 79.056 32.4466 78.982 33.0032C78.908 33.5587 78.8742 34.2686 78.8742 35.1275C78.8742 35.9811 78.908 36.6921 78.982 37.2594C79.056 37.8266 79.1702 38.2802 79.3172 38.6202C79.4652 38.9601 79.6471 39.1993 79.8755 39.3365C80.1028 39.4748 80.3756 39.5456 80.6939 39.5456C80.9952 39.5456 81.2617 39.4748 81.4901 39.3365C81.7184 39.1993 81.9056 38.9612 82.0473 38.6202C82.1953 38.2802 82.3084 37.8256 82.3824 37.2594C82.4565 36.6921 82.4903 35.9822 82.4903 35.1275H82.4914Z" fill="white"/>
<path fill-rule="evenodd" clip-rule="evenodd" d="M82.4042 2.68079C83.4774 3.84858 84.9164 5.99221 85.9896 7.16108C87.5302 6.87369 89.0707 6.58737 90.6091 6.3032C91.4201 6.15414 91.8113 6.92087 91.4159 7.70155C90.7424 9.03448 90.0678 10.3685 89.3932 11.7014C90.1513 13.2102 91.1272 14.8606 91.8822 16.3651C92.2174 17.0342 91.8568 17.3742 91.1748 17.3602C89.519 17.327 87.8801 17.1919 86.2328 17.1232C84.0272 23.2925 81.8226 27.8007 79.5388 31.3845C76.0453 36.8653 72.0295 41.0528 67.8435 44.8661C59.8278 52.1678 43.3999 54.5977 39.5268 45.3905C39.1779 44.5605 39.9043 43.6865 40.4393 44.7975C40.9944 45.9492 41.7779 46.8178 42.738 47.4076C49.1296 51.3431 59.8225 44.0661 64.4431 39.8561C67.7663 36.8288 70.9658 33.1903 73.7773 28.7518C76.2652 24.8249 78.4487 20.2695 80.1457 14.9582L75.4162 12.5657C74.6687 12.1872 74.8389 11.1845 75.5029 10.8446C76.8669 10.1476 79.0873 9.47093 80.4534 8.77068C80.6881 7.22757 81.0846 4.581 81.314 3.0411C81.4081 2.41163 81.9485 2.18322 82.4063 2.68079H82.4042Z" fill="#FDCB14"/>
<path d="M8.33398 20.0361H18.3142C19.269 20.0361 20.1847 20.1498 21.0559 20.3814C21.9261 20.6141 22.6885 20.9777 23.3472 21.4667C24.007 21.9556 24.5303 22.5873 24.9163 23.3636C25.3033 24.139 25.4968 25.0623 25.4968 26.1357C25.4968 27.3764 25.2641 28.438 24.7915 29.3206C24.3199 30.2031 23.5016 30.8583 22.3406 31.2883V31.5393C22.8872 31.7537 23.3937 32.01 23.8537 32.3146C24.3147 32.6191 24.7069 32.9945 25.0368 33.4352C25.3667 33.8759 25.6215 34.3949 25.8044 34.9976C25.9863 35.5992 26.0772 36.3091 26.0772 37.1209C26.0772 38.1943 25.9292 39.1658 25.6332 40.043C25.3382 40.9191 24.838 41.6709 24.1328 42.2971C23.4275 42.9234 22.495 43.4059 21.3287 43.7459C20.1635 44.0858 18.7076 44.2585 16.9672 44.2585H8.33398V20.0372L8.33398 20.0361ZM14.7827 33.9885V39.1401H16.7621C17.5815 39.1401 18.218 38.9503 18.6737 38.5675C19.1284 38.1868 19.3557 37.5359 19.3557 36.6179C19.3557 35.7944 19.1506 35.151 18.7414 34.6856C18.3322 34.2212 17.6841 33.9875 16.7959 33.9875H14.7827V33.9885ZM14.7827 24.7588V29.2659H16.7621C18.2635 29.2659 19.0142 28.4852 19.0142 26.9228C19.0142 26.1464 18.8038 25.592 18.383 25.2585C17.9621 24.925 17.3764 24.7577 16.6257 24.7577H14.7827V24.7588Z" fill="white"/>
<path d="M28.6475 44.2365V37.7101L27.2148 37.441V32.5092H35.0973V44.2365H28.6486H28.6475ZM27.5553 27.8884C27.5553 27.2675 27.641 26.7432 27.8048 26.3185C27.9698 25.8949 28.2087 25.5539 28.527 25.2912C28.8463 25.0285 29.2439 24.8376 29.7218 24.7239C30.1997 24.6103 30.7453 24.5566 31.3596 24.5566C31.9739 24.5566 32.5248 24.6113 33.0144 24.7239C33.5039 24.8376 33.9131 25.0274 34.243 25.2912C34.5729 25.5539 34.8298 25.8949 35.0053 26.3185C35.1809 26.7421 35.2665 27.2675 35.2665 27.8884C35.2665 28.4857 35.1809 28.9865 35.0106 29.393C34.8393 29.7994 34.5898 30.12 34.2589 30.3656C33.929 30.6101 33.5198 30.7838 33.0302 30.8857C32.5417 30.9875 31.9845 31.0412 31.3586 31.0412C30.7442 31.0412 30.1987 30.9865 29.7207 30.8857C29.2428 30.7838 28.8453 30.6111 28.5259 30.3656C28.2077 30.1211 27.9687 29.7983 27.8038 29.393C27.6388 28.9865 27.5542 28.4857 27.5542 27.8884H27.5553Z" fill="white"/>
<path d="M43.7564 44.2393H37.3066V26.0779H42.4252L42.7488 27.9471C43.0226 27.6243 43.3345 27.3197 43.6814 27.0334C44.0292 26.746 44.4088 26.4897 44.8296 26.2753C45.2515 26.0608 45.7062 25.8924 46.1894 25.768C46.6726 25.6426 47.1843 25.5771 47.731 25.5771C48.8454 25.5771 49.7664 25.7434 50.4949 26.0779C51.2223 26.4125 51.8028 26.9197 52.23 27.5996C52.6561 28.2806 52.9521 29.1341 53.1224 30.1668C53.2936 31.1995 53.3782 32.4231 53.3782 33.8321V44.2382H46.9295V33.1641C46.9295 32.3587 46.8439 31.7614 46.6673 31.3786C46.4918 30.9968 46.1439 30.8059 45.6321 30.8059C45.2335 30.8059 44.8984 30.8724 44.6203 31.0033C44.3422 31.1341 44.0525 31.3142 43.7564 31.5405V44.2382V44.2393Z" fill="white"/>
<path d="M54.4121 46.3047C54.4121 45.9583 54.4692 45.6248 54.5834 45.302C54.6965 44.9792 54.8562 44.6747 55.056 44.3937C55.2548 44.1138 55.4821 43.85 55.7433 43.6056C56.0055 43.3611 56.2899 43.1402 56.5966 42.9493C56.1356 42.6383 55.7951 42.2447 55.5784 41.7611C55.3563 41.2775 55.2485 40.7284 55.2485 40.1075C55.2485 39.8084 55.2939 39.5038 55.3849 39.1875C55.4758 38.8711 55.6006 38.5719 55.7666 38.2867C55.9252 37.9993 56.125 37.7312 56.3576 37.4867C56.586 37.2476 56.8472 37.0331 57.1432 36.854C56.4263 36.4004 55.8586 35.7613 55.4367 34.9442C55.0159 34.1195 54.8054 33.1169 54.8054 31.9351C54.8054 30.9614 54.9936 30.0896 55.369 29.3014C55.7433 28.5197 56.273 27.8516 56.9444 27.3026C57.6159 26.7471 58.4237 26.3224 59.3615 26.0243C60.2994 25.7262 61.3345 25.5771 62.4659 25.5771C62.9216 25.5771 63.3815 25.619 63.8425 25.6962C64.3025 25.7734 64.8597 25.8871 65.5089 26.0426L71.6965 26.0243V30.1261L69.8535 29.9288C69.9445 30.1679 70.0185 30.4842 70.0745 30.8724C70.1316 31.2595 70.1602 31.666 70.1602 32.0842C70.1602 33.0632 69.9783 33.9286 69.6146 34.6868C69.2498 35.4385 68.738 36.0723 68.073 36.5795C67.4068 37.0867 66.617 37.4685 65.6961 37.7248C64.7804 37.9821 63.7569 38.113 62.6308 38.113C62.3401 38.113 62.0725 38.1012 61.8399 38.0829C61.6073 38.0593 61.3916 38.0347 61.1865 38.0047C61.0956 38.1001 61.0216 38.2073 60.9645 38.3274C60.9084 38.4465 60.8799 38.5719 60.8799 38.7038C60.8799 39.0019 60.9824 39.2529 61.1865 39.4555C61.3916 39.6582 61.6983 39.759 62.1074 39.759H64.5129C65.5026 39.759 66.4235 39.8373 67.2768 39.9928C68.1301 40.1472 68.8755 40.44 69.5067 40.87C70.138 41.3 70.6328 41.9027 70.9902 42.6726C71.3486 43.4436 71.5252 44.4398 71.5252 45.6634C71.5252 46.5717 71.338 47.3888 70.968 48.1169C70.5979 48.8451 70.047 49.467 69.3132 49.9732C68.5794 50.4804 67.6585 50.8697 66.5546 51.1378C65.4508 51.4069 64.1608 51.5442 62.6763 51.5442C62.1085 51.5442 61.5111 51.527 60.8852 51.4959C60.2592 51.4659 59.6396 51.3951 59.0189 51.2815C58.4046 51.1678 57.8199 51.0016 57.2616 50.7807C56.7044 50.5598 56.2159 50.2552 55.7951 49.867C55.3743 49.4799 55.0391 48.9952 54.7885 48.4108C54.539 47.8317 54.4132 47.1272 54.4132 46.3025L54.4121 46.3047ZM59.7178 45.7492C59.7178 45.9401 59.7464 46.1374 59.7971 46.3283C59.849 46.5191 59.9684 46.6929 60.1619 46.8419C60.3544 46.992 60.6451 47.1164 61.0374 47.2119C61.4244 47.3073 61.9531 47.3545 62.6245 47.3545C63.2895 47.3545 63.8235 47.3073 64.2274 47.2172C64.6313 47.1272 64.9443 47.0081 65.1653 46.858C65.3873 46.7089 65.5353 46.5352 65.6094 46.3325C65.6823 46.1363 65.7235 45.9208 65.7235 45.6945C65.7235 45.2398 65.5872 44.9299 65.3144 44.7691C65.0416 44.6071 64.6778 44.5246 64.2168 44.5246H60.5542C60.3047 44.6672 60.1048 44.8355 59.9526 45.0318C59.7982 45.2227 59.7189 45.4618 59.7189 45.7481L59.7178 45.7492ZM60.8439 31.9169C60.8439 33.1351 61.4128 33.7442 62.5441 33.7442C63.7093 33.7442 64.2898 33.1415 64.2898 31.9362C64.2898 31.3271 64.1481 30.8617 63.8637 30.5389C63.5845 30.2161 63.1532 30.0553 62.578 30.0553C61.4233 30.0553 60.8439 30.6762 60.8439 31.918V31.9169Z" fill="white"/>
</g>
<defs>
<clipPath id="clip0_3236_24644">
<rect width="100" height="51.6667" fill="white"/>
</clipPath>
</defs>
</svg>
