<svg width="39" height="24" viewBox="0 0 39 24" fill="none" xmlns="http://www.w3.org/2000/svg">
<path fill-rule="evenodd" clip-rule="evenodd" d="M27.215 12.2708C27.585 12.6408 27.585 13.242 27.215 13.612C26.845 13.9819 26.2438 13.9819 25.8738 13.612L24.0101 11.7482C23.6401 11.3782 23.6401 10.777 24.0101 10.407C24.38 10.0371 24.9813 10.0371 25.3512 10.407L27.215 12.2708Z" fill="#F37715"/>
<path fill-rule="evenodd" clip-rule="evenodd" d="M29.8235 8.43702C30.1935 8.06704 30.7947 8.06704 31.1647 8.43702C31.5346 8.807 31.5346 9.40821 31.1647 9.77819L27.2336 13.7092C26.8637 14.0792 26.2625 14.0792 25.8925 13.7092C25.5225 13.3392 25.5225 12.738 25.8925 12.368L29.8235 8.43702Z" fill="#F37715"/>
<path d="M26.6925 20.9976C31.6872 20.9976 35.7199 16.9741 35.706 12.0025C35.6922 7.03093 31.6317 3.0028 26.637 3.0028C21.6423 3.0028 17.6095 7.0263 17.6234 11.9979C17.6373 16.9694 21.6978 20.9976 26.6925 20.9976ZM26.6416 4.67232C30.7067 4.67232 34.0134 7.95587 34.0273 12.0025C34.0411 16.0491 30.7576 19.328 26.6925 19.328C22.6273 19.328 19.3207 16.0445 19.3068 11.9979C19.2929 7.95124 22.5765 4.67232 26.6416 4.67232Z" fill="#F37715"/>
<path d="M13.3824 18.4035C12.8736 18.4035 12.462 18.8104 12.4667 19.3145C12.4667 19.8186 12.8829 20.2302 13.3916 20.2302H19.7182C19.0708 19.6938 18.488 19.0787 17.9839 18.4035H13.3824Z" fill="#F37715"/>
<path d="M12.416 4.66312C12.416 5.16722 12.8323 5.57882 13.341 5.57882H17.938C18.4374 4.90823 19.0201 4.29315 19.663 3.75206H13.3364C12.8276 3.75206 12.416 4.15903 12.4207 4.66312H12.416Z" fill="#F37715"/>
<path d="M6.30184 8.3259C6.30184 8.83 6.71806 9.2416 7.22678 9.2416H16.1802C16.3467 8.61263 16.5687 7.99755 16.8416 7.41483H7.22216C6.71344 7.41021 6.30184 7.81718 6.30646 8.3259H6.30184Z" fill="#F37715"/>
<path d="M7.24557 14.7403C6.73685 14.7357 6.32526 15.1427 6.32988 15.6514C6.32988 16.1555 6.7461 16.5671 7.25482 16.5671H16.8789C16.6014 15.989 16.3748 15.3785 16.2036 14.7403H7.24557Z" fill="#F37715"/>
<path d="M15.8335 11.9934C15.8335 11.6836 15.8474 11.3784 15.8705 11.0777L1.21944 11.0685C0.710724 11.0685 0.299125 11.4801 0.30375 11.9842C0.30375 12.4883 0.719974 12.8999 1.22869 12.8999L15.8798 12.9091C15.852 12.6085 15.8382 12.3033 15.8335 11.9934Z" fill="#F37715"/>
<path d="M38.6427 12.0026C38.6196 5.41697 33.2411 0.0754255 26.6231 0.0708008C26.3872 0.0708008 26.1514 0.0800499 25.9201 0.093924H17.8454C17.3367 0.0892993 16.9251 0.500899 16.9297 1.00499C16.9297 1.50909 17.3459 1.92069 17.8546 1.92069H27.0717V1.92531C32.4641 2.15655 36.779 6.57778 36.7975 12.0026C36.816 17.2562 32.7878 21.5711 27.6313 22.0382V22.0752H17.9194C17.4107 22.0706 16.9991 22.4775 17.0037 22.9863C17.0037 23.4904 17.4199 23.902 17.9286 23.902H26.008C26.2392 23.9205 26.4705 23.9297 26.7063 23.9297C33.3243 23.9297 38.6705 18.5928 38.652 12.0072L38.6427 12.0026Z" fill="#F37715"/>
<path d="M26.6863 20.9982C31.681 20.9982 35.7137 16.9747 35.6999 12.0031C35.686 7.03155 31.6255 3.00342 26.6308 3.00342C21.6361 3.00342 17.6033 7.02692 17.6172 11.9985C17.6311 16.9701 21.6916 20.9982 26.6863 20.9982ZM26.6354 4.67294C30.7005 4.67294 34.0072 7.95649 34.0211 12.0031C34.035 16.0497 30.7514 19.3287 26.6863 19.3287C22.6212 19.3287 19.3145 16.0451 19.3006 11.9985C19.2867 7.95186 22.5703 4.67294 26.6354 4.67294Z" fill="white"/>
</svg>
